<svg width="88" height="77" viewBox="0 0 88 77" fill="none" xmlns="http://www.w3.org/2000/svg">
<path d="M6.13729 63.5229C3.11141 63.5229 0 65.9477 0 70.1918C0 74.0718 2.73565 76.8124 6.13729 76.8124C8.94517 76.8124 10.1966 74.9277 10.1966 74.9277V75.7492C10.1966 76.1375 10.5637 76.5708 11.0181 76.5708H13.0478V63.8129H10.1966V65.4318C10.1966 65.4318 8.93468 63.5229 6.13729 63.5229ZM6.64518 66.1317C9.13612 66.1317 10.4428 68.3224 10.4428 70.1909C10.4428 72.2721 8.89138 74.2487 6.65047 74.2487C4.7772 74.2487 2.90073 72.7316 2.90073 70.1634C2.90073 67.8452 4.51555 66.1317 6.64518 66.1317Z" fill="#333333"/>
<path d="M17.0105 76.5707C16.5724 76.5707 16.189 76.2565 16.189 75.7492V63.8129H19.0401V65.3916C19.6862 64.4205 20.9485 63.519 22.8859 63.519C26.0525 63.519 27.7387 66.0433 27.7387 68.4038V76.5707H25.7573C25.2378 76.5707 24.8875 76.1358 24.8875 75.7009V69.032C24.8875 67.7236 24.0858 66.1346 22.2318 66.1346C20.2313 66.1346 19.0401 68.0252 19.0401 69.8052V76.5707H17.0105Z" fill="#333333"/>
<path d="M36.0504 63.5223C33.0245 63.5223 29.9131 65.9471 29.9131 70.1912C29.9131 74.0712 32.6487 76.8118 36.0504 76.8118C38.8583 76.8118 40.1097 74.9271 40.1097 74.9271V75.7486C40.1097 76.1369 40.4768 76.5702 40.9312 76.5702H42.9609V57.4333H40.1097V65.4312C40.1097 65.4312 38.8478 63.5223 36.0504 63.5223ZM36.5583 66.131C39.0492 66.131 40.3559 68.3217 40.3559 70.1903C40.3559 72.2715 38.8045 74.2481 36.5636 74.2481C34.6903 74.2481 32.8138 72.731 32.8138 70.1628C32.8138 67.8446 34.4286 66.131 36.5583 66.131V66.131Z" fill="#333333"/>
<path d="M46.9233 76.5708C46.4853 76.5708 46.1018 76.2566 46.1018 75.7492V63.8129H48.953V65.9393C49.4438 64.7481 50.5028 63.668 52.3841 63.668C52.9086 63.668 53.3989 63.7646 53.3989 63.7646V66.7124C53.3989 66.7124 52.7866 66.4708 52.0458 66.4708C50.0453 66.4708 48.953 68.3614 48.953 70.1414V76.5708H46.9233Z" fill="#333333"/>
<path d="M70.6992 76.5706C70.2612 76.5706 69.8777 76.2564 69.8777 75.7491V63.8127H72.7289V76.5706H70.6992Z" fill="#333333"/>
<path d="M81.0895 63.5223C78.0636 63.5223 74.9521 65.9471 74.9521 70.1912C74.9521 74.0712 77.6878 76.8118 81.0895 76.8118C83.8973 76.8118 85.1488 74.9271 85.1488 74.9271V75.7486C85.1488 76.1369 85.5159 76.5702 85.9703 76.5702H88V57.4333H85.1488V65.4312C85.1488 65.4312 83.8869 63.5223 81.0895 63.5223V63.5223ZM81.5973 66.131C84.0883 66.131 85.3949 68.3217 85.3949 70.1903C85.3949 72.2715 83.8435 74.2481 81.6026 74.2481C79.7294 74.2481 77.8529 72.731 77.8529 70.1628C77.8529 67.8446 79.4677 66.131 81.5973 66.131Z" fill="#333333"/>
<path d="M71.2811 61.0611C72.3225 61.0611 73.1668 60.2168 73.1668 59.1753C73.1668 58.1338 72.3225 57.2896 71.2811 57.2896C70.2396 57.2896 69.3953 58.1338 69.3953 59.1753C69.3953 60.2168 70.2396 61.0611 71.2811 61.0611Z" fill="#333333"/>
<path d="M60.9176 63.5188C57.7486 63.5188 54.2671 65.8842 54.2671 70.1693C54.2671 74.0741 57.2326 76.813 60.9107 76.813C65.4436 76.813 67.6569 73.169 67.6569 70.194C67.6569 66.5434 64.8068 63.5188 60.9176 63.5188ZM60.9279 66.1814C63.1193 66.1814 64.7539 67.9476 64.7539 70.1773C64.7539 72.4457 63.0187 74.196 60.9344 74.196C58.9996 74.196 57.1188 72.6215 57.1188 70.2154C57.1188 67.7693 58.9077 66.1814 60.9279 66.1814V66.1814Z" fill="#333333"/>
<path d="M65.4775 14.8583L72.7725 2.22138C73.1841 1.51295 72.9352 0.613058 72.2363 0.2014C71.5375 -0.210251 70.628 0.0290763 70.2259 0.737509L62.8353 13.5372C57.1965 10.9619 50.8494 9.5259 44.0235 9.5259C37.1977 9.5259 30.8505 10.9619 25.2118 13.5372L17.8211 0.737509C17.4094 0.0290763 16.5095 -0.210251 15.8011 0.2014C15.0927 0.613058 14.8533 1.51295 15.265 2.22138L22.5599 14.8583C9.98048 21.6746 1.46015 34.4072 0.0528564 49.313H87.9942C86.5869 34.4072 78.0665 21.6746 65.4775 14.8583ZM23.8332 36.9633C21.7941 36.9633 20.1474 35.3071 20.1474 33.2775C20.1474 31.2384 21.8036 29.5918 23.8332 29.5918C25.8723 29.5918 27.519 31.248 27.519 33.2775C27.5286 35.3071 25.8723 36.9633 23.8332 36.9633ZM64.2043 36.9633C62.1651 36.9633 60.5185 35.3071 60.5185 33.2775C60.5185 31.2384 62.1747 29.5918 64.2043 29.5918C66.2434 29.5918 67.89 31.248 67.89 33.2775C67.8996 35.3071 66.2434 36.9633 64.2043 36.9633Z" fill="#32DE84"/>
</svg>
