<svg width="130" height="130" viewBox="0 0 130 130" fill="none" xmlns="http://www.w3.org/2000/svg">
<path d="M54.1484 90.1333C75.6875 90.1333 93.1484 72.6724 93.1484 51.1333C93.1484 29.5942 75.6875 12.1333 54.1484 12.1333C32.6093 12.1333 15.1484 29.5942 15.1484 51.1333C15.1484 72.6724 32.6093 90.1333 54.1484 90.1333Z" fill="#56CCF2" fill-opacity="0.4"/>
<path d="M61.9484 116.133V103.672L47.5756 88.7068C45.7876 86.9388 44.5687 84.6638 44.0786 82.1808C43.5382 79.4408 43.9143 76.599 45.1498 74.0943L49.5867 65.0979L56.7484 60.6666H96.615V90.2629C96.615 92.7706 96.4469 95.2752 96.1119 97.7604L95.1742 104.716C94.9792 106.161 94.8817 107.618 94.8817 109.076V116.133H61.9484Z" fill="#E7D1C4"/>
<path d="M94.8818 117.867H61.9484C60.9912 117.867 60.2151 117.091 60.2151 116.133V104.37L46.3255 89.9076C44.3135 87.9186 42.9377 85.3524 42.3782 82.5162C41.7681 79.4201 42.2006 76.1575 43.5955 73.3274L48.0328 64.3305C48.1767 64.0393 48.3994 63.7941 48.675 63.6229L55.8358 59.1921C56.1101 59.0226 56.4256 58.9329 56.748 58.9329H96.6147C97.5719 58.9329 98.348 59.709 98.348 60.6663V90.2625C98.348 92.8348 98.1738 95.4348 97.8302 97.9914L96.8924 104.949C96.7078 106.309 96.6147 107.697 96.6147 109.076V116.133C96.6151 117.091 95.839 117.867 94.8818 117.867ZM63.6818 114.4H93.1484V109.077C93.1484 107.542 93.2524 105.998 93.4565 104.484L94.3943 97.5286C94.7175 95.1258 94.8818 92.6805 94.8818 90.2625V62.4H57.2411L50.9223 66.31L46.7051 74.8605C45.6447 77.0112 45.3154 79.492 45.779 81.8446C46.2037 83.9969 47.2467 85.9435 48.7946 87.4736L63.1986 102.471C63.5084 102.794 63.6818 103.224 63.6818 103.672V114.4Z" fill="#4C241D"/>
<path d="M77.5485 97.8944C76.5913 97.8944 75.8152 97.1183 75.8152 96.161V86.5176C75.8152 82.1557 72.0092 78.6067 67.3305 78.6067C66.3733 78.6067 65.5972 77.8306 65.5972 76.8733C65.5972 75.9161 66.3733 75.14 67.3305 75.14C73.9202 75.14 79.2818 80.2443 79.2818 86.5176V96.161C79.2818 97.1183 78.5057 97.8944 77.5485 97.8944Z" fill="#4C241D"/>
<path d="M62.056 74.5186H61.6968C58.8844 74.5186 56.6042 72.2388 56.6042 69.4261V56.6952C56.6042 53.8829 58.884 51.6027 61.6968 51.6027H62.056C64.8683 51.6027 67.1485 53.8824 67.1485 56.6952V69.4261C67.1485 72.2384 64.8688 74.5186 62.056 74.5186Z" fill="#E7D1C4"/>
<path d="M62.056 76.2515H61.6972C57.9333 76.2515 54.8713 73.1905 54.8713 69.4265V56.6956C54.8713 52.9317 57.9333 49.8698 61.6972 49.8698H62.056C65.8199 49.8698 68.8819 52.9317 68.8819 56.6956V69.4265C68.8819 73.19 65.8199 76.2515 62.056 76.2515ZM61.6972 53.3364C59.8447 53.3364 58.338 54.8431 58.338 56.6956V69.4265C58.338 71.2782 59.8447 72.7849 61.6972 72.7849H62.056C63.9085 72.7849 65.4152 71.2782 65.4152 69.4265V56.6956C65.4152 54.8431 63.9085 53.3364 62.056 53.3364H61.6972Z" fill="#4C241D"/>
<path d="M82.7483 74.5333C79.8766 74.5333 77.5483 72.205 77.5483 69.3333V60.6541C77.5483 57.7824 79.8766 55.4541 82.7483 55.4541C85.62 55.4541 87.9483 57.7824 87.9483 60.6541V69.3333C87.9483 72.205 85.62 74.5333 82.7483 74.5333Z" fill="#E7D1C4"/>
<path d="M82.7485 76.2667C78.9257 76.2667 75.8152 73.1562 75.8152 69.3333V60.6541C75.8152 56.8312 78.9257 53.7208 82.7485 53.7208C86.5714 53.7208 89.6818 56.8312 89.6818 60.6541V69.3333C89.6818 73.1562 86.5714 76.2667 82.7485 76.2667ZM82.7485 57.1874C80.8366 57.1874 79.2819 58.7422 79.2819 60.6541V69.3333C79.2819 71.2452 80.8366 72.8 82.7485 72.8C84.6604 72.8 86.2152 71.2452 86.2152 69.3333V60.6541C86.2152 58.7422 84.6604 57.1874 82.7485 57.1874Z" fill="#4C241D"/>
<path d="M92.2818 74.5186C89.8885 74.5186 87.9485 72.5786 87.9485 70.1853V61.5333C87.9485 59.14 89.8885 57.2 92.2818 57.2C94.6751 57.2 96.6151 59.14 96.6151 61.5333V70.1853C96.6151 72.5786 94.6751 74.5186 92.2818 74.5186Z" fill="#E7D1C4"/>
<path d="M92.2818 76.2514C88.9369 76.2514 86.2151 73.5297 86.2151 70.1848V61.5333C86.2151 58.1884 88.9369 55.4666 92.2818 55.4666C95.6267 55.4666 98.3484 58.1884 98.3484 61.5333V70.1848C98.3484 73.5297 95.6267 76.2514 92.2818 76.2514ZM92.2818 58.9333C90.8479 58.9333 89.6818 60.0994 89.6818 61.5333V70.1848C89.6818 71.6187 90.8479 72.7848 92.2818 72.7848C93.7157 72.7848 94.8818 71.6187 94.8818 70.1848V61.5333C94.8818 60.0994 93.7157 58.9333 92.2818 58.9333Z" fill="#4C241D"/>
<path d="M72.3484 74.5333C69.4767 74.5333 67.1484 72.205 67.1484 69.3333V57.2C67.1484 54.3283 69.4767 52 72.3484 52C75.2201 52 77.5484 54.3283 77.5484 57.2V69.3333C77.5484 72.205 75.2201 74.5333 72.3484 74.5333Z" fill="#E7D1C4"/>
<path d="M72.3484 76.2667C68.5255 76.2667 65.415 73.1562 65.415 69.3333V57.2C65.415 53.3771 68.5255 50.2667 72.3484 50.2667C76.1712 50.2667 79.2817 53.3771 79.2817 57.2V69.3333C79.2817 73.1562 76.1712 76.2667 72.3484 76.2667ZM72.3484 53.7333C70.4365 53.7333 68.8817 55.2881 68.8817 57.2V69.3333C68.8817 71.2452 70.4365 72.8 72.3484 72.8C74.2602 72.8 75.815 71.2452 75.815 69.3333V57.2C75.815 55.2881 74.2602 53.7333 72.3484 53.7333Z" fill="#4C241D"/>
<path d="M55.3314 74.7414C56.3134 76.6164 57.8686 77.6711 59.579 78.2249C64.1415 79.7013 69.0902 77.4038 71.3154 73.1558L72.1682 71.5273L55.3314 61.8835L50.4209 64.698" fill="#E7D1C4"/>
<path d="M62.3656 80.3933C61.2519 80.3933 60.133 80.2256 59.0445 79.8729C56.6629 79.1037 54.8966 77.6469 53.7964 75.5456C53.3523 74.6976 53.6794 73.6498 54.5279 73.2065C55.3759 72.7615 56.4228 73.0891 56.867 73.938C57.5417 75.2245 58.6029 76.0877 60.1118 76.5752C63.7453 77.7491 67.9027 75.9352 69.7799 72.352L69.8588 72.202L55.3321 63.8807L51.2839 66.2021C50.4511 66.6796 49.3951 66.3919 48.9175 65.5608C48.4417 64.7296 48.7286 63.671 49.5588 63.1943L54.4694 60.3794C55.0024 60.0722 55.6584 60.0722 56.1936 60.3794L73.0303 70.0237C73.8385 70.4865 74.1366 71.5065 73.7042 72.3316L72.8509 73.9601C70.7519 77.9662 66.5958 80.3933 62.3656 80.3933Z" fill="#4C241D"/>
<path d="M41.1469 64.1333C40.7941 64.1333 40.4366 64.0259 40.1285 63.8014L21.0619 49.9347C20.2884 49.3718 20.1163 48.2876 20.6801 47.5133C21.2421 46.7398 22.3272 46.5677 23.1016 47.1315L42.1682 60.9982C42.9417 61.5611 43.1138 62.6453 42.55 63.4196C42.2116 63.8863 41.6825 64.1333 41.1469 64.1333Z" fill="#2F80ED"/>
<path d="M48.0826 55.4667C47.5631 55.4667 47.0491 55.234 46.7081 54.7903L29.3748 32.2569C28.7906 31.4977 28.9328 30.4092 29.6911 29.8264C30.4503 29.2414 31.5388 29.3839 32.1217 30.1427L49.455 52.676C50.0391 53.4352 49.897 54.5238 49.1387 55.1066C48.8241 55.3497 48.4518 55.4667 48.0826 55.4667Z" fill="#EB5757"/>
<path d="M56.7477 46.8008C55.985 46.8008 55.2869 46.2938 55.0763 45.5238L47.525 17.8953C47.2728 16.9719 47.8171 16.019 48.7405 15.7659C49.6683 15.5103 50.6177 16.058 50.8699 16.9814L58.4212 44.6099C58.6734 45.5333 58.1291 46.4862 57.2057 46.7393C57.0523 46.7805 56.8985 46.8008 56.7477 46.8008Z" fill="#F2C94C"/>
<path d="M68.8835 45.0667C68.8471 45.0667 68.8107 45.0658 68.7735 45.0632C67.818 45.003 67.0917 44.1805 67.1519 43.225L68.8853 15.4917C68.9455 14.537 69.7662 13.8008 70.7234 13.8701C71.6789 13.9304 72.4052 14.7528 72.345 15.7083L70.6116 43.4417C70.554 44.3599 69.7918 45.0667 68.8835 45.0667Z" fill="#2F80ED"/>
<path d="M81.0142 46.8C80.7707 46.8 80.5224 46.7484 80.2862 46.6392C79.4178 46.2371 79.0395 45.2071 79.4425 44.3378L90.4657 20.5348C90.8678 19.6673 91.8979 19.2898 92.7671 19.6911C93.6355 20.0932 94.0138 21.1233 93.6108 21.9925L82.5877 45.7955C82.2948 46.4278 81.6686 46.8 81.0142 46.8Z" fill="#219653"/>
<path d="M93.1484 50.2666C92.7051 50.2666 92.2614 50.0972 91.9229 49.7588C91.2461 49.0819 91.2461 47.9847 91.9229 47.3078L107.523 31.7078C108.2 31.031 109.297 31.031 109.974 31.7078C110.651 32.3847 110.651 33.4819 109.974 34.1588L94.3739 49.7588C94.0354 50.0972 93.5917 50.2666 93.1484 50.2666Z" fill="#EB5757"/>
<path d="M21.2436 101.244C20.8003 101.244 20.3566 101.074 20.0181 100.736C19.3413 100.059 19.3413 98.9616 20.0181 98.2848L23.6954 94.6075C24.3723 93.9306 25.4695 93.9306 26.1463 94.6075C26.8232 95.2844 26.8232 96.3816 26.1463 97.0584L22.4691 100.736C22.1306 101.074 21.6873 101.244 21.2436 101.244Z" fill="#4C241D"/>
<path d="M29.8232 92.664C29.3799 92.664 28.9362 92.4945 28.5977 92.1561C27.9209 91.4792 27.9209 90.382 28.5977 89.7052L32.275 86.0279C32.9519 85.351 34.0491 85.351 34.7259 86.0279C35.4028 86.7048 35.4028 87.802 34.7259 88.4788L31.0487 92.1561C30.7102 92.4945 30.2669 92.664 29.8232 92.664Z" fill="#4C241D"/>
<path d="M33.9371 101.68C33.4938 101.68 33.0501 101.51 32.7116 101.172L29.0045 97.4649C28.3276 96.788 28.3276 95.6908 29.0045 95.0139C29.6813 94.3371 30.7785 94.3371 31.4554 95.0139L35.1626 98.7211C35.8394 99.398 35.8394 100.495 35.1626 101.172C34.8241 101.511 34.3808 101.68 33.9371 101.68Z" fill="#4C241D"/>
<path d="M24.9214 92.664C24.4781 92.664 24.0343 92.4945 23.6959 92.1561L20.0186 88.4788C19.3418 87.802 19.3418 86.7048 20.0186 86.0279C20.6955 85.351 21.7927 85.351 22.4696 86.0279L26.1468 89.7052C26.8237 90.382 26.8237 91.4792 26.1468 92.1561C25.8084 92.4945 25.3647 92.664 24.9214 92.664Z" fill="#4C241D"/>
<path d="M109.006 25.4297C106.711 25.4297 104.585 23.9399 103.886 21.6337C103.473 20.267 103.615 18.8205 104.288 17.5613C104.962 16.302 106.086 15.3803 107.453 14.9665C110.274 14.1115 113.265 15.7114 114.12 18.5324C114.975 21.3534 113.375 24.3442 110.554 25.2001C110.039 25.3552 109.518 25.4297 109.006 25.4297ZM109.001 18.2026C108.821 18.2026 108.638 18.229 108.457 18.2841C107.977 18.4297 107.582 18.7538 107.345 19.1962C107.109 19.6387 107.058 20.1474 107.204 20.6284C107.505 21.6212 108.559 22.1841 109.548 21.882C110.54 21.5817 111.102 20.5296 110.802 19.5377C110.555 18.7265 109.808 18.2026 109.001 18.2026Z" fill="#4C241D"/>
<path d="M108.009 79.2671C107.565 79.2671 107.122 79.0976 106.783 78.7592C106.106 78.0828 106.106 76.9851 106.783 76.3083L111.893 71.198C112.57 70.5211 113.667 70.5211 114.344 71.198C115.021 71.8744 115.021 72.972 114.344 73.6489L109.234 78.7592C108.896 79.0976 108.452 79.2671 108.009 79.2671Z" fill="#4C241D"/>
<path d="M113.118 79.2671C112.675 79.2671 112.231 79.0976 111.893 78.7592L106.783 73.6489C106.106 72.972 106.106 71.874 106.783 71.198C107.46 70.5211 108.557 70.5211 109.234 71.198L114.344 76.3083C115.021 76.9851 115.021 78.0832 114.344 78.7592C114.005 79.0976 113.561 79.2671 113.118 79.2671Z" fill="#4C241D"/>
</svg>
