<svg width="112" height="112" viewBox="0 0 112 112" fill="none" xmlns="http://www.w3.org/2000/svg">
<path d="M64.1791 57.1091V88.2238C64.1791 90.4822 62.3479 92.3125 60.0903 92.3125C57.8319 92.3125 56.0016 90.4822 56.0016 88.2238V67.0187V88.2238C56.0016 90.4822 54.1704 92.3125 51.912 92.3125C49.6544 92.3125 47.8232 90.4822 47.8232 88.2238V57.1091H64.1791Z" fill="#98A1B3"/>
<path d="M64.1759 57.2253V59.5214C64.1759 61.6097 65.8695 63.3033 67.9579 63.3033C70.0471 63.3033 71.7407 61.6097 71.7407 59.5214V43.7432C71.7407 38.8247 67.7537 34.8385 62.8361 34.8385H49.1642C44.2466 34.8385 40.2595 38.8247 40.2595 43.7432V59.5214C40.2595 61.6097 41.9531 63.3033 44.0424 63.3033C46.1307 63.3033 47.8243 61.6097 47.8243 59.5214V57.2253" fill="#F2C94C"/>
<path d="M56.0001 34.8385C51.9353 34.8385 48.6404 31.5436 48.6404 27.4788V27.0472C48.6404 22.9824 51.9353 19.6875 56.0001 19.6875C60.0649 19.6875 63.3599 22.9824 63.3599 27.0472V27.4788C63.3599 31.5436 60.0649 34.8385 56.0001 34.8385Z" fill="#FFDDCF"/>
<path d="M73.9282 59.5214V43.7423C73.9282 38.0129 69.5609 33.2842 63.9811 32.71C64.9697 31.2061 65.5474 29.4091 65.5474 27.4788V27.0472C65.5474 21.7827 61.2647 17.5 56.0001 17.5C50.7356 17.5 46.4529 21.7827 46.4529 27.0472V27.4788C46.4529 29.4091 47.0305 31.2061 48.0192 32.71C42.4393 33.285 38.072 38.0129 38.072 43.7432V59.5214C38.072 62.8129 40.75 65.4908 44.0424 65.4908C44.5944 65.4908 45.1284 65.4139 45.6368 65.2729V88.2238C45.6368 91.6844 48.4524 94.5 51.9131 94.5C53.4742 94.5 54.9021 93.9258 56.0018 92.9799C57.1007 93.9258 58.5294 94.5 60.0906 94.5C63.5513 94.5 66.3668 91.6844 66.3668 88.2238V86.7711C66.3668 85.5629 65.3876 84.5836 64.1793 84.5836C62.9711 84.5836 61.9918 85.5629 61.9918 86.7711V88.2238C61.9918 89.2722 61.139 90.125 60.0906 90.125C59.0421 90.125 58.1893 89.2722 58.1893 88.2238V67.0187C58.1893 65.8104 57.2101 64.8312 56.0018 64.8312C54.7936 64.8312 53.8143 65.8104 53.8143 67.0187V88.2238C53.8143 89.2722 52.9615 90.125 51.9131 90.125C50.8646 90.125 50.0118 89.2722 50.0118 88.2238V59.412L61.9893 59.4086V59.5214C61.9893 59.5624 61.991 59.6025 61.9918 59.6436V67.0836C61.9918 68.291 62.9711 69.2711 64.1793 69.2711C65.3876 69.2711 66.3668 68.291 66.3668 67.0836V65.2738C66.8744 65.4139 67.4076 65.4908 67.9579 65.4908C71.2502 65.4908 73.9282 62.8129 73.9282 59.5214ZM50.8279 27.0472C50.8279 24.1949 53.1478 21.875 56.0001 21.875C58.8524 21.875 61.1724 24.1949 61.1724 27.0472V27.4788C61.1724 30.3311 58.8524 32.651 56.0001 32.651C53.1478 32.651 50.8279 30.3311 50.8279 27.4788V27.0472ZM66.3668 59.582V44.3618C66.3668 43.1544 65.3876 42.1743 64.1793 42.1743C62.9711 42.1743 61.9918 43.1544 61.9918 44.3618L61.9893 55.0336L50.0238 55.037L50.0118 44.3994C50.0101 43.192 49.0309 42.2145 47.8243 42.2145C47.8235 42.2145 47.8226 42.2145 47.8218 42.2145C46.6135 42.2153 45.6351 43.1963 45.6368 44.4045V59.5214C45.6368 60.4006 44.9216 61.1158 44.0424 61.1158C43.1622 61.1158 42.447 60.4006 42.447 59.5214V43.7423C42.447 40.0389 45.46 37.026 49.1642 37.026H62.8361C66.5403 37.026 69.5532 40.0389 69.5532 43.7423V59.5214C69.5532 60.4006 68.8372 61.1158 67.9579 61.1158C67.1 61.1158 66.3993 60.4331 66.3668 59.582Z" fill="#4C241D"/>
<path d="M56 11.375C57.2083 11.375 58.1875 10.3958 58.1875 9.1875V2.1875C58.1875 0.979248 57.2083 0 56 0C54.7917 0 53.8125 0.979248 53.8125 2.1875V9.1875C53.8125 10.3958 54.7917 11.375 56 11.375Z" fill="#4C241D"/>
<path d="M56 100.625C54.7917 100.625 53.8125 101.604 53.8125 102.812V109.812C53.8125 111.021 54.7917 112 56 112C57.2083 112 58.1875 111.021 58.1875 109.812V102.812C58.1875 101.604 57.2083 100.625 56 100.625Z" fill="#4C241D"/>
<path d="M109.812 53.8125H102.812C101.604 53.8125 100.625 54.7917 100.625 56C100.625 57.2083 101.604 58.1875 102.812 58.1875H109.812C111.021 58.1875 112 57.2083 112 56C112 54.7917 111.021 53.8125 109.812 53.8125Z" fill="#4C241D"/>
<path d="M11.375 56C11.375 54.7917 10.3958 53.8125 9.1875 53.8125H2.1875C0.979248 53.8125 0 54.7917 0 56C0 57.2083 0.979248 58.1875 2.1875 58.1875H9.1875C10.3958 58.1875 11.375 57.2083 11.375 56Z" fill="#4C241D"/>
<path d="M92.5048 16.402L87.5547 21.3512C86.7002 22.2057 86.7002 23.5908 87.5547 24.4453C87.9819 24.8725 88.5416 25.0862 89.1013 25.0862C89.661 25.0862 90.2216 24.8725 90.6479 24.4453L95.598 19.4952C96.4525 18.6416 96.4525 17.2565 95.598 16.402C94.7435 15.5483 93.3584 15.5475 92.5048 16.402Z" fill="#4C241D"/>
<path d="M21.3519 87.5547L16.4019 92.5047C15.5474 93.3584 15.5474 94.7435 16.4019 95.598C16.8291 96.0253 17.3888 96.2389 17.9485 96.2389C18.5082 96.2389 19.0687 96.0253 19.4951 95.598L24.4452 90.6488C25.2997 89.7943 25.2997 88.4092 24.4452 87.5547C23.5907 86.701 22.2064 86.701 21.3519 87.5547Z" fill="#4C241D"/>
<path d="M90.6479 87.5547C89.7943 86.701 88.4092 86.701 87.5547 87.5547C86.7002 88.4092 86.7002 89.7943 87.5547 90.6488L92.5048 95.598C92.9312 96.0253 93.4917 96.2389 94.0514 96.2389C94.6111 96.2389 95.1708 96.0253 95.598 95.598C96.4525 94.7435 96.4525 93.3584 95.598 92.5047L90.6479 87.5547Z" fill="#4C241D"/>
<path d="M19.4951 16.402C18.6415 15.5475 17.2563 15.5475 16.4019 16.402C15.5474 17.2565 15.5474 18.6416 16.4019 19.4952L21.3519 24.4453C21.7792 24.8726 22.3389 25.0862 22.8986 25.0862C23.4583 25.0862 24.0179 24.8726 24.4452 24.4453C25.2997 23.5908 25.2997 22.2057 24.4452 21.3512L19.4951 16.402Z" fill="#4C241D"/>
<path d="M36.0647 13.5881C36.4133 14.4306 37.2276 14.9391 38.0864 14.9391C38.3658 14.9391 38.6495 14.8852 38.9229 14.7716C40.0389 14.3093 40.5696 13.0301 40.1064 11.9142L37.4276 5.44652C36.9653 4.33055 35.6861 3.80077 34.5702 4.26305C33.4533 4.72533 32.9236 6.0045 33.3858 7.12132L36.0647 13.5881Z" fill="#4C241D"/>
<path d="M75.9354 98.4118C75.4731 97.2959 74.1931 96.7661 73.0771 97.2284C71.9612 97.6907 71.4314 98.9698 71.8937 100.086L74.5725 106.553C74.9211 107.396 75.7355 107.904 76.5942 107.904C76.8736 107.904 77.1573 107.851 77.4308 107.737C78.5467 107.275 79.0765 105.995 78.6142 104.879L75.9354 98.4118Z" fill="#4C241D"/>
<path d="M99.2501 40.2739C99.5287 40.2739 99.8124 40.2201 100.086 40.1064L106.553 37.4276C107.669 36.9653 108.199 35.6861 107.737 34.5702C107.275 33.4533 105.995 32.9244 104.879 33.3858L98.4118 36.0647C97.2959 36.527 96.7661 37.8061 97.2284 38.9221C97.577 39.7646 98.3913 40.2739 99.2501 40.2739Z" fill="#4C241D"/>
<path d="M11.9142 71.8935L5.44652 74.5715C4.33055 75.0347 3.80077 76.3138 4.26305 77.4298C4.61168 78.2723 5.42601 78.7808 6.28477 78.7808C6.56334 78.7808 6.84703 78.7269 7.12132 78.6141L13.5881 75.9353C14.7041 75.473 15.2339 74.193 14.7716 73.077C14.3093 71.9611 13.0301 71.4321 11.9142 71.8935Z" fill="#4C241D"/>
<path d="M77.4308 4.2622C76.3148 3.80163 75.0348 4.33056 74.5725 5.44653L71.8937 11.9133C71.4314 13.0301 71.9612 14.3093 73.0771 14.7716C73.3514 14.8852 73.6343 14.9391 73.9137 14.9391C74.7724 14.9391 75.5868 14.4307 75.9354 13.5881L78.6142 7.12048C79.0765 6.00451 78.5467 4.72534 77.4308 4.2622Z" fill="#4C241D"/>
<path d="M38.9228 97.2284C37.8069 96.767 36.5268 97.2959 36.0646 98.4119L33.3857 104.879C32.9234 105.995 33.4541 107.275 34.57 107.737C34.8435 107.851 35.1272 107.904 35.4057 107.904C36.2645 107.904 37.0788 107.396 37.4283 106.553L40.1072 100.086C40.5686 98.9698 40.0388 97.6907 38.9228 97.2284Z" fill="#4C241D"/>
<path d="M106.553 74.5715L100.086 71.8935C98.9707 71.4321 97.6907 71.9611 97.2284 73.077C96.7661 74.1938 97.2959 75.473 98.4118 75.9353L104.88 78.6141C105.153 78.7269 105.437 78.7808 105.715 78.7808C106.574 78.7808 107.388 78.2723 107.738 77.4298C108.199 76.3138 107.669 75.0347 106.553 74.5715Z" fill="#4C241D"/>
<path d="M13.5881 36.0647L7.12047 33.3858C6.00536 32.9244 4.72533 33.4533 4.26305 34.5702C3.80077 35.6861 4.33055 36.9653 5.44652 37.4276L11.9142 40.1064C12.1876 40.2201 12.4713 40.2739 12.7499 40.2739C13.6086 40.2739 14.423 39.7646 14.7716 38.9221C15.2339 37.8061 14.7041 36.527 13.5881 36.0647Z" fill="#4C241D"/>
<path d="M64.1792 74.7407C63.6041 74.7407 63.0393 74.9723 62.6326 75.3816C62.2258 75.7883 61.9917 76.3506 61.9917 76.9282C61.9917 77.5033 62.2258 78.0673 62.6326 78.474C63.0393 78.8807 63.6041 79.1157 64.1792 79.1157C64.7543 79.1157 65.3191 78.8816 65.7258 78.474C66.1326 78.0673 66.3667 77.5033 66.3667 76.9282C66.3667 76.3506 66.1326 75.7883 65.7258 75.3816C65.3191 74.9723 64.7543 74.7407 64.1792 74.7407Z" fill="black"/>
</svg>
