<?xml version="1.0" encoding="utf-8"?>
<!-- Generator: Adobe Illustrator 23.0.1, SVG Export Plug-In . SVG Version: 6.00 Build 0)  -->
<svg version="1.1" id="mascot" xmlns="http://www.w3.org/2000/svg" xmlns:xlink="http://www.w3.org/1999/xlink" x="0px" y="0px"
	 viewBox="0 0 424.4 438.5" style="enable-background:new 0 0 424.4 438.5;" xml:space="preserve">
<style type="text/css">
	.st0{fill:#444444;}
	.st1{fill:#DCC6AB;}
	.st2{fill:#335493;}
	.st3{clip-path:url(#SVGID_2_);fill:#335493;}
	.st4{fill:#2B467B;}
	.st5{fill:none;stroke:#FFFFFF;}
	.st6{clip-path:url(#Body_2_);}
	.st7{clip-path:url(#Body_2_);fill:#4D2F10;}
	.st8{clip-path:url(#Body_2_);fill:#FFFFFF;}
	.st9{clip-path:url(#Body_2_);fill:#FBBC04;}
	.st10{fill:#D5792D;}
	.st11{clip-path:url(#Right_Arm_2_);fill:#FBBC04;}
	.st12{clip-path:url(#Right_Arm_2_);}
	.st13{fill:#FBBC04;}
	.st14{fill:#FFFFFF;}
	.st15{fill:#EA4335;}
	.st16{fill:none;}
	.st17{display:none;}
	.st18{display:inline;}
	.st19{clip-path:url(#SVGID_4_);fill:#335493;}
	.st20{fill:#D85040;}
	.st21{fill:#98231B;}
</style>
<g id="Person">
	<g id="Hair">
		<ellipse class="st0" cx="192.8" cy="163.5" rx="48.7" ry="42.1"/>
		<circle class="st0" cx="212" cy="125.3" r="40.6"/>
		<ellipse class="st0" cx="349.6" cy="114.5" rx="21.4" ry="23"/>
		<ellipse class="st0" cx="377.5" cy="136.7" rx="43.6" ry="41.9"/>
		<ellipse class="st0" cx="357.4" cy="170.6" rx="45.7" ry="35"/>
	</g>
	<g id="Face">
		<path class="st1" d="M185.6,206.6c0-48.1,41.5-87.2,92.6-87.2s92.6,39,92.6,87.2H185.6z"/>
		<circle cx="321.6" cy="163.9" r="8"/>
		<circle cx="235.5" cy="163.9" r="8"/>
	</g>
	<g id="Hat">
		<path class="st2" d="M279.8,132.8c-0.4-0.1-0.9-0.1-1.3-0.1c-4.4-0.1-29.1,0.1-51.9,9.4c-25.1,10.3-30,9.9-30.1,3.7
			c-0.1-8.5,5-21.6,9.2-26.8c0,0,0.3-30.1,7.2-45.4c11.6-25.7,49.7-29.9,74.2-28.8c37.7,1.7,66.1,16.8,69.6,40.6s0,42.1,0,42.1
			s9.5,31,2.8,33.2C350.2,163.7,326.6,138.6,279.8,132.8z"/>
		<g>
			<defs>
				<path id="SVGID_1_" d="M279.4,131.1c-0.4-0.1-0.9-0.1-1.3-0.1c-4.4-0.1-29.1,0.1-51.9,9.4c-25.1,10.3-30,9.9-30.1,3.7
					c-0.1-8.5,5-21.6,9.2-26.8c0,0,0.3-30.1,7.2-45.4c11.6-25.7,49.7-29.9,74.2-28.8c37.7,1.7,66.1,16.8,69.6,40.6s0,42.1,0,42.1
					s9.5,31,2.8,33.2C349.7,162,326.1,136.9,279.4,131.1z"/>
			</defs>
			<use xlink:href="#SVGID_1_"  style="overflow:visible;fill:#2B467B;"/>
			<clipPath id="SVGID_2_">
				<use xlink:href="#SVGID_1_"  style="overflow:visible;"/>
			</clipPath>
			<path class="st3" d="M241.5,45.7c0,0-24.2,13.1-26.4,64.1c0,0,22.7-11.6,66.8-8.7c44.1,2.8,67,18.5,67,18.5s5.7-48-14-65.2
				l-39.9-17.7L241.5,45.7z"/>
		</g>
		<path class="st4" d="M293,43.5L280.7,43c-1,0-1.8-0.9-1.7-1.9l0-0.2c0-1,0.9-1.8,1.9-1.7l12.3,0.6c1,0,1.8,0.9,1.7,1.9l0,0.2
			C294.9,42.8,294,43.6,293,43.5z"/>
		<g>
			<path class="st5" d="M304.1,94.3l-18.6-1.2l0.1-1.4c0.6-0.1,1.1-0.2,1.4-0.3c1-0.5,1.5-1.4,1.6-2.7c0-0.4,0-0.8,0-1
				c-0.1-1.1-0.7-2.4-1.9-3.9c-1.3-1.6-2.7-2.8-4.3-3.6c-0.6-0.3-1.6-0.6-2.8-0.9c-1.2-0.3-2.3-0.5-3.1-0.5l-3,7.1
				c-0.4,0.8-0.6,1.8-0.6,2.8c0,0.5,0,0.9,0.1,1.1c0.3,0.4,0.6,0.8,0.9,1c0.3,0.2,0.7,0.4,1.2,0.5l-0.1,1.3l-11.9-0.7l0.1-1.4
				c0.5-0.1,0.9-0.2,1.1-0.4c0.2-0.1,0.6-0.4,1.1-0.8c0.7-0.5,1.2-0.9,1.5-1.3c0.3-0.4,0.7-1,1-1.8l11.5-24.9
				c0.1-0.3,0.3-0.6,0.4-0.8c0.1-0.3,0.2-0.5,0.2-0.8c0-0.3,0-0.6-0.2-0.9s-0.3-0.4-0.4-0.5c-0.2-0.1-0.3-0.2-0.5-0.2l0.1-1.4
				l15.9,1l-0.1,1.6c-0.6,0-1,0.1-1.2,0.5c-0.1,0.2-0.2,0.4-0.2,0.6s0,0.4,0.1,0.7c0,0,0.1,0.3,0.2,0.7l7.6,28.6
				c0.1,0.3,0.3,0.5,0.4,0.7c0.3,0.5,0.6,0.9,0.8,1.1c0.3,0.2,0.5,0.4,0.8,0.5c0.2,0.1,0.5,0.2,0.9,0.3L304.1,94.3z M285.9,77.2
				l-3.2-13l-4.1,9.9c0.3,0,0.6,0.1,1.1,0.1c0.4,0.1,1.1,0.2,1.9,0.5s1.7,0.7,2.7,1.3C284.9,76.5,285.5,76.9,285.9,77.2z"/>
		</g>
	</g>
	<g id="Body_1_">
		<defs>
			<path id="Body" d="M185.6,213.5v136.4c0,11.4,9.3,20.7,20.7,20.7h16.8v47.2c0,11.2,9.1,20.3,20.3,20.3s20.3-9.1,20.3-20.3v-47.2
				h29.6v47.2c0,11.2,9.1,20.3,20.3,20.3h0c11.2,0,20.3-9.1,20.3-20.3v-47.2h16.1c11.4,0,20.7-9.3,20.7-20.7V213.5H185.6z"/>
		</defs>
		<use xlink:href="#Body"  style="overflow:visible;fill:#C09D73;"/>
		<clipPath id="Body_2_">
			<use xlink:href="#Body"  style="overflow:visible;"/>
		</clipPath>
		<rect x="216.4" y="407.1" class="st6" width="127" height="31"/>
		<rect x="181.1" y="328.2" class="st7" width="193.7" height="15.3"/>
		<rect x="263.8" y="327.5" class="st8" width="28.8" height="16"/>
		<rect x="179.3" y="209.1" class="st9" width="197.2" height="123.5"/>
		<g class="st6">
			<rect x="183.2" y="225.4" class="st10" width="190.3" height="12.7"/>
			<rect x="183.2" y="253" class="st10" width="190.3" height="12.7"/>
			<rect x="183.2" y="280.6" class="st10" width="190.3" height="12.7"/>
			<rect x="184.1" y="308.3" class="st10" width="190.3" height="12.7"/>
		</g>
	</g>
	<g id="Right_Arm_1_">
		<defs>
			<path id="Right_Arm" d="M399.9,338.3L399.9,338.3c-11.2,0-20.3-9.1-20.3-20.3v-88.5c0-11.2,9.1-20.3,20.3-20.3h0
				c11.2,0,20.3,9.1,20.3,20.3v88.5C420.2,329.2,411.1,338.3,399.9,338.3z"/>
		</defs>
		<use xlink:href="#Right_Arm"  style="overflow:visible;fill:#DCC6AB;"/>
		<clipPath id="Right_Arm_2_">
			<use xlink:href="#Right_Arm"  style="overflow:visible;"/>
		</clipPath>
		<rect x="377" y="208.8" class="st11" width="64.6" height="84.7"/>
		<g class="st12">
			<rect x="374.4" y="225.4" class="st10" width="56" height="12.7"/>
			<rect x="374.4" y="253" class="st10" width="56" height="12.7"/>
			<rect x="374.4" y="280.6" class="st10" width="56" height="12.7"/>
		</g>
	</g>
	<g id="Left_Arm">
		<path class="st1" d="M143.7,266.9c-0.1-0.1-0.3-0.3-0.4-0.4C143.4,266.6,143.6,266.7,143.7,266.9z"/>
		<path class="st1" d="M145.2,268.3c-0.2-0.2-0.4-0.3-0.6-0.5C144.8,268,145,268.1,145.2,268.3z"/>
		<path class="st1" d="M178.3,248.4c0.1,0.3,0.1,0.5,0.2,0.8C178.4,248.9,178.4,248.6,178.3,248.4z"/>
		<path class="st1" d="M143.3,266.4c-0.4-0.5-0.9-1-1.2-1.6C142.4,265.4,142.8,265.9,143.3,266.4z"/>
		<path class="st1" d="M146.7,269.5c-0.2-0.2-0.5-0.3-0.7-0.5C146.3,269.2,146.5,269.3,146.7,269.5z"/>
		<path class="st1" d="M155.4,273.1c-0.1,0-0.2,0-0.3,0C155.2,273,155.3,273,155.4,273.1z"/>
		<path class="st1" d="M178,247.1c-0.2-0.8-0.5-1.6-0.9-2.4c0.3,0.6,0.5,1.2,0.7,1.9C177.9,246.7,177.9,246.9,178,247.1z"/>
		<path class="st1" d="M153.4,272.6c-0.2-0.1-0.4-0.1-0.6-0.2C152.9,272.5,153.1,272.6,153.4,272.6z"/>
		<path class="st1" d="M148.3,270.5c-0.2-0.1-0.5-0.3-0.7-0.4C147.8,270.2,148,270.4,148.3,270.5z"/>
		<path class="st1" d="M149.9,271.4c-0.2-0.1-0.5-0.2-0.7-0.4C149.4,271.1,149.7,271.3,149.9,271.4z"/>
		<path class="st1" d="M178.6,250.2c0,0.3,0.1,0.6,0.1,0.8C178.7,250.8,178.7,250.5,178.6,250.2z"/>
		<path class="st1" d="M177.6,260.1c0,0.1-0.1,0.2-0.1,0.3C177.5,260.3,177.5,260.2,177.6,260.1z"/>
		<path class="st1" d="M176.8,261.8c-0.1,0.2-0.2,0.4-0.3,0.6C176.6,262.2,176.7,262,176.8,261.8z"/>
		<path class="st1" d="M115.3,218.7l-6.3-11l-0.1-0.1l35.2-20.3l-12.2-21.2c-5.6-9.7-18-13.1-27.7-7.5h0c-9.7,5.6-13.1,18-7.5,27.7
			l28.8,49.9l-2.7-4.6L115.3,218.7z"/>
		<path class="st1" d="M174.9,265c-0.2,0.2-0.3,0.4-0.5,0.6C174.6,265.4,174.8,265.2,174.9,265z"/>
		<path class="st1" d="M176,263.4c-0.1,0.2-0.3,0.4-0.4,0.6C175.7,263.8,175.8,263.6,176,263.4z"/>
		<path class="st1" d="M178.3,257.7c-0.1,0.2-0.1,0.4-0.2,0.7C178.2,258.2,178.2,257.9,178.3,257.7z"/>
		<path class="st1" d="M178.8,252.1c0,0.3,0,0.6,0,0.8C178.8,252.6,178.8,252.4,178.8,252.1z"/>
		<path class="st1" d="M178.8,253.9c0,0.3,0,0.6-0.1,0.8C178.8,254.5,178.8,254.2,178.8,253.9z"/>
		<path class="st1" d="M163.3,272.7c-0.3,0.1-0.5,0.1-0.8,0.2C162.8,272.8,163,272.8,163.3,272.7z"/>
		<path class="st1" d="M178.6,255.8c0,0.3-0.1,0.5-0.1,0.8C178.6,256.3,178.6,256.1,178.6,255.8z"/>
		<path class="st1" d="M151.6,272.1c-0.2-0.1-0.5-0.2-0.7-0.3C151.1,271.9,151.4,272,151.6,272.1z"/>
		<path class="st1" d="M172.4,267.8c-0.2,0.2-0.4,0.3-0.5,0.5C172,268.2,172.2,268,172.4,267.8z"/>
		<path class="st1" d="M173.7,266.4c-0.2,0.2-0.3,0.4-0.5,0.6C173.4,266.8,173.6,266.6,173.7,266.4z"/>
		<path class="st1" d="M161.4,273.1c-0.3,0-0.5,0.1-0.8,0.1C160.9,273.2,161.2,273.1,161.4,273.1z"/>
		<path class="st1" d="M170.8,269.1c-0.2,0.1-0.3,0.3-0.5,0.4C170.5,269.4,170.7,269.3,170.8,269.1z"/>
		<path class="st1" d="M159.6,273.3c-0.2,0-0.5,0-0.7,0C159.1,273.3,159.3,273.3,159.6,273.3z"/>
		<path class="st1" d="M165.1,272.2c-0.2,0.1-0.5,0.1-0.7,0.2C164.7,272.3,164.9,272.3,165.1,272.2z"/>
		<path class="st1" d="M157.6,273.3c-0.2,0-0.4,0-0.7,0C157.2,273.3,157.4,273.3,157.6,273.3z"/>
		<path class="st1" d="M166.9,271.5c-0.2,0.1-0.4,0.2-0.6,0.2C166.5,271.6,166.7,271.6,166.9,271.5z"/>
		<path class="st13" d="M174.9,265c0.2-0.3,0.4-0.6,0.6-0.9c0.1-0.2,0.3-0.4,0.4-0.6c0.2-0.3,0.4-0.7,0.6-1c0.1-0.2,0.2-0.4,0.3-0.6
			c0.2-0.5,0.4-0.9,0.6-1.4c0-0.1,0.1-0.2,0.1-0.3c0.2-0.6,0.4-1.1,0.6-1.7c0.1-0.2,0.1-0.4,0.2-0.7c0.1-0.4,0.2-0.7,0.2-1.1
			c0-0.3,0.1-0.5,0.1-0.8c0-0.3,0.1-0.7,0.1-1c0-0.3,0-0.6,0.1-0.8c0-0.3,0-0.7,0-1c0-0.3,0-0.6,0-0.8c0-0.3,0-0.7-0.1-1
			c0-0.3-0.1-0.6-0.1-0.8c0-0.4-0.1-0.7-0.2-1.1c-0.1-0.3-0.1-0.5-0.2-0.8c-0.1-0.4-0.2-0.8-0.3-1.3c-0.1-0.2-0.1-0.4-0.2-0.6
			l-34.5,19.9c0,0,0,0,0,0c0.1,0.1,0.3,0.3,0.4,0.4c0.3,0.3,0.6,0.6,0.9,0.9c0.2,0.2,0.4,0.3,0.6,0.5c0.3,0.2,0.5,0.5,0.8,0.7
			c0.2,0.2,0.4,0.3,0.7,0.5c0.3,0.2,0.6,0.4,0.9,0.6c0.2,0.2,0.5,0.3,0.7,0.4c0.3,0.2,0.6,0.3,0.9,0.5c0.2,0.1,0.5,0.3,0.7,0.4
			c0.3,0.1,0.6,0.3,1,0.4c0.2,0.1,0.5,0.2,0.7,0.3c0.4,0.1,0.7,0.2,1.1,0.4c0.2,0.1,0.4,0.1,0.6,0.2c0.6,0.2,1.2,0.3,1.8,0.4
			c0.1,0,0.2,0,0.3,0c0.5,0.1,1,0.1,1.5,0.2c0.2,0,0.4,0,0.7,0c0.4,0,0.8,0,1.2,0c0.2,0,0.5,0,0.7,0c0.4,0,0.7,0,1.1-0.1
			c0.3,0,0.5-0.1,0.8-0.1c0.4-0.1,0.7-0.1,1.1-0.2c0.3-0.1,0.5-0.1,0.8-0.2c0.4-0.1,0.7-0.2,1.1-0.3c0.2-0.1,0.5-0.1,0.7-0.2
			c0.4-0.1,0.8-0.3,1.2-0.5c0.2-0.1,0.4-0.2,0.6-0.2c0.6-0.3,1.2-0.6,1.7-0.9h0c0.6-0.3,1.1-0.7,1.6-1.1c0.2-0.1,0.3-0.3,0.5-0.4
			c0.3-0.3,0.7-0.5,1-0.8c0.2-0.2,0.4-0.3,0.5-0.5c0.3-0.3,0.6-0.5,0.8-0.8c0.2-0.2,0.3-0.4,0.5-0.6c0.2-0.3,0.5-0.6,0.7-0.9
			C174.6,265.4,174.8,265.2,174.9,265z"/>
		
			<rect x="116.4" y="207.6" transform="matrix(0.8665 -0.4992 0.4992 0.8665 -89.1291 96.9625)" class="st13" width="40.6" height="15"/>
		
			<rect x="130.2" y="231.5" transform="matrix(0.8665 -0.4992 0.4992 0.8665 -99.2414 107.048)" class="st13" width="40.6" height="15"/>
		<polygon class="st13" points="109,207.8 144.2,187.5 144.2,187.4 144.2,187.4 109,207.7 		"/>
		<path class="st10" d="M177.8,246.6c-0.2-0.6-0.5-1.3-0.7-1.9c-0.3-0.6-0.6-1.2-0.9-1.8l-4.3-7.5l-35.2,20.3l4.3,7.5
			c0.3,0.6,0.7,1.2,1.1,1.7c0.4,0.5,0.8,1.1,1.2,1.6c0,0,0,0,0,0L177.8,246.6z"/>
		<polygon class="st10" points="164.4,222.4 158,211.4 122.8,231.7 125.5,236.4 129.1,242.7 		"/>
		
			<rect x="109.5" y="196.8" transform="matrix(0.8665 -0.4992 0.4992 0.8665 -84.073 91.9198)" class="st10" width="40.6" height="12.7"/>
	</g>
</g>
<g id="Wrench">
	<path class="st13" d="M115.6,131.6H19.5c-8.7,0-15.7-7-15.7-15.7V19.3c0-8.7,7-15.7,15.7-15.7h96.1c8.7,0,15.7,7,15.7,15.7V116
		C131.3,124.6,124.3,131.6,115.6,131.6z"/>
	<path class="st14" d="M109.8,94.4L74.2,58.8c0.9-2.7,1.5-5.6,1.5-8.6c0-14.2-11.6-25.7-25.9-25.7c-4,0-7.9,0.9-11.3,2.6l16.8,16.8
		L43.8,55.4L26.8,38.5C25,42,24,46,24,50.3C24,64.5,35.5,76,49.8,76c3.3,0,6.5-0.6,9.5-1.8l35.4,35.4c2.2,2.2,5.6,2.2,7.8,0l7.4-7.4
		C112,100.1,112,96.6,109.8,94.4z"/>
</g>
<g id="Cog">
	<path class="st15" d="M115.5,131.3H19.4c-8.7,0-15.7-7-15.7-15.7V19c0-8.7,7-15.7,15.7-15.7h96.1c8.7,0,15.7,7,15.7,15.7v96.7
		C131.2,124.3,124.2,131.3,115.5,131.3z"/>
	<g>
		<path class="st16" d="M14.9,14.8H120v105.1H14.9V14.8z"/>
		<path class="st14" d="M98.7,71.5c0.2-1.3,0.3-2.7,0.3-4.1c0-1.4-0.1-2.8-0.3-4.1l8.9-6.9c0.8-0.6,1-1.8,0.5-2.7l-8.4-14.5
			c-0.5-1-1.6-1.3-2.6-1l-10.5,4.2c-2.2-1.7-4.5-3.1-7.1-4.1L78,27.1c-0.2-1.1-1.1-1.8-2.1-1.8H59c-1.1,0-1.9,0.7-2.1,1.8l-1.6,11.1
			c-2.6,1.1-5,2.5-7.1,4.1l-10.5-4.2c-1-0.4-2.1,0-2.6,1l-8.4,14.5c-0.5,0.9-0.4,2.1,0.5,2.7l8.9,6.9c-0.2,1.3-0.4,2.8-0.4,4.1
			s0.1,2.8,0.3,4.1l-8.9,6.9c-0.8,0.6-1,1.8-0.5,2.7l8.4,14.5c0.5,1,1.6,1.3,2.6,1l10.5-4.2c2.2,1.7,4.5,3.1,7.1,4.1l1.6,11.1
			c0.2,1.1,1.1,1.8,2.1,1.8h16.8c1.1,0,1.9-0.7,2.1-1.8l1.6-11.1c2.6-1.1,5-2.5,7.1-4.1l10.5,4.2c1,0.4,2.1,0,2.6-1l8.4-14.5
			c0.5-1,0.3-2.1-0.5-2.7L98.7,71.5z M67.4,83.1c-8.7,0-15.8-7.1-15.8-15.8s7.1-15.8,15.8-15.8s15.8,7.1,15.8,15.8
			S76.1,83.1,67.4,83.1z"/>
	</g>
</g>
<g id="Person_1_" class="st17">
	<g id="Hair_1_" class="st18">
		<ellipse class="st0" cx="294.6" cy="303.4" rx="42.1" ry="48.7"/>
		<circle class="st0" cx="256.4" cy="284.2" r="40.6"/>
		<ellipse class="st0" cx="245.7" cy="146.6" rx="23" ry="21.4"/>
		<ellipse class="st0" cx="267.8" cy="118.6" rx="41.9" ry="43.6"/>
		<ellipse class="st0" cx="301.7" cy="138.8" rx="35" ry="45.7"/>
	</g>
	<g id="Face_1_" class="st18">
		<path class="st1" d="M337.7,310.6c-48.1,0-87.2-41.5-87.2-92.6s39-92.6,87.2-92.6V310.6z"/>
		<circle cx="295" cy="174.6" r="8"/>
		<circle cx="295" cy="260.7" r="8"/>
	</g>
	<g id="Hat_1_" class="st18">
		<path class="st2" d="M263.9,216.3c-0.1,0.4-0.1,0.9-0.1,1.3c-0.1,4.4,0.1,29.1,9.4,51.9c10.3,25.1,9.9,30,3.7,30.1
			c-8.5,0.1-21.6-5-26.8-9.2c0,0-30.1-0.3-45.4-7.2c-25.7-11.6-29.9-49.7-28.8-74.2c1.7-37.7,16.8-66.1,40.6-69.6s42.1,0,42.1,0
			s31-9.5,33.2-2.8C294.8,146,269.7,169.6,263.9,216.3z"/>
		<g>
			<defs>
				<path id="SVGID_3_" d="M262.2,216.8c-0.1,0.4-0.1,0.9-0.1,1.3c-0.1,4.4,0.1,29.1,9.4,51.9c10.3,25.1,9.9,30,3.7,30.1
					c-8.5,0.1-21.6-5-26.8-9.2c0,0-30.1-0.3-45.4-7.2c-25.7-11.6-29.9-49.7-28.8-74.2c1.7-37.7,16.8-66.1,40.6-69.6
					c23.8-3.5,42.1,0,42.1,0s31-9.5,33.2-2.8C293.1,146.4,268,170.1,262.2,216.8z"/>
			</defs>
			<use xlink:href="#SVGID_3_"  style="overflow:visible;fill:#2B467B;"/>
			<clipPath id="SVGID_4_">
				<use xlink:href="#SVGID_3_"  style="overflow:visible;"/>
			</clipPath>
			<path class="st19" d="M176.8,254.7c0,0,13.1,24.2,64.1,26.4c0,0-11.6-22.7-8.7-66.8s18.5-67,18.5-67s-48-5.7-65.2,14l-17.7,39.9
				L176.8,254.7z"/>
		</g>
		<path class="st4" d="M174.6,203.2l-0.6,12.3c0,1-0.9,1.8-1.9,1.7l-0.2,0c-1,0-1.8-0.9-1.7-1.9l0.6-12.3c0-1,0.9-1.8,1.9-1.7l0.2,0
			C173.9,201.3,174.7,202.2,174.6,203.2z"/>
		<g>
			<path class="st5" d="M225.4,192.1l-1.2,18.6l-1.4-0.1c-0.1-0.6-0.2-1.1-0.3-1.4c-0.5-1-1.4-1.5-2.7-1.6c-0.4,0-0.8,0-1,0
				c-1.1,0.1-2.4,0.7-3.9,1.9c-1.6,1.3-2.8,2.7-3.7,4.3c-0.3,0.6-0.6,1.6-0.9,2.8c-0.3,1.2-0.5,2.3-0.5,3.1l7.1,3
				c0.8,0.4,1.8,0.6,2.8,0.6c0.5,0,0.9,0,1.1-0.1c0.5-0.3,0.8-0.6,1-0.9c0.2-0.3,0.4-0.7,0.5-1.2l1.3,0.1l-0.7,11.9l-1.4-0.1
				c-0.1-0.5-0.2-0.9-0.4-1.1c-0.1-0.2-0.4-0.6-0.8-1.1c-0.5-0.7-0.9-1.2-1.3-1.5c-0.4-0.3-1-0.7-1.8-1l-24.9-11.5
				c-0.3-0.1-0.6-0.3-0.8-0.4c-0.3-0.1-0.5-0.2-0.8-0.2c-0.3,0-0.6,0-0.9,0.2s-0.4,0.3-0.5,0.4c-0.1,0.2-0.2,0.3-0.2,0.5l-1.4-0.1
				l1-15.9l1.6,0.1c0,0.6,0.1,1,0.5,1.2c0.2,0.1,0.4,0.2,0.6,0.2s0.4,0,0.7-0.1c0,0,0.3-0.1,0.7-0.2l28.6-7.6
				c0.3-0.1,0.5-0.3,0.7-0.4c0.5-0.3,0.9-0.6,1.1-0.8c0.2-0.3,0.4-0.5,0.5-0.8c0.1-0.2,0.2-0.5,0.3-0.9L225.4,192.1z M208.3,210.3
				l-13,3.2l9.9,4.1c0-0.3,0.1-0.6,0.1-1.1c0.1-0.4,0.2-1.1,0.5-1.9c0.3-0.8,0.7-1.7,1.3-2.7C207.6,211.3,208,210.7,208.3,210.3z"/>
		</g>
	</g>
	<g class="st18">
		<rect x="344.6" y="125.3" class="st20" width="11.9" height="185.2"/>
		<rect x="369.1" y="125.3" class="st20" width="15" height="185.2"/>
		<rect x="396.8" y="125.3" class="st20" width="15" height="185.2"/>
		<rect x="356.5" y="125.3" class="st21" width="12.7" height="185.2"/>
		<rect x="384.1" y="125.3" class="st21" width="12.7" height="185.2"/>
		<rect x="411.8" y="125.3" class="st21" width="12.7" height="185.2"/>
	</g>
	<g class="st18">
		<rect x="369.1" y="76" class="st20" width="15" height="40.6"/>
		<path class="st20" d="M340.2,96.3L340.2,96.3c0,9.8,7,18,16.3,19.9V76.4C347.2,78.3,340.2,86.5,340.2,96.3z"/>
		<rect x="396.8" y="76" class="st20" width="15" height="40.6"/>
		<path class="st21" d="M360.5,76c-1.4,0-2.7,0.1-4,0.4v39.8c1.3,0.3,2.7,0.4,4,0.4h8.6V76H360.5z"/>
		<rect x="384.1" y="76" class="st21" width="12.7" height="40.6"/>
		<rect x="411.8" y="76" class="st21" width="12.7" height="40.6"/>
	</g>
	<g id="Left_Arm_1_" class="st18">
		<path class="st1" d="M349.9,380.8l-11,6.3l-0.1,0.1L318.5,352l-21.2,12.2c-9.7,5.6-13.1,18-7.5,27.7v0c5.6,9.7,18,13.1,27.7,7.5
			l49.9-28.8l-4.6,2.7L349.9,380.8z"/>
		<path class="st20" d="M396.1,321.3c-0.3-0.2-0.6-0.4-0.9-0.6c-0.2-0.1-0.4-0.3-0.6-0.4c-0.3-0.2-0.7-0.4-1-0.6
			c-0.2-0.1-0.4-0.2-0.6-0.3c-0.5-0.2-0.9-0.4-1.4-0.6c-0.1,0-0.2-0.1-0.3-0.1c-0.6-0.2-1.1-0.4-1.7-0.6c-0.2-0.1-0.4-0.1-0.7-0.2
			c-0.4-0.1-0.7-0.2-1.1-0.2c-0.3,0-0.5-0.1-0.8-0.1c-0.3,0-0.7-0.1-1-0.1c-0.3,0-0.6,0-0.8-0.1c-0.3,0-0.7,0-1,0
			c-0.3,0-0.6,0-0.8,0c-0.3,0-0.7,0-1,0.1c-0.3,0-0.6,0.1-0.8,0.1c-0.4,0-0.7,0.1-1.1,0.2c-0.3,0.1-0.5,0.1-0.8,0.2
			c-0.4,0.1-0.8,0.2-1.3,0.3c-0.2,0.1-0.4,0.1-0.6,0.2l19.9,34.5c0,0,0,0,0,0c0.1-0.1,0.3-0.3,0.4-0.4c0.3-0.3,0.6-0.6,0.9-0.9
			c0.2-0.2,0.3-0.4,0.5-0.6c0.2-0.3,0.5-0.5,0.7-0.8c0.2-0.2,0.3-0.4,0.5-0.7c0.2-0.3,0.4-0.6,0.6-0.9c0.2-0.2,0.3-0.5,0.4-0.7
			c0.2-0.3,0.3-0.6,0.5-0.9c0.1-0.2,0.3-0.5,0.4-0.7c0.1-0.3,0.3-0.6,0.4-1c0.1-0.2,0.2-0.5,0.3-0.7c0.1-0.4,0.2-0.7,0.4-1.1
			c0.1-0.2,0.1-0.4,0.2-0.6c0.2-0.6,0.3-1.2,0.4-1.8c0-0.1,0-0.2,0-0.3c0.1-0.5,0.1-1,0.2-1.5c0-0.2,0-0.4,0-0.7c0-0.4,0-0.8,0-1.2
			c0-0.2,0-0.5,0-0.7c0-0.4,0-0.7-0.1-1.1c0-0.3-0.1-0.5-0.1-0.8c-0.1-0.4-0.1-0.7-0.2-1.1c-0.1-0.3-0.1-0.5-0.2-0.8
			c-0.1-0.4-0.2-0.7-0.3-1.1c-0.1-0.2-0.1-0.5-0.2-0.7c-0.1-0.4-0.3-0.8-0.5-1.2c-0.1-0.2-0.2-0.4-0.2-0.6c-0.3-0.6-0.6-1.2-0.9-1.7
			v0c-0.3-0.6-0.7-1.1-1.1-1.6c-0.1-0.2-0.3-0.3-0.4-0.5c-0.3-0.3-0.5-0.7-0.8-1c-0.2-0.2-0.3-0.4-0.5-0.5c-0.3-0.3-0.5-0.6-0.8-0.8
			c-0.2-0.2-0.4-0.3-0.6-0.5c-0.3-0.2-0.6-0.5-0.9-0.7C396.5,321.6,396.3,321.4,396.1,321.3z"/>
		
			<rect x="338.7" y="339.2" transform="matrix(0.8665 -0.4992 0.4992 0.8665 -133.2449 220.8482)" class="st20" width="15" height="40.6"/>
		
			<rect x="362.7" y="325.4" transform="matrix(0.8665 -0.4992 0.4992 0.8665 -123.1595 230.9605)" class="st20" width="15" height="40.6"/>
		<path class="st21" d="M377.7,318.4c-0.6,0.2-1.3,0.5-1.9,0.7c-0.6,0.3-1.2,0.6-1.8,0.9l-7.5,4.3l20.3,35.2l7.5-4.3
			c0.6-0.3,1.2-0.7,1.7-1.1c0.5-0.4,1.1-0.8,1.6-1.2c0,0,0,0,0,0L377.7,318.4z"/>
		<polygon class="st21" points="353.5,331.8 342.6,338.2 362.9,373.4 367.5,370.7 373.8,367.1 		"/>
		
			<rect x="327.9" y="346.1" transform="matrix(0.8665 -0.4992 0.4992 0.8665 -138.2878 215.7923)" class="st21" width="12.7" height="40.6"/>
	</g>
</g>
</svg>
