<?xml version="1.0" encoding="utf-8"?>
<!-- Generator: Adobe Illustrator 23.0.1, SVG Export Plug-In . SVG Version: 6.00 Build 0)  -->
<svg version="1.1" id="Layer_1" xmlns="http://www.w3.org/2000/svg" xmlns:xlink="http://www.w3.org/1999/xlink" x="0px" y="0px"
	 viewBox="0 0 624 463" style="enable-background:new 0 0 624 463;" xml:space="preserve">
<style type="text/css">
	.st0{clip-path:url(#SVGID_2_);}
	.st1{fill:#3F3D56;}
	.st2{opacity:0.8;fill:none;stroke:#2F80ED;stroke-width:2;stroke-miterlimit:10;enable-background:new    ;}
	.st3{fill:#2F80ED;}
	.st4{fill:#2F2E41;}
	.st5{fill:#A0616A;}
	.st6{fill:#EB5757;}
	.st7{fill:#2D9CDB;}
	.st8{fill:none;stroke:#D0CDE1;stroke-width:2;stroke-miterlimit:10;}
	.st9{fill:#D0CDE1;}
	.st10{fill:#FFB8B8;}
	.st11{fill:#F2C94C;}
</style>
<g>
	<defs>
		<rect id="SVGID_1_" width="624" height="463"/>
	</defs>
	<clipPath id="SVGID_2_">
		<use xlink:href="#SVGID_1_"  style="overflow:visible;"/>
	</clipPath>
	<g class="st0">
		<path class="st1" d="M164.3,132c-0.2-1.6-0.6-3.1-1.2-4.6c-0.1-0.3-0.2-0.5-0.4-0.8s-0.4-0.4-0.7-0.5c-0.3-0.1-0.7-0.1-1,0
			l-5.4,0.8c-0.4,0-0.9,0.2-1.2,0.5c-0.7,0.7,0,1.9,0,2.9c0,1.1-1,2.1-2.1,2.4c-1.1,0.2-2.3,0.2-3.4,0l-7.5-1.2
			c2.2-0.7,4.2-2,5.7-3.8c1-1.2,1.5-3.3,0.1-3.9c-0.4-0.1-0.9-0.2-1.3-0.1c-3.4,0-6.1-2.8-9.2-4c-2-0.7-4.2-0.8-6.3-0.2
			c-2.1,0.6-3.9,1.9-5.2,3.6l4,0.2c0.4,0,0.7,0.1,1.1,0.3c0.9,0.7-0.2,2.1-0.1,3.2c0.2,1.5,2.1,1.8,3.6,1.9c1.5,0.1,3.3,1.3,2.6,2.6
			c-7.3,2.5-14.8-4.9-22.5-4c-2,0.2-3.8,1-5.7,1.5c-11.6,2.9-23.7-4.9-35.6-3.2c-2.6,0.5-5.2,1.1-7.8,2c-1.6,0.5-3.3,1.1-4.5,2.3
			c-1.2,1.2-1.6,3.3-0.5,4.6c-3.1,0.3-6.2,0-9.1-0.9c0.8,0.4,1.5,1.1,1.9,1.9c0.5,0.8,0.7,1.7,0.7,2.6c-4.8,0.8-9.5,2.2-13.9,4.2
			c0.8,1.4,1.8,2.6,2.9,3.8l-6.1,3.9c2.1,0.5,3.1,3.3,1.9,5.1c2.1-0.9,3.4-3.4,5.7-3.9c1.5-0.3,3,0.3,4.4,0.9c1.4,0.6,3,1.1,4.4,0.7
			c1.5-0.4,2.5-2.3,1.6-3.5c6.3-1.8,12.7-2.8,19.2-3c0.5-0.1,1,0,1.5,0.3c0.8,0.6,0.6,1.9,0.6,2.9c0,1,0.8,2.4,1.7,1.9
			c-1.1,0.9-0.2,2.7,0.9,3.7c1,1,2.3,2.3,1.7,3.6c-0.2,0.3-0.4,0.6-0.6,0.9c-0.5,1,0.3,2.2,1.2,2.8c0.9,0.7,2,1.1,2.6,2
			c0.6,0.9,0.3,2.5-0.8,2.7l-3.1-4c-1.1,1.1-1.8,2.5-2.1,4c3.3,2.7,3.8,8.2,1,11.4c-1.4,1.7-3.4,2.7-5.2,4c-1.8,1.3-3.4,3.1-3.4,5.3
			c0,3.8-0.3,7.3,1.1,10.8c2.6,6.4,5.6,12.7,9,18.8c0.9,1.6,2,3.3,3.8,3.6c-2.3-5.5-4.3-11.2-6.2-16.9c1.2,0,2.6,0.1,3.3,1.1
			c0.6,0.8,0.5,1.9,0.6,2.8c0.2,0.9,0.6,1.8,1.1,2.6L93,230.2c0.9,1.6,1.9,3.3,3.7,4c1.1,0.4,2.4,0.3,3.4,0.9
			c0.8,0.5,1.3,1.3,2.1,1.7c2.3,1.3,5.5-1.1,7.6,0.3c0.6,0.4,1,1.1,1.6,1.6c2,1.7,5.2,0.6,7.5,1.8c1.5,0.8,2.2,2.5,3,4
			c2,3.7,5.2,7.4,9.4,7.7c1.3,0.1,2.7-0.2,4,0.1c1.3,0.3,2.6,1.4,2.4,2.7c-0.4,2.2,0.8,4.7,0.5,7c-0.5,4.1-6.4,5.9-6.9,10
			c-0.1,0.9,0.1,1.8-0.2,2.7c-0.3,1.1-1.1,2-1.4,3c-0.5,2,0.9,4.1,2.5,5.4c1.6,1.4,3.5,2.6,4.4,4.5c0.9,2,0.5,4.4,0.8,6.6
			c0.7,4.8,4.8,8.4,9.1,10.7c1.3,0.7,2.7,1.4,3.6,2.6c1.1,1.6,1,3.7,1.4,5.6c0.9,4.7,4.8,8.5,4.9,13.2c0.1,3.4-1.8,6.4-2.9,9.6
			c-1,3-1.4,6.3-1.1,9.5c0.3,3.2,1.3,6.3,2.9,9.1c0.8,1.4,1.8,2.7,2.4,4.3c1.1,2.7,0.7,5.8,1.7,8.6c1.3,3.7,4.8,6.7,4.5,10.5
			c1.6,3.3,5.2,5,8.7,6l6.4,1.8c1.2,0.3,2.5,0.7,3.8,0.4c1.2-0.2,2.4-1.3,2.4-2.6c-3.1-0.7-6.4-1.5-9-3.4c-2.6-1.9-4.4-5.3-3.4-8.4
			c0.5-1.4,1.4-3.1,0.5-4.2c-0.5-0.7-1.5-0.8-2.1-1.5c-0.9-1-0.6-2.6,0.1-3.7c0.7-1.2,1.6-2.2,1.9-3.5c0.1-0.7,0-1.5-0.3-2.2
			c-0.3-0.7-0.8-1.2-1.4-1.6c1.2-0.4,2.3-1.1,3.2-2c0.8-0.9,1.2-2.4,0.6-3.5c1.9,0.2,4.2,0.4,5.5-1.1c1-1.2,0.9-3,0.5-4.5
			c-0.4-1.5-1.1-3-1.1-4.5c4.5,0.2,9,0.1,13.4-0.5c-0.6-2.2-2.1-4-4.1-5.1c2-0.3,3.9-2.8,4.5-4.7c0.6-1.9,0.5-4.1,0.1-6.1
			c-0.2-0.5-0.2-1.1-0.1-1.6c0.2-0.7,0.9-1.2,1.6-1.5l10-5.8c0.6-0.3,1.1-0.7,1.6-1.2c1.1-1.2,0.9-3.1,0.4-4.6
			c-0.5-1.5-1.4-3-1.6-4.6c-0.6-4.8,4.5-8.3,6.3-12.8c0.7-1.8,0.8-3.7,1-5.6c0.1-2,0.2-4.4-1.4-5.7c-1.5-1.3-3.8-1-5.4-2.1
			c-1.4-1.1-1.9-3.2-3.5-4c-1.4-0.8-3.2-0.3-4.8-0.7c-2.8-0.7-4.6-3.9-7.4-4.2c-1.6-0.2-3.4,0.6-4.8-0.3c-1.2-0.8-1.2-2.5-1.4-3.9
			c-0.4-2.2-1.4-4.2-3-5.8c-1.6-1.6-3.6-2.6-5.8-3c-1.7-0.3-3.5-0.2-4.9-1.1c-1.4-0.9-2.1-2.7-3.2-3.9c-1.8-2.1-4.7-2.8-7.3-3.4
			l-10.9-2.6c-1.9-0.5-4.4-0.7-5.5,1c-0.3,0.6-0.5,1.3-0.6,2c-0.4,1.3-1.2,2.4-2.2,3.2c-1.1,0.8-2.3,1.2-3.7,1.3
			c-0.9-1.6-2.4-2.7-4.1-3.2c-1.1-0.3-2.3-0.3-3.3-0.8c-0.6-0.3-1.1-0.7-1.5-1.2c-0.4-0.5-0.7-1-0.9-1.7c-0.2-0.6-0.3-1.2-0.2-1.9
			c0.1-0.6,0.3-1.2,0.6-1.8c0.6-1.1,0.9-2.4,0.7-3.7c-0.2-1.3-0.8-2.4-1.7-3.3c-1.8-1.7-4.5-2.1-7-1.9c-0.6-1.4,0.4-3,1.6-4
			c1.2-1,2.6-2,2.8-3.6c0.4-2.4-2.7-4.3-5-3.5c-2.3,0.7-3.8,3-4.8,5.2c-0.6,1.3-1.1,2.6-1.9,3.7c-0.9,1.1-2.3,1.9-3.7,1.5
			c-1.9-0.5-2.7-2.8-3.1-4.7c-0.6-2.6-1.1-5.3-1-7.9c0.1-2.7,1-5.4,3-7.2c3.2-2.9,8.1-2.7,12.5-2.2c-1-1.2-0.8-3.1,0.3-4.2
			c0.6-0.5,1.3-0.9,2-1.1c0.8-0.2,1.5-0.2,2.3,0c1.3,0.3,2.5,1,3.3,2c1.2,1.5,1.6,3.5,2.5,5.2c0.9,1.7,3,3.2,4.7,2.2
			c1.5-0.8,1.7-2.8,1.3-4.5c-0.4-1.6-1.1-3.2-1-4.9c0.3-3.2,3.6-5.1,6.5-6.4c2.9-1.3,6.3-3.1,6.7-6.2c0-0.6,0.1-1.2,0.3-1.8
			c0.3-0.5,0.8-0.9,1.3-1.2c8.5-5.6,17.2-11.3,26.9-14.4c0.5-0.2,0.6,0,1.1-0.1c0.7-0.4,0.2-1.6-0.4-2c-0.7-0.5-1.6-0.8-1.8-1.6
			c-0.1-0.6,0.2-1.2,0.3-1.8c0.2-1.5-1.6-2.9-2.9-2.3c-0.8-1,0.8-2.2,2-2.6c3.8-1,7.6-1.7,11.5-1.9c0.4-0.1,0.9,0,1.3,0.2
			c0.7,0.5,0.6,1.5,0.1,2.1c-0.5,0.6-1.2,1-1.8,1.6c-0.6,0.6-1.1,1.4-1.3,2.2c-0.2,0.9-0.2,1.7,0.1,2.6c2,1,4.2,2.1,6.5,1.7
			c2.2-0.4,4.2-2.9,3.2-4.9c-1-1.9-3.9-2.3-4.4-4.4c-0.6-2.4,2.8-4.5,2-6.9c-0.3-1-1.4-1.6-2.2-2.4c-0.9-0.9-1.6-2.1-1.8-3.4
			c-0.3-1.3-0.1-2.6,0.4-3.8c-1.3,0.2-2.6,0.1-3.9-0.2s-2.4-1.1-3.3-2c-1.7-1.7-3.1-4.5-5.5-4.4c-2.2,0.1-4.2,2.7-6.3,1.9
			c-0.5-0.2-1.1-0.6-1.6-0.4c-0.2,0.1-0.3,0.2-0.4,0.4c-0.1,0.2-0.2,0.4-0.2,0.5c-0.5,2.5,0.4,5.4-1,7.6c-1.5,2.4-5,2.7-6.8,4.9
			c-1,1.2-1.4,2.7-2.3,4s-2.8,2-3.9,0.9c0.5-1.1,0.7-2.4,0.4-3.6c-0.3-1.2-0.9-2.3-1.9-3c-1-0.7-2.1-1.2-3.3-1.6
			c-1.3-0.5-2.5-1.2-3.6-2c-0.6-0.3-1-0.8-1.3-1.4c-0.2-0.7-0.2-1.5,0.1-2.3c0.6-1.6,1.5-3,2.8-4.1c1.3-1.1,2.9-1.8,4.5-2
			c1.5-0.2,3.2-0.1,4.1-1.2c0.5-0.6,0.8-1.5,1.5-1.7c0.5-0.1,1,0,1.4,0.2l5.4,1.9c0.6,0.3,1.3,0.4,1.9,0.3c0.3,0,0.6-0.2,0.8-0.5
			c0.2-0.3,0.3-0.6,0.3-0.9c-0.2-0.9-1.6-1.3-1.4-2.2c0.1-0.3,0.2-0.6,0.5-0.8c2-2.1,4.4-3.7,7-4.8c2.7-1.1,5.5-1.5,8.4-1.3
			c0.7,1.1-0.4,2.5-1.3,3.4c-0.9,1-1.6,2.7-0.5,3.4c0.4,0.2,0.9,0.3,1.4,0.3c1.3,0.2,2.6,0.6,3.9,1.2c1.9,0.8,3.7,1.7,5.5,2.7
			c-0.2-1.2-0.3-2.4,0.1-3.6c0.5-1.1,1.7-2,2.9-1.6c1.1,0.4,1.6,1.8,2.8,2c1.5,0.2,2.1-2.1,1.5-3.5c-0.6-1.4-1.9-2.6-2-4.1
			c-0.1-1,0.3-2.3-0.5-3c-0.3-0.2-0.6-0.3-1-0.3l-20.7-3.8c-1.2-0.2-3-0.1-3.1,1.2c0,0.7,0.6,1.4,0.3,2c-0.3,0.7-1.3,0.6-2,0.9
			c-1.1,0.4-1.6,1.7-1.5,2.8c0.2,1.1,0.6,2.2,1.3,3.2C167.7,132.7,165.6,132.6,164.3,132z"/>
		<path class="st1" d="M147.7,114.4c-1.3-0.4-2.7-0.5-4-0.1c-1.3,0.4-2.5,1.2-3.3,2.3c-0.3,0.4-0.6,1.1-0.3,1.6
			c0.4,0.7,1.5,0.4,2.2,0.2c1.1-0.4,2.4-0.4,3.5-0.1c0.7,0.2,1.4,0.7,2.1,0.9c0.4,0.1,0.7,0.2,1.1,0.1s0.7-0.2,1-0.5
			c0.5-0.5,0.5-1.3,0.5-2c0-0.2,0-0.5-0.1-0.7c-0.1-0.2-0.2-0.4-0.4-0.6c-0.3-0.2-0.6-0.3-1-0.3c-0.8-0.1-1.4-0.5-1.9-1.1"/>
		<path class="st1" d="M155.2,112.4c-0.3,0-0.6,0-0.8,0.2s-0.5,0.3-0.7,0.6c-0.2,0.2-0.3,0.5-0.3,0.8c0,0.3,0,0.6,0.1,0.9
			c0.9,0.2,1.8,0.3,2.8,0.2c0.5-0.1,0.9-0.3,1.2-0.6c0.3-0.3,0.6-0.7,0.7-1.2c-1.1,0.2-2.2,0-3.1-0.6"/>
		<path class="st1" d="M180.3,108.9c-2.4,0.5-4.8,1.3-7.1,2.4c1.1,0.4,2,1.1,2.6,2.1c0.6,1,0.9,2.1,0.8,3.2c-0.1,0.4-0.1,0.9,0,1.3
			c0.3,0.6,1,0.9,1.7,1c1.2,0.4,2.4,0.5,3.7,0.5c0.6,0,1.2-0.2,1.8-0.5c0.5-0.3,1-0.8,1.3-1.3c0.2-0.5,0.4-1,0.6-1.5
			c1.6-2.4,6.3,0.5,8-1.8c0.6-0.8,0.5-2.1,1.3-2.7c0.4-0.3,0.9-0.5,1.4-0.5c3.4-0.7,6.9-1.2,10.4-1.5c1.6-0.1,3.8-0.7,3.8-2.4
			c-6.2-1.2-12.7-0.4-18.3,2.5c-2,1-4.7,3.2-6.7,1.8c-0.7-0.5-0.7-1.9-1.7-2.4C182.7,108.4,181.4,108.7,180.3,108.9z"/>
		<path class="st1" d="M200.6,112.7l2.9,0.6c-0.5,0-1.1,0.1-1.6,0.3c-0.5,0.2-0.9,0.5-1.3,0.9c-0.4,0.4-0.7,0.8-0.8,1.4
			c-0.2,0.5-0.2,1-0.2,1.6c2.7,0.9,5.7,0,8.6,0.1c2.9,0.1,6.2,2.2,5.7,5c-0.1,0.9-0.6,1.7-0.4,2.5c0.2,0.6,0.7,1,1,1.5
			c0.6,1.1,0.1,2.5-0.6,3.5c-0.8,1-1.8,1.8-2.5,2.9c-1.7,2.7-0.7,6.2,0.3,9.2c0.3,1.1,0.8,2.2,1.6,3.1c1.5,1.6,3.9,1.7,6,1.7
			c1.6,0,3.4-0.1,4.3-1.3c1.3-1.6,0.4-4,1.2-5.9c0.8-1.7,2.7-2.4,4.5-2.9c3.3-0.9,6.6-1.7,9.7-3.2c3.8-1.8,7.4-4.5,11.6-4.7
			c1.2-0.1,2.4,0.1,3.5-0.2c1.1-0.3,2.2-1.3,2.1-2.5c-0.1-1-0.9-1.7-1.6-2.5c-0.7-0.8-1.2-1.9-0.6-2.7l11-2.1
			c-0.8-2.1-1.4-4.9,0.4-6.3c0.6-0.5,1.5-0.7,2.1-1.3c0.9-1,0.5-2.8-0.6-3.7c-1.1-0.9-2.6-1.1-3.9-1.2c-4.8-0.4-9.7-0.1-14.5,0.1
			c-9.5,0.5-18.9,1-28.4,1.6c-1.9,0.1-4.1-0.1-5.9,0.6c-1.5,0.5-2.5,1.6-4.2,1.9C206.9,111.4,203.4,110.9,200.6,112.7z"/>
		<path class="st1" d="M252.8,135.7c-0.3,0-0.6,0-0.8,0.2c-0.2,0.2-0.3,0.4-0.3,0.7c-0.2,1.1,0,2.2,0.6,3.1c0.3,0.4,0.7,0.8,1.2,1
			c0.5,0.2,1,0.3,1.6,0.3c1.3-0.2,2.3-1.3,3.5-1.8c1.9-0.8,9.8-2.2,4.3-5.1c-1.9-1-3.1-0.1-4.6,0.6
			C256.6,135.5,254.7,135.8,252.8,135.7z"/>
		<path class="st1" d="M300.7,111c-0.6,0.3-1.2,0.7-1.5,1.3c-0.2,0.3-0.2,0.7-0.1,1c0.1,0.3,0.3,0.6,0.6,0.8
			c0.2,0.1,0.5,0.1,0.7,0.1l2.6,0.1c1.1,0,2.5,0.3,2.8,1.3c0.2,0.8-0.3,1.8,0.3,2.4c0.3,0.2,0.6,0.3,0.9,0.3
			c0.9,0.2,1.7,0.2,2.6,0.1c1.9-0.5,0.9-1.7,1.5-2.7c0.9-1.6,0.8-0.6,2.4-1.5c1.2-0.7,2.7-1.9,1.7-3.6
			C313.4,107.7,303.2,109.8,300.7,111z"/>
		<path class="st1" d="M351.9,109.6l-1.5,0.2c-3.4,0.5-6.8,0.9-10.1,1.9c1.4,0.6,2.9,0.9,4.4,1.1c0.8,0,1.7,0.2,2.5,0.4
			c1.4,0.4,2.9,1.5,4.3,1c0.9-0.4,1.1-1.3,1.9-1.7c0.5-0.3,2.4-0.9,2.6-1.2C357.6,108.5,353.2,109.4,351.9,109.6z"/>
		<path class="st1" d="M358.5,116.4c-2,1.1-3.9,2.5-5.6,4.1c-0.7,0.7-1.4,1.5-1.4,2.5c0.1,1.3,1.5,2,2.6,2.5l4.8,2
			c0.6-0.8,0-2-0.6-2.8c-0.6-0.8-1.3-1.7-1.1-2.7c0.3-1.1,1.7-1.5,2.8-1.7c1.9-0.3,6.8-0.3,6.2-3.3
			C365.8,113.5,360.4,115.4,358.5,116.4z"/>
		<path class="st1" d="M357.5,315.1c-0.5,1.3-0.5,2.9,0.3,4c0.9,1.3,2.7,1.8,4.2,1.5c1.5-0.4,2.9-1.3,3.9-2.5c0.9-1,1.7-2.2,2.3-3.4
			c0.8-2,1.4-4,1.7-6.1l1.5-7.8c0.3-1.8,0.3-7.1-2.9-5.4c-0.9,0.5-2.9,4.3-3.8,5.3c-1.7,1.9-1.9,3.8-2.8,6.1
			C360.8,309.7,358.5,312.2,357.5,315.1z"/>
		<path class="st1" d="M527.9,355.3c-1.1-0.4-2.1-0.9-3.1-1.5c-1,2.7-1.5,5.6-1.6,8.5l7.2-4.1c1.1-0.6,2.3-1.5,2.3-2.7
			c0-0.2,0-0.3-0.1-0.4c-0.1-0.1-0.2-0.3-0.3-0.3c-0.2-0.1-0.3-0.1-0.5-0.1c-1.1,0.1-2,0.6-3.1,1c-1,0.4-2.2,0.6-3.1,0"/>
		<path class="st1" d="M566,357.7c-0.8,0.2-1.6,0.5-2.3,0.8c-1.7,0.8-2.8,2.4-4.3,3.6c-1.4,1.1-3.1,1.6-4.8,2.2
			c-0.5,0.4-0.3,1.3,0.3,1.7c0.6,0.3,1.2,0.5,1.9,0.4c1.8,0,3.6,0.1,5.1-0.8c0.9-0.6,1.7-1.2,2.4-1.9c1.8-1.5,3.9-2.5,6.1-3.4
			c0.8-0.3,1.5-0.7,2.1-1.3c1.3-1.3,1.4-3.4-0.5-3.8C570.4,354.8,567.4,357.2,566,357.7z"/>
		<path class="st1" d="M582.8,346.7c0.1-0.9,0-1.8-0.4-2.7c-0.3-0.9-0.8-1.6-1.5-2.3c0,1.8-0.1,3.8-1.1,5.3
			c-0.7,1.1-1.9,1.8-2.7,2.8c-0.8,1-1.2,2.6-0.2,3.5c0.6,0.5,1.3,0.7,2.1,0.7c1.9,0.2,4,0.3,5.3-1c0.7-0.7,1.1-1.8,1.9-2.4
			c0.3-0.1,0.6-0.3,0.8-0.6c0.4-0.6-0.2-1.3-0.9-1.5c-0.6-0.2-1.4-0.1-2-0.3c-0.6-0.2-1.2-0.9-0.9-1.5"/>
		<path class="st1" d="M552.9,280.1c-1,0.2-2,0.3-3,0.2c-1.7-0.3-3-1.6-4.3-2.6c-3.2-2.4-7.1-3.8-11.1-3.9
			c-3.6-0.1-7.3,0.9-10.9,0.2c0.2,1.3,1.3,2.3,2.5,2.8c1.2,0.6,2.5,0.9,3.7,1.4c1.9,0.9,3.4,2.5,4.3,4.4c0.4,0.9,0.6,1.9,1.2,2.6
			c1.2,1.6,3.4,1.9,5.4,1.8c2.6-0.2,5.3-0.9,7.7,0c1.8,0.7,3.2,2.4,4.7,3.6c1.5,1.3,3.7,2.2,5.5,1.3c-1.8-0.6-3.4-1.8-4.6-3.3
			c-1.1-1.6-1.7-3.5-1.7-5.4c1.7,0.2,6.7,0.1,6.5-2.8C558.6,278.2,554.4,279.8,552.9,280.1z"/>
		<path class="st1" d="M530.2,300.4c0.3-1.7,2-3.2,1.5-4.8c-0.4-1.1-1.7-1.7-2.9-1.7c-1.2,0-2.4,0.3-3.5,0.4c-0.8,0-1.5,0-2.3,0
			c-2.4,0.4-3.8,2.9-6,3.7c-1.4,0.5-2.9,0.4-4.3,0.8c-3.2,0.8-5.2,3.8-7.4,6.3c-3.6,3.9-8.3,6.6-13.5,7.8c-1.8,0.4-3.8,0.7-5.2,1.9
			c-1.9,1.6-2.4,4.2-2.8,6.6c-1.2,6.7-3,13.3-5.4,19.6l7.6,1c1.4,0.2,2.9,0.4,4.3-0.1c1-0.4,2-0.9,2.8-1.5c3.4-2.1,7.1-3.5,11.1-4
			c2-0.3,4.1-0.3,5.9,0.4c1.9,0.7,3.5,2.4,3.6,4.4c0.8-0.3,1.7-0.3,2.5-0.1c0.8,0.2,1.6,0.6,2.2,1.2c1.2,1.2,2,2.8,2.2,4.4
			c0.2,1,0.4,2.3,1.4,2.7c0.8,0.4,1.7,0,2.5-0.1c2.9-0.2,5.3,3.2,8.2,2.6c3.1-0.6,3.8-5.2,6.8-6.1c1.7-0.5,4.1,0.1,5-1.5
			c0.7-1.4-0.7-3-0.6-4.6c0.2-1.9,2.5-2.8,4.2-3.6c6.1-2.9,9-11,6-17.1c-1.7-3.6-5.2-6.4-5.8-10.3c-0.5-3,0.7-6.6-1.2-8.9
			c-1-1.2-2.6-1.9-3.2-3.3c-0.4-0.9-0.2-1.9-0.4-2.9s-1-2-2-1.7c-2.8,0.7-3.6,9.2-5.1,11.3C534.1,306.4,529.5,304.3,530.2,300.4z"/>
		<path class="st1" d="M479.2,283.3c-0.9-0.3-2-0.5-2.9-0.1c-0.9,0.4-1.4,1.7-0.7,2.4c5.7-0.2,11.4-0.4,17,0.3
			c6.5,0.9,12.9,3.1,19.4,2.4c-3.7-1.1-7.5-2-11.3-2.6l-6.4-1.2c-1.7-0.4-3.4-0.6-5.2-0.8C485.5,283.4,482.8,284.3,479.2,283.3z"/>
		<path class="st1" d="M484.9,263.6c-0.5,0-1.1-0.1-1.3,0.3c-0.2,0.4,0,0.9-0.1,1.3c-0.2,0.6-0.9,0.7-1.6,0.7
			c-0.6-0.1-1.3-0.3-1.8,0c-0.3,0.2-0.5,0.5-0.6,0.8c-0.1,0.3-0.1,0.7,0,1c0.2,0.6,0.6,1.2,1,1.7c0.8,1,1.7,1.9,2.7,2.7
			c1.9,1.4,4.6,2.1,5.8,4.2c0.2,0.4,0.4,0.8,0.8,1c0.6,0.4,1.4,0.1,2-0.2l2.2-1c0.4-0.1,0.8-0.4,1-0.7c0.5-0.7,0.2-1.7-0.2-2.4
			c-0.4-0.7-1-1.5-0.9-2.4c0.2-1.5,2.1-2.1,2.9-3.4c0.8-1.3,0.3-3,0.4-4.5c0.1-1.8,1.2-4.1-0.6-5.5c-1.5-1.1-3-0.1-4.1,1.2
			C490.3,261.1,489.2,264,484.9,263.6z"/>
		<path class="st1" d="M498.4,236.8c0.8,1.5,2.3,2.3,3.2,3.7c0.9,1.5,0.8,3.5,1.8,5c1,1.5,3,2.3,3.6,4.1c0.6,1.9-0.8,4.2,0.3,5.8
			c0.2,0.3,0.5,0.5,0.8,0.7c0.3,0.2,0.6,0.3,1,0.3c0.3,0,0.7,0,1-0.1c0.3-0.1,0.6-0.3,0.9-0.5c0.5-0.5,0.7-1.2,0.7-1.9
			c0-0.7-0.3-1.3-0.8-1.8c-0.7-0.6-1.6-0.9-2.1-1.6c-0.3-0.4-0.5-0.9-0.6-1.3c-0.3-1.4-0.3-2.9,0.1-4.2c0.1-0.4,0.2-0.7,0.1-1.1
			c-0.2-0.7-1.2-0.8-1.9-1.1c-1.5-0.8-1.5-2.9-1.2-4.6c-0.2,1.1-4.2-0.8-4.6-1.4c-0.8-1.3-0.4-3.7-0.5-5.1
			C498.2,232.4,497.5,235,498.4,236.8z"/>
		<path class="st1" d="M457.9,259.1c-0.7-0.8-1.9-1.7-2.9-1.2c-0.8,0.4-1,1.4-0.7,2.2c0.4,0.8,0.9,1.4,1.6,1.9
			c2.1,1.7,4.3,3.3,6.1,5.2c3.2,3.6,5,8.4,8.5,11.6c0.7,0.8,1.6,1.3,2.7,1.4c1,0.1,2.2-0.6,2.3-1.6c0.1-0.8-0.5-1.6-1.1-2.2
			c-1.4-1.5-2.9-2.9-4.2-4.4c-0.6-0.6-1-1.4-1.1-2.2c0-0.8,0.8-1.7,1.6-1.5c-1-0.3-1.7-1.9-3.2-2.2c-1.2-0.3-1.5,0.5-2.9-0.1
			C461.9,265,459.8,261.3,457.9,259.1z"/>
		<path class="st1" d="M522.4,178.3c-0.8-0.2-1.6-0.5-2.3-0.8c-2-0.6-4.7,0.9-4.5,3c0.2,1.4,1.5,2.3,2.2,3.6
			c1.1,1.8,0.8,4.1,0.2,6.1c-0.1,0.6-0.4,1.2-0.8,1.7c-0.5,0.6-1.1,1-1.8,1.3c-2.8,1.5-5.2,3.6-7.2,6.1c-0.2,0.2-0.4,0.5-0.4,0.8
			c-0.1,0.7,0.6,1.2,1,1.8c0.9,1.3,0.3,3.1,0.3,4.7c0,0.2,0,0.5,0.1,0.7c0.1,0.2,0.2,0.4,0.4,0.5c0.5,0.3,1.2-0.2,1.5-0.7
			c1-1.8,0.2-4.6,2.1-5.5c0.3-0.2,0.8-0.2,1-0.5c0.4-0.5,0-1.2,0.2-1.8c0.3-0.9,1.5-0.9,2.4-0.9c1.6,0.1,3.1-0.1,4.6-0.6
			c0.6-0.1,1.1-0.4,1.5-0.9c0.5-0.7,0.5-1.7,0.4-2.5c-0.5-4.3-1.9-8.5-4-12.3c1.6,0.2,3.4,0.4,4.7-0.5c0.8-0.5,1.7-1.9,1.3-2.8
			C524.9,177.3,523.8,178.5,522.4,178.3z"/>
		<path class="st1" d="M316.2,202.1c0.2,1,0.4,2.1,0,3.1c-0.3,1-1.4,1.8-2.4,1.5c-0.8-0.2-1.2-1-1.8-1.6c-3.1-3.3-10-1.4-11.9-5.5
			c-0.8-1.7-0.2-3.7-0.8-5.5c-0.3-1-1-1.9-1.9-2.5c-0.9-0.6-2-0.9-3-0.8c-1,0.1-1.9,0.4-2.8,0.8c-6,2.4-12.3,4-18.8,4.7
			c-1.2,0.1-2.4,0.3-3.6,0.7c-2.6,1-4.5,3.4-5.7,5.9c-1.3,2.5-2.2,5.2-4,7.4c-1.8,2.3-4.4,4-6.7,5.7c-0.9,0.6-1.7,1.4-2.2,2.3
			c-0.5,1.1-0.5,2.3-0.4,3.4l0.5,14.2c0.1,1.8,0.1,3.7,1,5.4c1,2,3,3.4,4.4,5.2c1.4,1.9,2.2,4.1,2.1,6.5c0,0.9-0.1,2.1,0.6,2.6
			c0.4,0.3,1,0.4,1.5,0.4l19.3,1.6c3.4,0.3,7.1,0.7,9.4,3.3c1,1.2,1.9,3,3.5,3.1c0.7,0.1,1.4-0.2,2-0.3c1.7-0.1,3.3,1.2,4.2,2.6
			c1.5,2.2,2.1,4.8,1.9,7.5c-0.2,1.6-0.7,3.3-0.8,4.9c-0.4,6.3,4.9,11.7,5,18c0.1,3.7-1.7,7.2-3.4,10.5c2.8,4.2,0.5,9.8,1.6,14.7
			c1,4.7,4.9,8.3,5.9,13c0.4,2.1,0.5,4.8,2.4,5.9c0.8,0.4,1.7,0.6,2.7,0.5c5.5,0.1,11-1.2,16-3.6c2.3-1.2,4.8-2.9,5.2-5.5
			c0.3-2.1-0.7-4.4,0.3-6.2c1.3-2.1,4.5-2,6.3-3.6c3-2.7,0.7-7.7,1.9-11.5c1.1-3.4,4.9-5.3,6.7-8.3c0.7-1.3,1.3-2.8,1.6-4.2
			c0.9-3.6,1.4-7.2,1.6-10.8c0.1-2.2,0.2-4.4,0.5-6.6c2-12.5,14.4-20.9,18.4-32.9c0.4-1.1,0.6-2.7-0.5-3.3c-0.6-0.3-1.3-0.4-1.9-0.2
			l-8.9,1.1c-1.1,0.1-2.3,0.3-3.3-0.2c-1-0.5-1.7-1.7-1.2-2.7c1.5-2.7-1.6-6.2-3-9c-3.7-7.5-8.1-14.7-13.2-21.4
			c-0.3-0.3-0.5-0.8-0.6-1.3l2.5,0.1c-0.8-3-2.3-6.4-5.2-7.5c-1.7-0.6-3.5-0.4-5.3-0.3C326.7,203.6,321.3,202.8,316.2,202.1z"/>
		<path class="st1" d="M331.8,133.4c1.3,1.4,2.8,2.9,4.8,3.2c3.4,0.4,5.9-3.1,7.4-6.2c0.1,0.8,0.4,1.5,1,2c0.6,0.5,1.4,0.8,2.1,0.8
			c0.8-0.1,1.6-0.5,2.4-0.9c6.8-3.7,14.3-5.7,22.1-5.7c-0.1-0.6,0.1-1.2,0.4-1.7s0.8-0.8,1.4-1c1.6-0.3,3,1,3.7,2.4
			c0.8,1.4,1.2,3,2.4,4.1c1.2,1.1,3.5,1,4-0.5c0.5-1.5-1.1-2.7-2.3-3.6s-2.6-2.5-1.8-3.7c6.5-1.4,13-2.9,19.6-3.2
			c1.1,0,2.3-0.2,3.3-0.6c1-0.5,1.8-1.6,1.5-2.7c-1.4,0.3-3,0.2-4.4-0.3c-1.4-0.5-2.6-1.4-3.5-2.7c9.2-0.8,19-1.4,27.1,2.9
			c1,2.1-4,3.8-2.7,5.7c0.4,0.6,1.3,0.7,2,0.7c5.7,0.1,11.4,0.2,17-0.6c2-0.3,4.1-0.8,6.2-0.5c3.4,0.4,6.3,2.7,9.7,3.4
			c1.4,0.3,2.9,0.3,4.1-0.5c1.2-0.8,1.7-2.6,0.7-3.6c3.2-3.1,8.4-2.3,12.6-0.8s8.1,3.9,12.6,4.2c3.2,0.2,6.4-0.6,9.5-0.1
			c2,0.3,3.8,1.2,5.7,1.8c3.6,1,7.5,0.8,11.3,0.9c9.7,0.1,19.2,2,28.2,5.6c1.2,0.4,2.2,1,3.1,1.8c0.8,0.9,1.3,2.3,0.7,3.4l-9.3-1.4
			c0.9,1.7,3.1,2,5,2.6c1.8,0.6,3.7,2.6,2.6,4.2c-2-0.6-3.8,1.4-4.8,3.2c-1,1.8-2.2,4-4.3,4.1c-1.9,0.1-4.1-1.5-5.3-0.1
			c1.7,2.1,3.1,4.4,4.3,6.8c1.2,2.5,2.1,5.6,0.4,7.9c-0.3,0.4-0.6,0.7-1.1,0.8c-1.3,0.3-2.2-1.3-3.1-2.3c-1.2-1.2-3-1.6-4.6-2.2
			c-1.6-0.6-3.3-1.7-3.5-3.4c-0.1-1.1,0.5-2.1,0.9-3c0.7-1.7,1-3.5,0.9-5.3c-0.1-1.4-0.5-3-1.5-4c-1-1-2.8-1.3-4-0.4
			c-0.5,0.4-0.9,1.1-1.6,1.2c-1.2,0-2.1-2-3.1-1.3c0.1,0.8,0,1.5-0.4,2.2c-2.9,2.5-7.3,1.4-11,2.3c-1.8,0.5-3.5,1.2-5,2.2
			c-0.6,0.3-1.1,0.7-1.4,1.2c-0.5,0.9,0,2,0.9,2.6c0.9,0.5,1.8,0.9,2.8,1c4.5,0.9,9.1,2.2,12.7,5.1c3.6,2.9,5.9,7.7,4.8,12.1
			l-8.9-8.5c0.3,3.6,0.5,7.2,0.6,10.7c0.1,0.7,0,1.4-0.3,2.1c-0.6,1.4-2.4,1.9-3.9,2.2c-0.4,0.1-0.8,0.2-1.2,0.5
			c-0.4,0.2-0.6,0.6-0.9,0.9c-0.2,0.4-0.4,0.8-0.4,1.2c-0.1,0.4,0,0.9,0.1,1.3c0.5,1.7,1.9,3.1,3.1,4.5c1.2,1.4,2.4,2.9,2.6,4.7
			c0.2,1.8-1.2,3.9-3,3.7c-1.4-0.1-2.4-1.3-3-2.6c-0.6-1.3-0.9-2.6-1.8-3.7c-2.7-3.2-8.7-1.8-11.1-5.3c-0.6,0.7-1,1.5-1.2,2.4
			c-0.2,0.9-0.2,1.8,0.1,2.7c1.1-0.7,2.6-0.1,3.5,1c0.8,1,1.2,2.3,1.9,3.5c0.9,1.5,2.3,2.9,2.4,4.7c0,0.7,0,1.3,0,2
			c0.2,1.1,1.1,1.8,1.8,2.7c1.5,2.1,1.4,5,0.4,7.3c-0.9,2.4-2.6,4.4-4.3,6.3c-2.9,3.4-5.9,6.7-9.4,9.5c-1,0.8-2.1,1.6-2.7,2.7
			c-0.6,1.1-0.7,2.7,0.3,3.5c-0.7,0-1.9,0.4-2.6,0.4c-0.2-2.7-0.3-5.5-0.2-8.2c-2.7-1.3-5.6,2.2-5.2,5.1c0.3,3,2.5,5.3,4,7.9
			c1.1,1.9,1.9,4,1.6,6.2c-0.4,2.1-2.3,4.1-4.5,3.9c-3.5-0.3-4.9-5.3-8.3-5.8c-0.3-0.1-0.6,0-0.9,0.1c-0.5,0.3-0.6,1-0.6,1.5
			c-0.1,2.8-0.3,5.8,0.8,8.4c1.6,3.8,5.8,7,4.9,11.1c-4.7-2.2-7.2-7.5-8.3-12.6c-1.1-5.1-1.3-10.4-3.3-15.2
			c-1.5,1.9-4.7,0.3-6.1-1.7c-1.3-1.9-2.1-4.2-3.4-6.1c-1.3-2-3.2-3.7-5.6-3.8c-2.5-0.1-4.6,1.6-6.5,3.2c-1.5,1.3-3.1,2.7-4,4.5
			c-1.3,2.6-1,5.7-1,8.7c-0.1,3.2-0.7,6.5-2.9,8.8c-2.2,2.3-6.2,3.1-8.5,1c-1.2-1.1-1.9-2.7-2.4-4.3c-2.6-7.6-4.7-15.3-6.5-23.1
			c-0.4,1.8-2,4.1-3.5,3c-0.3-0.3-0.6-0.6-0.8-1c-2.8-4.7-8-7.6-13.2-9.3c-5.2-1.7-10.7-2.5-15.9-4.4c-2.9-1-5.7-2.4-8.2-4.1
			c-0.7,1-1,2.1-1.1,3.3c-0.1,1.2,0.2,2.3,0.7,3.4c1.1,2,3.7,3.2,6,2.5c1.1-0.4,2.1-1.2,3.3-1.6c1.1-0.4,2.7-0.2,3.2,0.9
			c0.5,1-0.2,2.3,0.1,3.4c0.5,1.7,3.1,1.8,3.9,3.3c0.7,1.1,0.1,2.6-0.8,3.5c-0.9,0.9-2.2,1.4-3.3,2c-3.7,2.1-6.3,5.6-9.6,8.3
			c-3.2,2.7-7.8,4.7-11.6,3c0.9-4.6-4.6-8.1-5.6-12.7c-0.3-1.5-0.2-3.1-0.6-4.6c-0.7-2.1-2.6-3.6-4.2-5.3c-1.9-2-3.4-4.4-4.3-6.9
			c-1-2.6-1.4-5.3-1.3-8.1c0.1-1.9,0.4-3.9,0-5.7c-0.4-1.9-2-3.7-3.9-3.6c-4.4,0.2-9.9,0.5-12.2-3.2c-0.8-1.3-1.2-3.3,0-4.3
			c0.8-0.7,2.1-0.6,3.2-0.5l9.8,1c2.3,0.2,4.8,0.4,6.8-0.8c2-1.2,2.8-4.4,1-5.8c-1.3-1-3.7-1-4.1-2.6c-0.3-1.4,1.2-2.9,0.4-4.1
			c-0.6-0.8-1.9-0.6-2.7,0c-0.8,0.6-1.4,1.5-2.3,2c-1.6,0.8-3.4,0-5.1-0.5c-1.7-0.5-4-0.6-4.8,1c-0.9,1.8,0.8,4.1-0.1,5.8
			c-1.2,2.3-5.3,1-7,3c-1.9,2.3,1.3,5.7,0.7,8.6c-0.8,0.4-1.8,0.6-2.7,0.6c-0.9-0.1-1.8-0.3-2.6-0.8c-0.8-0.5-1.4-1.2-1.8-2.1
			c-0.4-0.8-0.5-1.8-0.5-2.7c0.2-1.3,0.8-2.7,0.4-3.9c-0.4-1-1.4-1.6-2.3-2.1l-9.6-5.3c-0.9,1.6,0.2,3.7,1.6,4.9
			c1.4,1.2,3.2,2.2,4.1,3.8c0.6,1.1,0.7,2.4,0.4,3.7c-0.3,1.2-1.2,2.3-2.2,2.9c-0.1,0.1-0.3,0.2-0.5,0.2c-0.2,0-0.3,0-0.5,0
			c-0.2-0.1-0.3-0.2-0.4-0.4c-0.1-0.1-0.2-0.3-0.2-0.5c-1.7-4.3-4.2-8.6-8.3-10.8c-4.1-2.3-9.9-1.8-12.5,2c-0.6,0.9-1.1,1.9-1.6,2.9
			c-2.9,5.1-9.2,7.5-15,7.3c-0.6,0-1.1-0.1-1.6-0.4c-0.9-0.7-0.9-2-0.8-3.2l0.6-4.8c0.1-1,0.3-2,1.1-2.6c1.1-0.9,2.6-0.3,4-0.3
			c1,0,2.1-0.4,2.9-1.1c0.8-0.6,1.4-1.5,1.8-2.5c0.3-1,0.3-2.1,0-3.1c-0.3-1-0.8-1.9-1.6-2.6c-0.6-0.6-1.5-1.3-1.1-2.1
			c0.1-0.2,0.3-0.4,0.5-0.6c0.2-0.1,0.5-0.2,0.7-0.3c2.5-0.7,5.1-0.9,7.5-1.8c2.4-0.8,4.8-2.6,5.4-5.1c0.2-0.8,0.3-1.7,1-2.1
			c0.3-0.1,0.7-0.2,1.1-0.2c1.3-0.2,2.5-0.9,3.4-1.9c0.8-1,1.3-2.3,1.2-3.7c1.2-0.8,2.8-0.2,3.9,0.7c1.1,0.9,2.1,2,3.5,2.4
			c2.6,0.7,5-1.6,7.7-1.6c1.1,0,2.3,0.4,3.3,0c1.1-0.4,1.7-1.4,2.5-2.2c0.8-0.8,2.3-1.3,3-0.4l-0.6-4.8c1.3,0.3,2.6,0.4,4,0.1
			c1.3-0.2,2.6-0.8,3.7-1.5l-8.3-2.8c-0.3-0.1-0.6-0.2-0.8-0.4c-0.6-0.6,0-1.7,0.5-2.4c1.2-1.8,1.4-4.7-0.6-5.6
			c-1.3-0.6-2.8,0.1-4.1,0.8l-6.1,3.4c-0.2,1.2,1.2,1.8,2.1,2.6c0.5,0.5,0.9,1.1,1.1,1.8c0.2,0.7,0.1,1.4-0.1,2.1
			c-0.2,0.7-0.7,1.2-1.3,1.6c-0.6,0.4-1.3,0.6-2,0.6c0.4,0.5,0.7,1.1,0.8,1.8c0.1,0.6,0.1,1.3,0,1.9l-4.1,0.3
			c-0.5,0.1-0.9,0-1.3-0.3c-0.4-0.4-0.4-1.1-0.5-1.6c-0.2-1.4-1.6-2.4-3-2.6c-1.4-0.2-2.8,0.1-4.2,0.4c-0.6,0.2-1.2,0.2-1.8,0
			c-0.3-0.2-0.6-0.5-0.7-0.9c-0.6-1.5,0-3.2,0.9-4.4c1-1.2,2.3-2.2,3.5-3.2c2.8-2.5,4.9-5.7,6-9.3c2.2-0.9,4.6-2.2,6.8-3.2
			c3.5-1.8,7.3-2.5,11.2-2.2l7.6,0.1c2.3,0,4.6,0.1,6.6,1c2.1,0.9,3.9,2.7,4.1,5c0,0.3,0,0.5-0.1,0.8c-0.1,0.2-0.2,0.5-0.4,0.6
			c-0.3,0.2-0.6,0.2-1,0.2C334.8,132.8,333.9,133.3,331.8,133.4z"/>
		<path class="st1" d="M271.2,157.2c0.3-0.3,0.5-0.6,0.6-1c0.1-0.4,0.1-0.8,0-1.2c-0.7-0.3-1.5-0.4-2.3-0.2s-1.5,0.5-2,1
			c-0.5,0.5-0.8,1-1.2,1.5c-1,1.6-1.9,3.6-1.3,5.4c0,0.2,0.1,0.4,0.3,0.6c0.1,0.2,0.3,0.3,0.4,0.4c0.3,0.1,0.5,0.1,0.8,0.1
			c1.1,0,2.2-0.1,3.3-0.2c0.7-0.1,1.5-0.3,1.7-0.9c0.3-0.8-0.5-1.7-0.2-2.6c0.2-0.4,0.4-0.7,0.7-1c0.2-0.1,0.3-0.3,0.3-0.5
			c0.1-0.2,0.1-0.4,0.1-0.6c-0.1-0.4-0.7-0.6-0.9-0.3"/>
		<path class="st1" d="M276.9,149.8c-1-0.2-2-0.3-3-0.2c-0.2,0-0.4,0-0.6,0.1c-0.2,0.1-0.3,0.3-0.4,0.6c-0.2,0.7-0.2,1.4,0.1,2
			c0.3,0.6,0.8,1.1,1.5,1.4c0.4,0.1,0.7,0.2,1,0.4c0.8,0.7,0.3,2,0.5,3c0.2,1.2,1.3,2.2,1.1,3.4c-0.2,0.9-1.2,1.7-1,2.6
			c0.2,1,1.4,1.3,2.4,1.3c0.6,0.1,1.2,0,1.7-0.2c0.5-0.4,0.9-0.9,1.1-1.5c0.4-1.2,0.6-2.5,0.5-3.7c0-0.6-0.1-1.1-0.4-1.6
			c-0.3-0.4-0.6-0.8-1-1.1C278.5,154.1,280.5,150.8,276.9,149.8z"/>
		<path class="st2" d="M525.7,322c0,0-144.9-83.1-207.3-67.3c0,0-132.2,14.2-147.5,45.5c0,0-42-131.2-57.3-135.5"/>
		<path class="st2" d="M170.9,300.1C195.2,235.4,414,163.7,414,163.7c-31.1,7.9-95.6,90.9-95.6,90.9s-136.6-99.3-204.9-90.1
			c0,0,300.7,9.8,412.1,157.4"/>
		<path class="st3" d="M113.5,170.9c3.5,0,6.3-2.8,6.3-6.3c0-3.5-2.8-6.3-6.3-6.3c-3.5,0-6.3,2.8-6.3,6.3
			C107.2,168.1,110,170.9,113.5,170.9z"/>
		<path class="st3" d="M170.9,306.5c3.5,0,6.3-2.8,6.3-6.3c0-3.5-2.8-6.3-6.3-6.3c-3.5,0-6.3,2.8-6.3,6.3
			C164.5,303.6,167.4,306.5,170.9,306.5z"/>
		<path class="st3" d="M414,170c3.5,0,6.3-2.8,6.3-6.3s-2.8-6.3-6.3-6.3c-3.5,0-6.3,2.8-6.3,6.3S410.5,170,414,170z"/>
		<path class="st3" d="M525.7,328.3c3.5,0,6.3-2.8,6.3-6.3c0-3.5-2.8-6.3-6.3-6.3c-3.5,0-6.3,2.8-6.3,6.3
			C519.3,325.5,522.2,328.3,525.7,328.3z"/>
		<path class="st3" d="M318.4,261c3.5,0,6.3-2.8,6.3-6.3c0-3.5-2.8-6.3-6.3-6.3c-3.5,0-6.3,2.8-6.3,6.3
			C312,258.1,314.9,261,318.4,261z"/>
		<path class="st4" d="M132.5,288c4.1,0,7.5-2.9,7.5-6.5s-3.4-6.5-7.5-6.5s-7.5,2.9-7.5,6.5S128.4,288,132.5,288z"/>
		<path class="st4" d="M134.4,275c1.2,0,2.4,0.3,3.4,0.9c1,0.6,1.9,1.4,2.5,2.4c0.6,1,0.9,2.2,1,3.3s-0.3,2.3-0.8,3.4
			c0.6-0.7,1-1.6,1.3-2.5s0.3-1.9,0.1-2.8c-0.1-0.9-0.5-1.8-1-2.6c-0.5-0.8-1.2-1.5-2-2c-0.8-0.5-1.7-0.9-2.6-1
			c-0.9-0.2-1.9-0.1-2.8,0.1s-1.8,0.6-2.6,1.2c-0.8,0.6-1.4,1.3-1.8,2.1c0.6-0.8,1.5-1.4,2.4-1.9C132.3,275.2,133.4,275,134.4,275z"
			/>
		<path class="st4" d="M118.5,282c11.9,0,21.5-9.6,21.5-21.5s-9.6-21.5-21.5-21.5S97,248.6,97,260.5S106.6,282,118.5,282z"/>
		<path class="st4" d="M101.6,247c3.8-4.1,9.1-6.5,14.7-7c5.7-0.4,11.3,1.3,15.6,4.8c-0.2-0.2-0.4-0.3-0.5-0.5
			c-4.3-3.7-10-5.6-15.8-5.2c-5.8,0.3-11.2,2.8-15.1,7c-3.9,4.1-5.8,9.6-5.5,15.1c0.3,5.5,3,10.7,7.3,14.4c0.2,0.2,0.4,0.3,0.6,0.5
			c-4.1-3.7-6.5-8.9-6.8-14.3S97.9,251,101.6,247z"/>
		<path class="st5" d="M119,282c7.7,0,14-6.3,14-14s-6.3-14-14-14s-14,6.3-14,14S111.3,282,119,282z"/>
		<path class="st5" d="M110.3,272c0,0,1.7,16.8-1,18.6c-2.7,1.8,15.6,4.4,15.6,4.4s-2.7-18.3,4.1-23H110.3z"/>
		<path class="st6" d="M126.3,287.3c0,0,5.3-2.6-2.3-1.7c-7.6,0.9-14.2-2.6-14.2-2.6s-2.3-2.4-2.7,0.2c-0.4,2.6,1.1,7.4-6.7,8.1
			c-7.8,0.7-14.9-1.5-17.7,4.1c-2.8,5.5-1.4,29.6-1.4,29.6s5.3,20,9.6,22.9c4.3,3,41.5-1.1,41.5-1.1l10.6-20v-23.3
			c0,0-1.4-8.1-11.3-5.9c0,0-6.4-1.5-6-4.8C126,289.5,126.3,287.3,126.3,287.3z"/>
		<path class="st4" d="M89,291c0,0,4.3,7.3,2.7,16.4c-1.5,9.1,4.6,31.7,4.6,31.7l4.6-1.1c0,0-3.1-18.9-2.3-23.3
			c0.8-4.4,0.8-21.5-3.1-23.7C91.7,288.8,89,291,89,291z"/>
		<path class="st4" d="M132,298.1l1.3,40.1l2.5,1.8c0,0,3.5-44,1.7-44h-3.8c-0.2,0-0.5,0.1-0.7,0.2c-0.2,0.1-0.4,0.3-0.6,0.5
			c-0.2,0.2-0.3,0.4-0.4,0.7C132,297.6,132,297.8,132,298.1z"/>
		<path class="st4" d="M107,250v15h3.2l4.1-4.7l-0.5,4.7h14.1l-0.9-4.7l1.7,4.7h2.3v-15H107z"/>
		<path class="st5" d="M104.5,267c0.8,0,1.5-0.9,1.5-2s-0.7-2-1.5-2s-1.5,0.9-1.5,2S103.7,267,104.5,267z"/>
		<path class="st5" d="M133,267c0.6,0,1-0.9,1-2s-0.4-2-1-2s-1,0.9-1,2S132.4,267,133,267z"/>
		<path class="st6" d="M139.6,300c0,0,39.9,32.3,32.5,40.1c-7.3,7.8-35.1,5.6-35.1,5.6l1.8-9.3l16.1-1.9l-8-8.2l-7.3,0.7V300z"/>
		<path class="st6" d="M87,295l-5.1,1.5c0,0-35.3,26.1-36.8,33.3c-1.5,7.3,6.9,11.3,6.9,11.3L83.7,356l3.3-8.7l-14.9-7.6
			c0,0,1.1-2.2-3.3-2.5c-4.4-0.4-5.1-5.1-5.1-5.1s8.7-13.4,13.5-10.5s6.2,5.1,6.2,5.1L87,295z"/>
		<path class="st7" d="M159,362.2v1.2c0,0.3-0.1,0.6-0.2,0.9c-0.1,0.1-0.1,0.3-0.2,0.4c-0.2,0.4-0.6,0.7-1,0.9
			c-0.4,0.2-0.9,0.3-1.3,0.3H66.7c-0.5,0-0.9-0.1-1.3-0.3c-0.4-0.2-0.7-0.5-1-0.9c-0.1-0.1-0.1-0.3-0.2-0.4
			c-0.1-0.3-0.2-0.6-0.2-0.9v-1.2c0-0.3,0.1-0.7,0.2-1s0.3-0.6,0.6-0.8c0.3-0.2,0.5-0.4,0.9-0.6c0.3-0.1,0.7-0.2,1-0.2h5.2v-0.5
			c0,0,0,0,0,0c0,0,0,0,0,0c0,0,0,0,0,0c0,0,0,0,0,0h2.7c0,0,0,0,0,0c0,0,0,0,0,0c0,0,0,0,0,0c0,0,0,0,0,0v0.5h1.7v-0.5c0,0,0,0,0,0
			c0,0,0,0,0,0c0,0,0,0,0,0c0,0,0,0,0,0h2.7c0,0,0,0,0,0c0,0,0,0,0,0c0,0,0,0,0,0c0,0,0,0,0,0v0.5h1.7v-0.5c0,0,0,0,0,0c0,0,0,0,0,0
			c0,0,0,0,0,0c0,0,0,0,0,0h2.7c0,0,0,0,0,0c0,0,0,0,0,0c0,0,0,0,0,0c0,0,0,0,0,0v0.5h1.7v-0.5c0,0,0,0,0,0c0,0,0,0,0,0c0,0,0,0,0,0
			c0,0,0,0,0,0h2.7c0,0,0,0,0,0c0,0,0,0,0,0c0,0,0,0,0,0c0,0,0,0,0,0v0.5h1.7v-0.5c0,0,0,0,0,0c0,0,0,0,0,0c0,0,0,0,0,0c0,0,0,0,0,0
			h2.7c0,0,0,0,0,0c0,0,0,0,0,0c0,0,0,0,0,0c0,0,0,0,0,0v0.5h1.7v-0.5c0,0,0,0,0,0c0,0,0,0,0,0c0,0,0,0,0,0c0,0,0,0,0,0h2.7
			c0,0,0,0,0,0c0,0,0,0,0,0c0,0,0,0,0,0c0,0,0,0,0,0v0.5h1.7v-0.5c0,0,0,0,0,0c0,0,0,0,0,0c0,0,0,0,0,0c0,0,0,0,0,0h21.1
			c0,0,0,0,0,0c0,0,0,0,0,0c0,0,0,0,0,0c0,0,0,0,0,0v0.5h1.7v-0.5c0,0,0,0,0,0c0,0,0,0,0,0c0,0,0,0,0,0c0,0,0,0,0,0h2.7
			c0,0,0.1,0,0.1,0c0,0,0,0,0,0.1v0.5h1.7v-0.5c0,0,0,0,0,0c0,0,0,0,0,0c0,0,0,0,0,0c0,0,0,0,0,0h2.7c0,0,0,0,0,0c0,0,0,0,0,0
			c0,0,0,0,0,0c0,0,0,0,0,0v0.5h1.7v-0.5c0,0,0,0,0,0c0,0,0,0,0,0c0,0,0,0,0,0c0,0,0,0,0,0h2.7c0,0,0,0,0,0c0,0,0,0,0,0c0,0,0,0,0,0
			c0,0,0,0,0,0v0.5h1.7v-0.5c0,0,0,0,0,0c0,0,0,0,0,0c0,0,0,0,0,0c0,0,0,0,0,0h2.7c0,0,0.1,0,0.1,0c0,0,0,0,0,0.1v0.5h1.7v-0.5
			c0,0,0,0,0,0c0,0,0,0,0,0c0,0,0,0,0,0c0,0,0,0,0,0h2.7c0,0,0,0,0,0c0,0,0,0,0,0c0,0,0,0,0,0c0,0,0,0,0,0v0.5h1.7v-0.5c0,0,0,0,0,0
			c0,0,0,0,0,0c0,0,0,0,0,0c0,0,0,0,0,0h2.7c0,0,0,0,0,0c0,0,0,0,0,0c0,0,0,0,0,0c0,0,0,0,0,0v0.5h7.9c0.4,0,0.7,0.1,1,0.2
			s0.6,0.3,0.9,0.6c0.3,0.2,0.4,0.5,0.6,0.8S159,361.9,159,362.2z"/>
		<path class="st7" d="M151.8,310.7H119V310h-14.9v0.7H71.2c-0.6,0-1.2,0.2-1.6,0.7c-0.4,0.4-0.6,1-0.6,1.6v45.8
			c0,0.6,0.2,1.2,0.6,1.6c0.4,0.4,1,0.7,1.6,0.7h80.6c0.6,0,1.2-0.2,1.6-0.7c0.4-0.4,0.6-1,0.6-1.6V313c0-0.6-0.2-1.2-0.6-1.6
			C152.9,310.9,152.4,310.7,151.8,310.7z"/>
		<path class="st8" d="M110.5,331c3,0,5.5-2,5.5-4.5s-2.5-4.5-5.5-4.5s-5.5,2-5.5,4.5S107.5,331,110.5,331z"/>
		<path class="st9" d="M109.5,334c3,0,5.5-2.5,5.5-5.5s-2.5-5.5-5.5-5.5s-5.5,2.5-5.5,5.5S106.5,334,109.5,334z"/>
		<path class="st10" d="M472,76c7.2,0,13-6,13-13.5S479.2,49,472,49s-13,6-13,13.5S464.8,76,472,76z"/>
		<path class="st10" d="M462.7,69c0,0,2.5,18.6-1.3,20.7C457.6,91.8,484,92,484,92s-5.9-16.2-3.2-21.1L462.7,69z"/>
		<path class="st11" d="M504,92.9l-2.2,10.1l-4.7,21.4l-0.1,1.2l-1.6,13.6l-1.1,9l-0.7,6.1c-4.4,2.3-7.6,3.8-7.6,3.8
			s-0.3-1.4-0.7-3.1c-3.1,0.9-8.9,2.5-13.7,2.8c1.8,2,2.6,3.8,1.5,5.2c-3.3,4.1-17.1-4.5-22-7.7c-0.1,0.8-0.2,1.5-0.1,2.3l-3.7-2.8
			l0.4-6.5l0.6-11l0.8-13.8c-0.2-0.6-0.4-1.2-0.6-1.8c-1.1-4-2.5-12-3.6-18.6c-0.8-5.4-1.5-9.9-1.6-10.9c0-0.1,0-0.2,0-0.2l20.4-9
			c1.5,3.3,8.2,4.3,8.2,4.3c5.6-0.4,10-3.3,10-3.3L504,92.9z"/>
		<path class="st4" d="M461.5,49.7l-2.5-1c0,0,5.2-5.6,12.4-5.2l-2-2.2c0,0,4.9-2,9.4,3.2c2.4,2.7,5.1,5.9,6.8,9.5h2.6l-1.1,2.4
			l3.9,2.4l-4-0.4c0.2,1.3,0.3,2.7,0.1,4c-0.2,1.3-0.9,2.5-1.9,3.4c0,0-3.1-6.3-3.1-7.3V61c0,0-2.5-2.2-2.5-3.7l-1.3,1.7l-0.7-2.7
			l-8.3,2.7l1.3-2.2l-5.2,0.7l2-2.7c0,0-5.8,3.2-6.1,5.9c-0.2,2.7-1.9,5.3-1.9,5.3S455,53.4,461.5,49.7z"/>
		<path class="st11" d="M518.3,139.4c-1.3,1.5-4.7,3.7-8.7,6c-1.5,0.9-3.1,1.8-4.7,2.7c-3.9,2.2-8,4.3-11.3,6
			c-4.4,2.3-7.5,3.8-7.5,3.8s-0.3-1.4-0.7-3.1c-0.6-2.3-1.5-5.4-2.4-6.7c0,0-0.1-0.1-0.1-0.1c-0.3-0.4-0.5-0.6-0.8-0.6l13.3-8.3
			l5.8-3.6l-4.2-10l-5.2-12.5l3.1-10L498,93h5.9c0,0,2,4.3,4.5,10.3c0.4,0.9,0.8,1.8,1.2,2.8C514.7,118.7,521.2,136.3,518.3,139.4z"
			/>
		<path class="st11" d="M458,148.5c-0.5,0-1,0-1.5,0.1c-4.2,0.7-5.4,4.5-5.8,7c-0.1,0.8-0.2,1.6-0.1,2.3l-3.7-2.8l-1.3-1
			c-3.2-1.1-6.1-3.1-8.7-5.5c-2.2-2.1-4.1-4.4-5.8-6.9c-1.7-2.5-3.2-5-4.5-7.7c-0.4-0.7-0.6-1.6-0.6-2.4c0-0.8,0.2-1.7,0.5-2.4
			l4.6-10.2l6.7-14.9c0-0.4,0.1-0.7,0.2-1c1.3-7.6,4.9-11,4.9-11h2.7l1.8,11l2.3,13.7l-1.6,5.2l-3.7,11.9l3.5,3.8L458,148.5z"/>
		<path class="st3" d="M461.1,115.7l2.3,2.7c0.9-0.2,1.8-0.4,2.7-0.6l-0.7-2.2l1.6,1.9c9.8-2.4,21.9-7.2,21.9-7.2s-13.1,1-22.9-1.2
			c-4.3-1-8.8,1.2-10.6,5.3c-1,2.4-0.9,4.5,2.8,4.5c1.2,0,2.5-0.1,3.7-0.4L461.1,115.7z"/>
		<path class="st7" d="M514,160.8v1c0,0.3-0.1,0.5-0.2,0.8c0,0.1-0.1,0.2-0.2,0.3c-0.2,0.3-0.5,0.6-0.9,0.8
			c-0.4,0.2-0.8,0.3-1.2,0.3h-81.1c-0.4,0-0.8-0.1-1.2-0.3c-0.4-0.2-0.7-0.5-0.9-0.8c-0.1-0.1-0.1-0.2-0.2-0.3
			c-0.1-0.3-0.2-0.5-0.2-0.8v-1c0-0.3,0.1-0.6,0.2-0.8c0.1-0.3,0.3-0.5,0.5-0.7c0.2-0.2,0.5-0.4,0.8-0.5c0.3-0.1,0.6-0.2,0.9-0.2
			h4.7v-0.5c0,0,0,0,0,0c0,0,0,0,0,0c0,0,0,0,0,0c0,0,0,0,0,0h2.4c0,0,0,0,0,0c0,0,0,0,0,0c0,0,0,0,0,0c0,0,0,0,0,0v0.5h1.5v-0.5
			c0,0,0,0,0,0c0,0,0,0,0,0c0,0,0,0,0,0c0,0,0,0,0,0h2.4c0,0,0,0,0,0c0,0,0,0,0,0c0,0,0,0,0,0c0,0,0,0,0,0v0.5h1.5v-0.5c0,0,0,0,0,0
			c0,0,0,0,0,0c0,0,0,0,0,0c0,0,0,0,0,0h2.4c0,0,0,0,0,0c0,0,0,0,0,0c0,0,0,0,0,0c0,0,0,0,0,0v0.5h1.5v-0.5c0,0,0,0,0,0c0,0,0,0,0,0
			c0,0,0,0,0,0c0,0,0,0,0,0h2.4c0,0,0,0,0,0c0,0,0,0,0,0c0,0,0,0,0,0c0,0,0,0,0,0v0.5h1.5v-0.5c0,0,0,0,0,0c0,0,0,0,0,0c0,0,0,0,0,0
			c0,0,0,0,0,0h2.4c0,0,0,0,0,0c0,0,0,0,0,0c0,0,0,0,0,0c0,0,0,0,0,0v0.5h1.5v-0.5c0,0,0,0,0,0c0,0,0,0,0,0c0,0,0,0,0,0c0,0,0,0,0,0
			h2.4c0,0,0,0,0,0c0,0,0,0,0,0c0,0,0,0,0,0c0,0,0,0,0,0v0.5h1.5v-0.5c0,0,0,0,0,0c0,0,0,0,0,0c0,0,0,0,0,0c0,0,0,0,0,0h19.1
			c0,0,0,0,0,0c0,0,0,0,0,0c0,0,0,0,0,0c0,0,0,0,0,0v0.5h1.5v-0.5c0,0,0,0,0,0c0,0,0,0,0,0c0,0,0,0,0,0c0,0,0,0,0,0h2.4
			c0,0,0.1,0,0.1,0c0,0,0,0,0,0.1v0.5h1.5v-0.5c0,0,0,0,0,0c0,0,0,0,0,0c0,0,0,0,0,0c0,0,0,0,0,0h2.4c0,0,0,0,0,0c0,0,0,0,0,0
			c0,0,0,0,0,0c0,0,0,0,0,0v0.5h1.5v-0.5c0,0,0,0,0,0c0,0,0,0,0,0c0,0,0,0,0,0c0,0,0,0,0,0h2.4c0,0,0,0,0,0c0,0,0,0,0,0c0,0,0,0,0,0
			c0,0,0,0,0,0v0.5h1.5v-0.5c0,0,0,0,0,0c0,0,0,0,0,0c0,0,0,0,0,0c0,0,0,0,0,0h2.4c0,0,0.1,0,0.1,0c0,0,0,0,0,0.1v0.5h1.5v-0.5
			c0,0,0,0,0,0c0,0,0,0,0,0c0,0,0,0,0,0c0,0,0,0,0,0h2.4c0,0,0,0,0,0c0,0,0,0,0,0c0,0,0,0,0,0c0,0,0,0,0,0v0.5h1.5v-0.5c0,0,0,0,0,0
			c0,0,0,0,0,0c0,0,0,0,0,0c0,0,0,0,0,0h2.4c0,0,0,0,0,0c0,0,0,0,0,0c0,0,0,0,0,0c0,0,0,0,0,0v0.5h7.1c0.3,0,0.6,0.1,0.9,0.2
			c0.3,0.1,0.6,0.3,0.8,0.5c0.2,0.2,0.4,0.4,0.5,0.7C513.9,160.2,514,160.5,514,160.8z"/>
		<path class="st7" d="M507,114.6h-30.1V114h-13.6v0.6H433c-0.3,0-0.5,0.1-0.8,0.2c-0.2,0.1-0.5,0.2-0.7,0.4
			c-0.2,0.2-0.3,0.4-0.4,0.6c-0.1,0.2-0.2,0.5-0.2,0.8V157c0,0.5,0.2,1,0.6,1.4c0.4,0.4,0.9,0.6,1.4,0.6H507c0.5,0,1.1-0.2,1.4-0.6
			c0.4-0.4,0.6-0.9,0.6-1.4v-40.4c0-0.3-0.1-0.5-0.2-0.8c-0.1-0.2-0.3-0.5-0.4-0.6c-0.2-0.2-0.4-0.3-0.7-0.4
			C507.5,114.7,507.2,114.6,507,114.6z"/>
		<path class="st8" d="M469.5,133c2.5,0,4.5-2,4.5-4.5s-2-4.5-4.5-4.5s-4.5,2-4.5,4.5S467,133,469.5,133z"/>
		<path class="st9" d="M468.5,135c2.5,0,4.5-2,4.5-4.5s-2-4.5-4.5-4.5s-4.5,2-4.5,4.5S466,135,468.5,135z"/>
	</g>
</g>
</svg>
