<svg width="624" height="463" viewBox="0 0 624 463" fill="none" xmlns="http://www.w3.org/2000/svg">
<g clip-path="url(#clip0)">
<path d="M574.87 112.549C504.047 14.1031 354.437 -25.8307 207.301 17.179C129.514 39.9169 54.5135 85.4757 17.345 173.692C-49.0977 331.389 90.4071 381.753 181.628 397.805C225.738 405.567 267.281 418.605 305.244 436.356C373.543 468.292 494.437 496.591 585.598 363.562C651.673 267.142 622.045 178.123 574.87 112.549Z" fill="#F2F2F2"/>
<path d="M164.263 132.026C164.065 130.461 163.664 128.929 163.071 127.467C162.995 127.191 162.863 126.933 162.682 126.711C162.501 126.489 162.276 126.306 162.021 126.175C161.68 126.087 161.322 126.083 160.979 126.164L155.629 126.981C155.181 127.002 154.753 127.168 154.409 127.455C153.712 128.187 154.398 129.366 154.377 130.376C154.353 131.511 153.343 132.433 152.247 132.738C151.129 132.964 149.976 132.949 148.864 132.696L141.383 131.535C143.587 130.832 145.547 129.525 147.042 127.762C148.027 126.598 148.551 124.423 147.128 123.871C146.705 123.755 146.264 123.72 145.829 123.767C142.439 123.793 139.772 120.967 136.6 119.776C134.569 119.063 132.365 119.01 130.302 119.625C128.239 120.239 126.424 121.489 125.115 123.196L129.1 123.388C129.475 123.367 129.847 123.466 130.162 123.671C131.035 124.387 129.949 125.764 130.072 126.886C130.232 128.345 132.17 128.656 133.631 128.803C135.092 128.951 136.946 130.137 136.243 131.425C128.9 133.951 121.427 126.486 113.715 127.405C111.763 127.637 109.92 128.403 108.014 128.885C96.3729 131.827 84.3378 123.977 72.4455 125.639C69.8018 126.09 67.2034 126.774 64.6812 127.685C63.0626 128.216 61.3743 128.789 60.1983 130.021C59.0223 131.252 58.5747 133.357 59.6888 134.645C56.618 134.897 53.5267 134.604 50.5586 133.778C51.3612 134.223 52.029 134.877 52.4917 135.669C52.9544 136.461 53.1951 137.363 53.1884 138.281C48.3937 139.062 43.7261 140.483 39.3109 142.508C40.1349 143.876 41.0974 145.157 42.1832 146.33L36.1133 150.225C38.164 150.741 39.2243 153.534 38.0317 155.279C40.158 154.334 41.4758 151.89 43.7496 151.394C45.2393 151.069 46.755 151.678 48.1681 152.25C49.5812 152.822 51.1344 153.376 52.5973 152.947C54.0602 152.518 55.1392 150.623 54.2097 149.416C60.4625 147.593 66.9246 146.585 73.4359 146.415C73.9382 146.352 74.4477 146.449 74.892 146.691C75.7396 147.279 75.5166 148.548 75.4709 149.577C75.4253 150.607 76.2285 151.96 77.1496 151.495C76.0659 152.434 76.9924 154.201 78.0321 155.188C79.0717 156.176 80.3249 157.538 79.6884 158.822C79.5222 159.157 79.2405 159.425 79.0806 159.763C78.6088 160.761 79.3579 161.925 80.2415 162.588C81.1251 163.251 82.2075 163.714 82.8212 164.632C83.435 165.55 83.1563 167.156 82.0587 167.284L78.9391 163.328C77.8732 164.432 77.1425 165.815 76.8317 167.317C80.1398 170.018 80.6374 175.517 77.8679 178.767C76.4526 180.428 74.4399 181.437 72.6833 182.733C70.9267 184.028 69.3012 185.873 69.3057 188.054C69.3133 191.822 69.0051 195.323 70.4187 198.817C73.0253 205.259 76.0348 211.531 79.4294 217.596C80.3208 219.188 81.4728 220.934 83.2787 221.208C80.9964 215.658 78.942 210.022 77.1153 204.299C78.3051 204.304 79.68 204.398 80.3774 205.361C80.955 206.158 80.8309 207.242 81.0104 208.21C81.2386 209.148 81.6192 210.041 82.1371 210.856L93.0353 230.248C93.9387 231.855 94.975 233.581 96.7017 234.232C97.8056 234.648 99.0828 234.57 100.099 235.169C100.895 235.639 101.432 236.472 102.244 236.915C104.539 238.166 107.732 235.767 109.877 237.26C110.491 237.687 110.881 238.366 111.446 238.855C113.428 240.569 116.678 239.422 118.966 240.701C120.44 241.525 121.204 243.173 121.99 244.667C123.96 248.408 127.147 252.073 131.368 252.371C132.694 252.465 134.048 252.213 135.345 252.508C136.641 252.803 137.916 253.933 137.708 255.244C137.352 257.492 138.464 259.954 138.165 262.211C137.621 266.322 131.784 268.128 131.283 272.244C131.173 273.145 131.345 274.076 131.13 274.958C130.867 276.039 130.054 276.919 129.765 277.994C129.218 280.03 130.678 282.057 132.283 283.427C133.887 284.797 135.801 285.979 136.679 287.897C137.606 289.924 137.15 292.287 137.452 294.496C138.11 299.317 142.279 302.891 146.569 305.195C147.876 305.897 149.28 306.577 150.126 307.795C151.23 309.385 151.12 311.481 151.488 313.38C152.391 318.032 156.312 321.865 156.423 326.603C156.502 329.97 154.629 333.025 153.509 336.202C152.46 339.246 152.08 342.48 152.396 345.684C152.712 348.888 153.716 351.987 155.339 354.768C156.177 356.18 157.178 357.512 157.77 359.043C158.827 361.775 158.485 364.881 159.459 367.644C160.748 371.296 164.288 374.313 163.949 378.171C165.557 381.505 169.106 383.144 172.675 384.136L179.072 385.915C180.297 386.255 181.577 386.599 182.824 386.352C184.071 386.105 185.261 385.071 185.229 383.801C182.092 383.095 178.855 382.343 176.269 380.434C173.683 378.524 171.912 375.124 172.893 372.065C173.348 370.647 174.316 369.009 173.396 367.837C172.869 367.166 171.905 366.99 171.311 366.378C170.384 365.423 170.703 363.819 171.369 362.667C172.035 361.516 172.998 360.486 173.267 359.184C173.403 358.455 173.312 357.702 173.007 357.026C172.703 356.35 172.198 355.784 171.562 355.402C172.748 354.955 173.827 354.264 174.728 353.373C175.561 352.423 175.945 350.959 175.29 349.879C177.235 350.126 179.531 350.246 180.808 348.76C181.828 347.573 181.758 345.799 181.355 344.288C180.952 342.776 180.271 341.308 180.25 339.745C184.737 339.957 189.234 339.805 193.696 339.289C193.05 337.118 191.584 335.284 189.608 334.175C191.629 333.834 193.47 331.417 194.108 329.471C194.747 327.526 194.584 325.407 194.189 323.397C194.038 322.88 194.017 322.333 194.129 321.806C194.356 321.082 195.069 320.64 195.728 320.262L205.759 314.507C206.357 314.207 206.9 313.807 207.363 313.324C208.414 312.091 208.258 310.229 207.72 308.702C207.182 307.174 206.32 305.738 206.113 304.131C205.493 299.328 210.641 295.881 212.378 291.359C213.06 289.585 213.199 287.656 213.331 285.76C213.472 283.723 213.483 281.358 211.917 280.045C210.417 278.787 208.072 279.068 206.502 277.898C205.062 276.825 204.566 274.741 202.993 273.875C201.565 273.088 199.774 273.588 198.186 273.218C195.389 272.566 193.629 269.346 190.772 269.048C189.161 268.88 187.337 269.667 186.016 268.73C184.852 267.903 184.805 266.243 184.584 264.834C184.196 262.644 183.145 260.626 181.573 259.051C180.002 257.476 177.985 256.42 175.794 256.025C174.132 255.759 172.323 255.86 170.91 254.948C169.478 254.024 168.822 252.295 167.698 251.016C165.886 248.954 163.032 248.222 160.358 247.594L149.483 245.04C147.553 244.587 145.064 244.347 144.028 246.036C143.722 246.679 143.504 247.361 143.383 248.063C142.995 249.333 142.214 250.447 141.152 251.245C140.09 252.044 138.802 252.485 137.473 252.507C136.561 250.954 135.085 249.813 133.351 249.321C132.248 249.014 131.068 248.98 130.016 248.528C129.444 248.249 128.934 247.856 128.518 247.373C128.103 246.89 127.791 246.328 127.6 245.72C127.41 245.113 127.346 244.473 127.412 243.839C127.478 243.206 127.672 242.593 127.984 242.037C128.611 240.922 128.853 239.632 128.673 238.366C128.493 237.1 127.901 235.928 126.987 235.031C125.138 233.373 122.463 232.972 119.983 233.138C119.334 231.722 120.42 230.125 121.59 229.096C122.76 228.068 124.181 227.056 124.436 225.52C124.837 223.104 121.75 221.268 119.406 221.989C117.063 222.709 115.567 224.983 114.578 227.225C114.011 228.511 113.528 229.865 112.634 230.949C111.739 232.034 110.298 232.81 108.934 232.462C107.005 231.97 106.259 229.679 105.832 227.736C105.259 225.129 104.683 222.485 104.803 219.818C104.923 217.152 105.823 214.413 107.792 212.608C110.999 209.666 115.921 209.955 120.25 210.424C119.227 209.273 119.48 207.333 120.574 206.249C121.152 205.736 121.846 205.372 122.597 205.188C123.347 205.004 124.131 205.005 124.881 205.192C126.186 205.464 127.361 206.165 128.218 207.185C129.448 208.683 129.798 210.706 130.728 212.407C131.657 214.108 133.748 215.558 135.46 214.646C136.938 213.858 137.173 211.81 136.805 210.177C136.437 208.544 135.656 206.956 135.789 205.288C136.043 202.104 139.347 200.188 142.262 198.877C145.178 197.566 148.516 195.802 148.978 192.642C148.994 192.023 149.111 191.411 149.324 190.83C149.647 190.317 150.097 189.895 150.629 189.604C159.138 183.987 167.788 178.301 177.513 175.232C178.019 175.072 178.079 175.25 178.594 175.125C179.316 174.708 178.838 173.556 178.146 173.091C177.454 172.627 176.529 172.271 176.354 171.457C176.225 170.859 176.578 170.271 176.669 169.666C176.895 168.179 175.114 166.806 173.731 167.401C172.949 166.367 174.495 165.166 175.745 164.823C179.498 163.791 183.351 163.162 187.238 162.947C187.686 162.876 188.146 162.954 188.545 163.169C189.198 163.621 189.115 164.657 188.652 165.302C188.19 165.947 187.47 166.351 186.893 166.897C186.263 167.51 185.814 168.284 185.595 169.135C185.375 169.985 185.394 170.88 185.648 171.72C187.677 172.751 189.883 173.813 192.13 173.45C194.378 173.086 196.372 170.564 195.316 168.55C194.332 166.674 191.378 166.251 190.869 164.195C190.275 161.788 193.686 159.647 192.917 157.289C192.581 156.257 191.551 155.649 190.76 154.903C189.826 153.989 189.191 152.814 188.938 151.533C188.685 150.252 188.826 148.924 189.342 147.724C188.054 147.95 186.731 147.865 185.483 147.475C184.235 147.085 183.099 146.401 182.17 145.482C180.455 143.753 179.086 141.025 176.65 141.102C174.415 141.173 172.49 143.778 170.399 142.984C169.885 142.788 169.343 142.39 168.845 142.623C168.682 142.729 168.545 142.871 168.444 143.037C168.344 143.204 168.282 143.391 168.265 143.585C167.734 146.122 168.648 149.012 167.264 151.204C165.757 153.589 162.274 153.92 160.448 156.071C159.457 157.239 159.073 158.812 158.162 160.043C157.251 161.274 155.317 162.057 154.224 160.984C154.761 159.88 154.908 158.628 154.64 157.43C154.372 156.232 153.705 155.161 152.749 154.391C151.734 153.729 150.64 153.198 149.492 152.809C148.21 152.266 146.99 151.587 145.854 150.783C145.284 150.44 144.822 149.946 144.518 149.355C144.277 148.616 144.31 147.815 144.609 147.098C145.164 145.51 146.142 144.103 147.438 143.03C148.734 141.957 150.299 141.258 151.963 141.009C153.419 140.811 155.113 140.88 156.077 139.773C156.587 139.186 156.854 138.3 157.594 138.062C158.067 137.967 158.559 138.027 158.995 138.234L164.428 140.145C165.034 140.418 165.702 140.528 166.364 140.464C166.692 140.42 166.991 140.254 167.202 139.998C167.412 139.743 167.518 139.417 167.498 139.087C167.325 138.185 165.936 137.753 166.063 136.844C166.133 136.549 166.292 136.283 166.517 136.08C168.478 133.995 170.876 132.369 173.54 131.319C176.204 130.268 179.067 129.819 181.924 130.003C182.61 131.128 181.526 132.46 180.623 133.421C179.721 134.381 178.995 136.097 180.087 136.836C180.534 137.064 181.032 137.176 181.534 137.162C182.871 137.343 184.171 137.737 185.384 138.329C187.262 139.145 189.103 140.038 190.909 141.008C190.749 139.819 190.597 138.566 191.048 137.454C191.5 136.342 192.782 135.47 193.902 135.903C194.982 136.32 195.535 137.748 196.686 137.879C198.22 138.053 198.825 135.789 198.184 134.386C197.543 132.983 196.275 131.808 196.169 130.269C196.097 129.231 196.493 127.943 195.663 127.315C195.367 127.126 195.032 127.009 194.683 126.972L173.956 123.162C172.725 122.935 170.946 123.109 170.892 124.358C170.861 125.055 171.485 125.745 171.209 126.386C170.914 127.07 169.946 127.007 169.241 127.249C168.146 127.625 167.597 128.922 167.702 130.073C167.895 131.217 168.338 132.304 169.001 133.256C167.653 132.693 165.611 132.589 164.263 132.026Z" fill="#3F3D56"/>
<path d="M147.724 114.45C146.417 114.018 145.009 113.997 143.69 114.392C142.371 114.787 141.205 115.577 140.351 116.655C140.01 117.104 139.723 117.723 140.009 118.209C140.419 118.906 141.463 118.631 142.232 118.381C143.363 117.978 144.594 117.948 145.743 118.298C146.466 118.546 147.112 118.984 147.838 119.222C148.191 119.37 148.578 119.418 148.957 119.363C149.336 119.308 149.693 119.15 149.989 118.908C150.487 118.401 150.518 117.612 150.519 116.901C150.554 116.663 150.535 116.421 150.463 116.191C150.392 115.962 150.271 115.751 150.107 115.574C149.817 115.406 149.491 115.31 149.155 115.293C148.404 115.154 147.725 114.758 147.236 114.173" fill="#3F3D56"/>
<path d="M155.198 112.371C154.906 112.355 154.614 112.415 154.351 112.544C154.088 112.673 153.863 112.868 153.698 113.109C153.532 113.35 153.431 113.63 153.405 113.921C153.379 114.213 153.428 114.506 153.548 114.773C154.446 115.018 155.385 115.079 156.307 114.953C156.767 114.881 157.196 114.676 157.539 114.361C157.883 114.047 158.125 113.638 158.236 113.186C157.15 113.384 156.029 113.17 155.092 112.587" fill="#3F3D56"/>
<path d="M180.274 108.899C177.829 109.419 175.454 110.225 173.198 111.3C174.262 111.709 175.166 112.447 175.777 113.408C176.388 114.368 176.675 115.499 176.594 116.634C176.499 117.07 176.51 117.522 176.626 117.953C176.886 118.582 177.639 118.819 178.301 118.98C179.491 119.342 180.733 119.5 181.975 119.448C182.596 119.416 183.2 119.229 183.731 118.905C184.262 118.581 184.703 118.13 185.016 117.592C185.196 117.082 185.407 116.583 185.648 116.099C187.235 113.685 191.949 116.604 193.653 114.271C194.253 113.449 194.198 112.212 194.98 111.56C195.385 111.276 195.854 111.098 196.345 111.04C199.772 110.36 203.232 109.868 206.713 109.565C208.362 109.422 210.511 108.83 210.525 107.177C204.314 105.958 197.874 106.824 192.206 109.639C190.164 110.66 187.463 112.809 185.496 111.455C184.76 110.948 184.796 109.582 183.783 109.012C182.746 108.429 181.374 108.666 180.274 108.899Z" fill="#3F3D56"/>
<path d="M200.586 112.694L203.501 113.253C202.965 113.229 202.429 113.32 201.93 113.52C201.432 113.719 200.981 114.022 200.609 114.409C200.237 114.797 199.952 115.258 199.773 115.764C199.593 116.27 199.524 116.808 199.57 117.343C202.3 118.254 205.277 117.367 208.153 117.489C211.029 117.61 214.375 119.662 213.884 122.495C213.735 123.352 213.24 124.208 213.498 125.038C213.678 125.62 214.192 126.034 214.482 126.57C215.087 127.687 214.604 129.1 213.84 130.115C213.077 131.131 212.051 131.941 211.381 133.02C209.715 135.704 210.662 139.174 211.654 142.173C211.941 143.306 212.471 144.363 213.207 145.271C214.678 146.833 217.074 146.969 219.221 147C220.783 147.023 222.572 146.946 223.56 145.737C224.85 144.159 223.948 141.696 224.797 139.843C225.568 138.161 227.533 137.439 229.313 136.927C232.574 135.99 235.897 135.192 238.981 133.776C242.809 132.017 246.387 129.276 250.595 129.049C251.775 128.986 252.985 129.125 254.122 128.802C255.259 128.479 256.339 127.497 256.253 126.319C256.18 125.313 255.327 124.574 254.661 123.815C253.995 123.056 253.472 121.89 254.084 121.087L265.113 119.029C264.332 116.901 263.723 114.098 265.519 112.713C266.167 112.213 267.035 112.013 267.587 111.409C268.528 110.379 268.055 108.605 266.969 107.729C265.883 106.853 264.415 106.65 263.024 106.534C258.188 106.133 253.324 106.398 248.479 106.664C239.007 107.182 229.535 107.701 220.063 108.219C218.157 108.324 215.955 108.164 214.206 108.814C212.726 109.364 211.673 110.374 209.98 110.729C206.854 111.384 203.414 110.941 200.586 112.694Z" fill="#3F3D56"/>
<path d="M252.816 135.713C252.519 135.666 252.215 135.735 251.967 135.906C251.804 136.086 251.706 136.316 251.691 136.559C251.503 137.631 251.727 138.735 252.319 139.649C252.62 140.097 253.036 140.457 253.524 140.691C254.012 140.924 254.553 141.023 255.092 140.977C256.404 140.81 257.372 139.691 258.579 139.145C260.439 138.304 268.338 136.994 262.874 134.045C260.991 133.029 259.774 133.926 258.29 134.595C256.601 135.458 254.708 135.845 252.816 135.713Z" fill="#3F3D56"/>
<path d="M300.679 111.029C300.041 111.289 299.507 111.753 299.161 112.349C299.001 112.651 298.964 113.003 299.057 113.332C299.15 113.661 299.367 113.941 299.661 114.115C299.899 114.202 300.152 114.242 300.405 114.233L303 114.311C304.102 114.344 305.479 114.578 305.775 115.639C305.995 116.427 305.503 117.439 306.096 118.002C306.351 118.2 306.658 118.319 306.979 118.346C307.834 118.566 308.726 118.594 309.593 118.431C311.481 117.925 310.489 116.774 311.084 115.749C311.993 114.181 311.836 115.13 313.439 114.232C314.623 113.568 316.152 112.364 315.164 110.672C313.446 107.731 303.214 109.765 300.679 111.029Z" fill="#3F3D56"/>
<path d="M351.888 109.55L350.381 109.751C346.984 110.204 343.567 110.661 340.295 111.68C341.712 112.239 343.198 112.603 344.713 112.762C345.546 112.803 346.375 112.921 347.187 113.114C348.632 113.543 350.088 114.653 351.485 114.085C352.35 113.732 352.633 112.832 353.35 112.355C353.845 112.025 355.723 111.492 355.933 111.159C357.631 108.471 353.193 109.376 351.888 109.55Z" fill="#3F3D56"/>
<path d="M358.503 116.39C356.491 117.514 354.624 118.88 352.944 120.457C352.236 121.121 351.513 121.948 351.577 122.916C351.662 124.203 353.035 124.95 354.224 125.453L359.04 127.49C359.624 126.667 359.089 125.532 358.486 124.723C357.882 123.915 357.164 122.98 357.431 122.007C357.735 120.897 359.09 120.518 360.227 120.327C362.078 120.016 367.072 120.041 366.472 117.06C365.765 113.549 360.362 115.352 358.503 116.39Z" fill="#3F3D56"/>
<path d="M357.535 315.118C357.076 316.443 357.033 318.005 357.826 319.163C358.716 320.462 360.497 320.946 362.038 320.617C363.572 320.209 364.94 319.331 365.948 318.105C366.871 317.079 367.629 315.917 368.198 314.66C368.991 312.701 369.551 310.656 369.865 308.566L371.36 300.724C371.694 298.971 371.681 293.597 368.456 295.348C367.575 295.826 365.535 299.603 364.612 300.674C362.948 302.604 362.728 304.476 361.852 306.815C360.755 309.743 358.549 312.184 357.535 315.118Z" fill="#3F3D56"/>
<path d="M527.87 355.251C526.815 354.839 525.791 354.352 524.806 353.794C523.818 356.506 523.293 359.365 523.252 362.251L530.473 358.169C531.559 357.555 532.791 356.702 532.767 355.456C532.777 355.302 532.745 355.148 532.675 355.011C532.605 354.873 532.499 354.757 532.368 354.675C532.208 354.611 532.033 354.59 531.862 354.616C530.791 354.705 529.815 355.231 528.805 355.597C527.795 355.963 526.614 356.157 525.687 355.613" fill="#3F3D56"/>
<path d="M565.963 357.674C565.17 357.89 564.396 358.167 563.647 358.504C561.99 359.346 560.863 360.946 559.371 362.055C557.944 363.117 556.227 363.7 554.54 364.266C554.044 364.704 554.272 365.587 554.811 365.971C555.39 366.3 556.054 366.449 556.718 366.4C558.47 366.438 560.315 366.455 561.85 365.61C562.715 365.05 563.524 364.408 564.266 363.694C566.06 362.199 568.215 361.212 570.348 360.259C571.124 359.966 571.842 359.537 572.468 358.993C573.808 357.674 573.902 355.639 571.97 355.19C570.408 354.827 567.449 357.194 565.963 357.674Z" fill="#3F3D56"/>
<path d="M582.793 346.692C582.88 345.784 582.759 344.869 582.44 344.015C582.121 343.161 581.611 342.39 580.95 341.762C580.931 343.577 580.875 345.512 579.853 347.013C579.125 348.083 577.982 348.806 577.184 349.825C576.386 350.844 576.032 352.46 576.968 353.354C577.566 353.809 578.295 354.059 579.047 354.069C580.911 354.288 583.068 354.41 584.375 353.066C585.088 352.332 585.435 351.244 586.305 350.705C586.629 350.569 586.918 350.362 587.152 350.099C587.511 349.529 586.94 348.777 586.298 348.571C585.655 348.366 584.947 348.462 584.301 348.267C583.656 348.072 583.063 347.347 583.395 346.76" fill="#3F3D56"/>
<path d="M552.88 280.116C551.902 280.354 550.89 280.413 549.891 280.292C548.232 279.988 546.941 278.739 545.601 277.714C542.417 275.293 538.547 273.942 534.546 273.856C530.907 273.787 527.233 274.772 523.659 274.085C523.892 275.383 525.004 276.356 526.19 276.934C527.376 277.513 528.685 277.804 529.876 278.37C531.785 279.287 533.298 280.86 534.14 282.801C534.523 283.696 534.765 284.67 535.346 285.451C536.535 287.048 538.787 287.399 540.775 287.269C543.366 287.098 546.073 286.354 548.484 287.318C550.329 288.056 551.649 289.669 553.189 290.923C554.729 292.176 556.898 293.107 558.666 292.202C556.83 291.608 555.231 290.443 554.104 288.878C552.976 287.312 552.38 285.427 552.401 283.498C554.135 283.658 559.131 283.596 558.862 280.652C558.634 278.157 554.369 279.847 552.88 280.116Z" fill="#3F3D56"/>
<path d="M530.19 300.415C530.498 298.728 532.182 297.238 531.658 295.605C531.295 294.476 529.984 293.918 528.797 293.89C527.61 293.862 526.444 294.216 525.257 294.249C524.485 294.208 523.71 294.219 522.939 294.282C520.583 294.669 519.131 297.135 516.911 298.012C515.561 298.546 514.044 298.444 512.64 298.813C509.452 299.649 507.436 302.658 505.208 305.084C501.608 308.985 496.918 311.718 491.746 312.926C489.933 313.345 487.985 313.613 486.545 314.789C484.637 316.346 484.168 319.015 483.743 321.439C482.571 328.133 480.779 334.704 478.391 341.067L485.959 342.032C487.398 342.216 488.889 342.395 490.275 341.97C491.283 341.59 492.237 341.082 493.114 340.459C496.485 338.369 500.257 337.008 504.187 336.466C506.169 336.194 508.247 336.145 510.107 336.881C511.967 337.616 513.562 339.285 513.718 341.277C514.523 341.027 515.38 341 516.198 341.199C517.017 341.398 517.766 341.815 518.365 342.406C519.55 343.612 520.326 345.16 520.584 346.83C520.783 347.865 520.983 349.104 521.943 349.538C522.727 349.892 523.626 349.51 524.484 349.442C527.393 349.209 529.808 352.598 532.668 352.015C535.735 351.389 536.488 346.8 539.48 345.881C541.199 345.353 543.61 345.995 544.433 344.398C545.158 342.991 543.711 341.367 543.86 339.791C544.044 337.85 546.335 337.026 548.102 336.198C554.192 333.344 557.082 325.155 554.131 319.116C552.383 315.538 548.942 312.722 548.307 308.791C547.818 305.767 549.011 302.24 547.081 299.859C546.099 298.648 544.436 297.98 543.852 296.535C543.484 295.626 543.632 294.594 543.434 293.633C543.236 292.672 542.397 291.667 541.447 291.916C538.69 292.639 537.81 301.147 536.334 303.214C534.09 306.357 529.483 304.287 530.19 300.415Z" fill="#3F3D56"/>
<path d="M479.228 283.331C478.286 283.067 477.257 282.807 476.354 283.184C475.451 283.561 474.924 284.885 475.648 285.542C481.317 285.322 487.02 285.103 492.641 285.872C499.116 286.758 505.525 288.952 512.029 288.306C508.313 287.212 504.537 286.336 500.719 285.685L494.351 284.47C492.643 284.113 490.917 283.846 489.181 283.672C485.549 283.372 482.799 284.331 479.228 283.331Z" fill="#3F3D56"/>
<path d="M484.903 263.61C484.432 263.571 483.849 263.537 483.606 263.941C483.373 264.327 483.639 264.837 483.514 265.27C483.343 265.862 482.568 266.013 481.957 265.933C481.346 265.852 480.685 265.659 480.143 265.954C479.869 266.141 479.663 266.412 479.555 266.727C479.448 267.041 479.446 267.382 479.549 267.697C479.771 268.324 480.129 268.894 480.597 269.366C481.398 270.374 482.31 271.288 483.317 272.091C485.265 273.528 487.904 274.22 489.131 276.305C489.305 276.709 489.571 277.067 489.908 277.349C490.497 277.722 491.265 277.438 491.9 277.149L494.123 276.134C494.523 275.99 494.881 275.747 495.162 275.428C495.67 274.74 495.358 273.761 494.932 273.019C494.505 272.278 493.96 271.51 494.051 270.66C494.214 269.144 496.166 268.564 496.968 267.267C497.777 265.96 497.25 264.275 497.343 262.741C497.453 260.946 498.581 258.613 496.765 257.272C495.222 256.133 493.747 257.186 492.639 258.443C490.303 261.096 489.198 263.968 484.903 263.61Z" fill="#3F3D56"/>
<path d="M498.397 236.802C499.156 238.254 500.738 239.12 501.566 240.534C502.463 242.067 502.361 244.046 503.334 245.532C504.333 247.056 506.342 247.865 506.902 249.598C507.514 251.49 506.127 253.79 507.232 255.444C507.438 255.714 507.699 255.938 507.996 256.103C508.294 256.267 508.622 256.368 508.961 256.4C509.3 256.431 509.641 256.391 509.964 256.283C510.287 256.176 510.584 256.002 510.836 255.774C511.302 255.267 511.551 254.598 511.531 253.91C511.511 253.222 511.222 252.569 510.727 252.09C510.072 251.494 509.132 251.237 508.585 250.54C508.301 250.138 508.111 249.677 508.031 249.191C507.733 247.79 507.78 246.337 508.17 244.959C508.316 244.609 508.353 244.223 508.276 243.852C508.03 243.137 507.062 243.087 506.382 242.755C504.838 242.002 504.875 239.826 505.145 238.131C504.966 239.259 500.942 237.34 500.52 236.701C499.683 235.431 500.139 232.982 499.973 231.579C498.166 232.449 497.469 235.028 498.397 236.802Z" fill="#3F3D56"/>
<path d="M457.86 259.138C457.117 258.308 455.999 257.439 455.003 257.94C454.243 258.322 454.034 259.372 454.332 260.168C454.695 260.941 455.253 261.606 455.952 262.097C458.027 263.806 460.262 265.349 462.072 267.336C465.311 270.893 467.027 275.691 470.55 278.967C471.259 279.727 472.196 280.233 473.22 280.41C474.247 280.506 475.399 279.849 475.517 278.826C475.614 277.984 475.026 277.229 474.452 276.605C473.083 275.118 471.585 273.749 470.293 272.196C469.696 271.599 469.321 270.816 469.23 269.978C469.223 269.141 469.987 268.266 470.798 268.473C469.811 268.221 469.079 266.578 467.631 266.27C466.421 266.012 466.128 266.76 464.687 266.143C461.94 264.966 459.784 261.29 457.86 259.138Z" fill="#3F3D56"/>
<path d="M522.419 178.272C521.631 178.038 520.856 177.761 520.098 177.444C518.058 176.832 515.359 178.33 515.631 180.44C515.811 181.842 517.118 182.787 517.839 184.004C518.909 185.807 518.624 188.095 518.062 190.114C517.924 190.74 517.661 191.331 517.29 191.853C516.771 192.404 516.15 192.85 515.462 193.166C512.707 194.71 510.277 196.771 508.307 199.238C508.093 199.466 507.944 199.746 507.875 200.051C507.778 200.764 508.495 201.283 508.9 201.877C509.801 203.197 509.15 204.973 509.239 206.568C509.225 206.794 509.27 207.019 509.367 207.222C509.465 207.426 509.614 207.601 509.798 207.732C510.341 208.007 510.984 207.539 511.278 207.007C512.255 205.24 511.519 202.405 513.35 201.553C513.697 201.392 514.117 201.324 514.348 201.02C514.714 200.538 514.361 199.824 514.547 199.247C514.826 198.382 516.01 198.343 516.92 198.382C518.486 198.447 520.052 198.239 521.546 197.766C522.133 197.627 522.665 197.319 523.078 196.88C523.625 196.198 523.577 195.228 523.468 194.36C522.92 190.034 521.548 185.854 519.427 182.043C521.035 182.248 522.785 182.426 524.173 181.589C524.951 181.12 525.883 179.718 525.497 178.763C524.888 177.254 523.786 178.524 522.419 178.272Z" fill="#3F3D56"/>
<path d="M316.197 202.062C316.39 203.093 316.579 204.179 316.241 205.172C315.902 206.165 314.838 206.995 313.833 206.691C313.053 206.455 312.602 205.671 312.048 205.074C308.968 201.752 302.018 203.675 300.116 199.566C299.339 197.889 299.867 195.879 299.337 194.109C299.003 193.085 298.338 192.202 297.447 191.597C296.555 190.992 295.488 190.7 294.413 190.767C293.432 190.909 292.477 191.193 291.579 191.612C285.563 194.019 279.247 195.597 272.804 196.303C271.58 196.377 270.369 196.597 269.197 196.958C266.552 197.916 264.744 200.366 263.458 202.866C262.172 205.366 261.222 208.072 259.498 210.293C257.685 212.627 255.146 214.261 252.777 216.029C251.864 216.617 251.104 217.412 250.56 218.35C250.046 219.404 250.075 220.629 250.115 221.8L250.599 236.02C250.661 237.849 250.739 239.744 251.559 241.381C252.582 243.425 254.604 244.764 256.007 246.569C257.438 248.425 258.184 250.718 258.117 253.059C258.087 254.001 257.994 255.114 258.728 255.705C259.174 255.995 259.697 256.145 260.229 256.137L279.486 257.711C282.874 257.988 286.628 258.443 288.84 261.021C289.883 262.238 290.722 263.988 292.321 264.118C293.006 264.174 293.674 263.893 294.36 263.839C296.09 263.702 297.61 265.014 298.57 266.459C300.022 268.662 300.681 271.292 300.439 273.918C300.282 275.567 299.77 277.17 299.66 278.822C299.24 285.109 304.576 290.571 304.679 296.871C304.74 300.577 302.979 304.04 301.262 307.325C304.033 311.519 301.764 317.103 302.867 322.006C303.914 326.657 307.796 330.298 308.763 334.966C309.206 337.103 309.232 339.733 311.118 340.834C311.946 341.237 312.864 341.42 313.783 341.367C319.328 341.432 324.81 340.186 329.781 337.729C332.114 336.572 334.531 334.846 334.939 332.277C335.267 330.205 334.215 327.887 335.286 326.082C336.547 323.955 339.78 324.124 341.636 322.488C344.647 319.835 342.299 314.775 343.519 310.954C344.616 307.519 348.392 305.694 350.263 302.611C351 301.285 351.528 299.854 351.83 298.368C352.688 294.817 353.221 291.195 353.425 287.547C353.475 285.331 353.638 283.118 353.915 280.919C355.933 268.397 368.326 260.011 372.35 247.982C372.734 246.833 372.914 245.302 371.891 244.652C371.284 244.363 370.596 244.291 369.943 244.449L361.065 245.567C359.963 245.705 358.794 245.835 357.781 245.378C356.769 244.92 356.043 243.641 356.58 242.669C358.088 239.941 354.987 236.493 353.609 233.697C349.898 226.169 345.479 219.011 340.411 212.318C340.087 211.974 339.884 211.533 339.833 211.063L342.352 211.147C341.502 208.098 340.098 204.763 337.133 203.647C335.463 203.019 333.613 203.236 331.83 203.334C326.724 203.612 321.251 202.842 316.197 202.062Z" fill="#3F3D56"/>
<path d="M331.834 133.365C333.17 134.782 334.667 136.284 336.6 136.531C340.015 136.968 342.469 133.441 344.032 130.377C344.09 131.158 344.451 131.886 345.037 132.406C345.624 132.925 346.39 133.196 347.174 133.159C348.016 133.018 348.821 132.704 349.536 132.237C356.301 128.544 363.878 126.587 371.587 126.542C371.513 125.959 371.658 125.369 371.994 124.886C372.33 124.403 372.833 124.062 373.406 123.927C374.973 123.617 376.385 124.971 377.141 126.377C377.897 127.783 378.369 129.413 379.57 130.465C380.771 131.518 383.097 131.472 383.571 129.948C384.027 128.484 382.501 127.237 381.233 126.374C379.965 125.511 378.629 123.915 379.483 122.642C385.96 121.209 392.477 119.772 399.105 119.487C400.233 119.526 401.358 119.333 402.408 118.919C403.419 118.423 404.222 117.298 403.95 116.207C402.504 116.547 400.989 116.448 399.599 115.924C398.209 115.401 397.006 114.475 396.145 113.266C405.341 112.508 415.123 111.862 423.273 116.184C424.251 118.282 419.267 120.027 420.6 121.918C421.026 122.522 421.878 122.592 422.617 122.606C428.28 122.711 433.977 122.814 439.577 121.96C441.623 121.648 443.69 121.207 445.745 121.46C449.167 121.882 452.094 124.163 455.46 124.906C456.831 125.209 458.367 125.219 459.522 124.423C460.677 123.627 461.174 121.814 460.227 120.779C463.397 117.676 468.658 118.445 472.84 119.931C477.022 121.417 480.984 123.813 485.41 124.144C488.584 124.381 491.802 123.528 494.938 124.071C496.909 124.411 498.743 125.287 500.669 125.825C504.312 126.843 508.166 126.628 511.949 126.677C521.6 126.807 531.145 128.701 540.113 132.267C541.279 132.647 542.348 133.277 543.244 134.115C544.078 135.008 544.504 136.395 543.943 137.48L534.676 136.127C535.549 137.844 537.808 138.137 539.642 138.729C541.477 139.321 543.379 141.345 542.276 142.924C540.289 142.292 538.488 144.277 537.484 146.104C536.48 147.93 535.256 150.117 533.174 150.228C531.309 150.328 529.053 148.742 527.837 150.158C529.517 152.274 530.955 154.571 532.125 157.006C533.326 159.505 534.182 162.655 532.558 164.904C532.303 165.305 531.916 165.605 531.463 165.752C530.137 166.088 529.276 164.467 528.325 163.486C527.127 162.248 525.315 161.898 523.692 161.317C522.07 160.737 520.361 159.595 520.234 157.878C520.155 156.81 520.719 155.817 521.135 154.83C521.834 153.166 522.14 151.364 522.028 149.562C521.937 148.113 521.531 146.606 520.489 145.594C519.447 144.581 517.648 144.26 516.53 145.187C516.008 145.62 515.59 146.312 514.912 146.338C513.715 146.384 512.795 144.298 511.832 145.01C511.945 145.769 511.788 146.543 511.387 147.197C508.513 149.694 504.096 148.638 500.39 149.52C498.628 150.024 496.94 150.76 495.373 151.709C494.786 151.959 494.287 152.378 493.939 152.911C493.476 153.809 493.986 154.96 494.801 155.557C495.666 156.086 496.638 156.418 497.646 156.527C502.165 157.381 506.749 158.705 510.316 161.604C513.883 164.503 516.222 169.295 515.094 173.748L506.183 165.243C506.522 168.814 506.714 172.395 506.76 175.985C506.817 176.686 506.721 177.391 506.477 178.051C505.842 179.453 504.12 179.925 502.612 180.234C502.192 180.314 501.794 180.481 501.444 180.725C501.094 180.969 500.799 181.285 500.58 181.651C500.36 182.017 500.221 182.425 500.17 182.849C500.12 183.272 500.16 183.702 500.287 184.109C500.823 185.854 502.16 187.215 503.384 188.571C504.607 189.926 505.812 191.467 505.972 193.286C506.132 195.104 504.758 197.154 502.935 197.027C501.553 196.932 500.528 195.696 499.939 194.443C499.349 193.191 498.998 191.796 498.113 190.732C495.432 187.511 489.41 188.891 487.009 185.458C486.396 186.151 485.972 186.99 485.775 187.893C485.579 188.797 485.617 189.736 485.886 190.621C487.003 189.922 488.532 190.571 489.372 191.586C490.211 192.601 490.607 193.903 491.266 195.043C492.156 196.582 493.572 197.946 493.696 199.718C493.663 200.388 493.674 201.06 493.73 201.729C493.95 202.803 494.859 203.574 495.489 204.472C496.955 206.56 496.883 209.43 495.938 211.799C494.993 214.169 493.295 216.15 491.614 218.07C488.677 221.423 485.68 224.757 482.198 227.541C481.205 228.336 480.144 229.117 479.526 230.228C478.907 231.339 478.875 232.899 479.826 233.744C479.146 233.778 477.926 234.112 477.245 234.146C477.006 231.42 476.954 228.68 477.09 225.947C474.405 224.659 471.514 228.108 471.86 231.063C472.207 234.018 474.346 236.389 475.87 238.946C476.984 240.815 477.811 242.995 477.44 245.139C477.068 247.282 475.152 249.26 472.982 249.071C469.531 248.77 468.087 243.821 464.67 243.255C464.368 243.184 464.052 243.215 463.77 243.344C463.263 243.622 463.175 244.3 463.146 244.877C463.006 247.711 462.885 250.658 463.993 253.27C465.613 257.092 469.798 260.303 468.92 264.36C464.191 262.164 461.732 256.866 460.615 251.776C459.499 246.687 459.313 241.345 457.311 236.534C455.792 238.48 452.597 236.871 451.209 234.83C449.893 232.895 449.082 230.656 447.805 228.695C446.528 226.734 444.571 224.978 442.232 224.87C439.779 224.757 437.651 226.438 435.78 228.027C434.242 229.334 432.662 230.692 431.763 232.498C430.454 235.126 430.797 238.224 430.733 241.159C430.665 244.331 429.992 247.678 427.828 250.001C425.663 252.323 421.668 253.132 419.28 251.039C418.033 249.946 417.43 248.314 416.892 246.747C414.301 239.192 412.143 231.496 410.429 223.696C410.027 225.476 408.462 227.771 406.967 226.722C406.632 226.44 406.36 226.091 406.17 225.696C403.381 220.975 398.217 218.143 392.999 216.445C387.781 214.747 382.291 213.955 377.131 212.089C374.239 211.042 371.478 209.668 368.9 207.993C368.243 208.957 367.859 210.081 367.789 211.246C367.72 212.41 367.967 213.572 368.504 214.608C369.649 216.632 372.239 217.804 374.456 217.096C375.602 216.73 376.569 215.936 377.706 215.543C378.843 215.151 380.369 215.344 380.866 216.438C381.342 217.485 380.623 218.752 380.98 219.845C381.523 221.511 384.038 221.639 384.917 223.155C385.571 224.282 385.033 225.78 384.099 226.689C383.165 227.599 381.918 228.098 380.778 228.732C377.078 230.787 374.447 234.295 371.214 237.024C367.981 239.754 363.419 241.747 359.565 239.996C360.484 235.35 354.943 231.939 353.924 227.314C353.589 225.791 353.762 224.174 353.284 222.691C352.59 220.543 350.682 219.066 349.117 217.438C347.219 215.443 345.74 213.087 344.768 210.512C343.796 207.936 343.35 205.191 343.457 202.441C343.542 200.529 343.893 198.587 343.457 196.724C343.021 194.86 341.477 193.057 339.564 193.142C335.193 193.334 329.687 193.659 327.394 189.937C326.576 188.609 326.219 186.664 327.403 185.646C328.237 184.928 329.47 184.996 330.566 185.104L340.413 186.071C342.716 186.298 345.206 186.484 347.183 185.282C349.159 184.079 350.015 180.886 348.185 179.471C346.848 178.437 344.452 178.493 344.064 176.849C343.74 175.48 345.257 173.927 344.438 172.783C343.85 171.962 342.529 172.19 341.729 172.805C340.929 173.42 340.348 174.319 339.452 174.785C337.881 175.602 336.003 174.824 334.313 174.296C332.622 173.768 330.356 173.723 329.536 175.291C328.619 177.045 330.349 179.344 329.439 181.102C328.236 183.425 324.161 182.103 322.471 184.101C320.532 186.395 323.79 189.816 323.136 192.746C322.301 193.159 321.374 193.349 320.443 193.296C319.513 193.244 318.612 192.952 317.829 192.448C317.059 191.925 316.445 191.202 316.052 190.358C315.66 189.514 315.504 188.579 315.601 187.653C315.763 186.335 316.451 184.99 315.99 183.744C315.617 182.737 314.605 182.137 313.664 181.618L304.095 176.335C303.206 177.982 304.329 180.023 305.734 181.259C307.139 182.496 308.898 183.427 309.821 185.055C310.405 186.182 310.536 187.49 310.187 188.711C309.838 189.931 309.036 190.973 307.945 191.623C307.808 191.717 307.652 191.781 307.488 191.809C307.325 191.838 307.157 191.83 306.996 191.788C306.843 191.698 306.71 191.579 306.605 191.437C306.499 191.295 306.423 191.133 306.381 190.962C304.692 186.645 302.157 182.39 298.105 180.135C294.052 177.88 288.228 178.344 285.57 182.142C284.939 183.044 284.515 184.073 283.965 185.026C281.044 190.094 274.78 192.493 268.928 192.337C268.356 192.368 267.786 192.235 267.288 191.952C266.342 191.299 266.385 189.915 266.529 188.775L267.144 183.942C267.267 182.971 267.446 181.898 268.215 181.292C269.299 180.438 270.863 180.977 272.244 180.957C273.289 180.909 274.295 180.54 275.124 179.9C275.953 179.261 276.565 178.383 276.878 177.385C277.157 176.377 277.155 175.312 276.872 174.305C276.59 173.297 276.038 172.386 275.276 171.669C274.643 171.076 273.794 170.33 274.128 169.529C274.261 169.308 274.442 169.119 274.656 168.974C274.871 168.83 275.114 168.734 275.37 168.694C277.85 167.975 280.47 167.786 282.909 166.937C285.347 166.089 287.712 164.352 288.289 161.838C288.466 161.067 288.547 160.134 289.24 159.752C289.588 159.605 289.961 159.529 290.338 159.528C291.66 159.34 292.864 158.664 293.713 157.634C294.561 156.604 294.993 155.294 294.923 153.962C296.091 153.146 297.729 153.746 298.859 154.614C299.99 155.482 300.988 156.628 302.364 157.002C304.927 157.699 307.405 155.432 310.062 155.421C311.179 155.417 312.336 155.811 313.387 155.433C314.453 155.049 315.089 153.99 315.907 153.207C316.725 152.424 318.16 151.946 318.915 152.79L318.272 148.031C319.567 148.358 320.917 148.405 322.232 148.167C323.546 147.93 324.795 147.414 325.893 146.655L317.582 143.85C317.292 143.778 317.025 143.635 316.805 143.435C316.2 142.785 316.8 141.772 317.292 141.033C318.467 139.266 318.665 136.354 316.732 135.474C315.412 134.873 313.898 135.594 312.631 136.3L306.565 139.679C306.372 140.83 307.782 141.483 308.656 142.259C309.185 142.729 309.559 143.347 309.729 144.032C309.9 144.718 309.859 145.439 309.612 146.101C309.364 146.763 308.922 147.335 308.344 147.742C307.765 148.148 307.077 148.37 306.37 148.379C306.769 148.898 307.047 149.499 307.182 150.14C307.317 150.78 307.306 151.443 307.15 152.079L303.068 152.372C302.61 152.464 302.134 152.371 301.745 152.114C301.308 151.726 301.367 151.048 301.266 150.473C301.022 149.087 299.663 148.115 298.276 147.866C296.889 147.617 295.47 147.936 294.097 148.252C293.514 148.461 292.873 148.447 292.3 148.21C291.972 147.997 291.722 147.683 291.59 147.314C290.988 145.856 291.55 144.142 292.517 142.895C293.484 141.648 294.808 140.736 295.997 139.698C298.84 137.206 300.929 133.97 302.028 130.354C304.275 129.414 306.601 128.136 308.848 127.196C312.312 125.444 316.197 124.692 320.065 125.025L327.675 125.17C329.927 125.213 332.241 125.268 334.324 126.126C336.408 126.984 338.238 128.839 338.382 131.086C338.425 131.34 338.403 131.601 338.318 131.844C338.233 132.088 338.087 132.306 337.894 132.478C337.6 132.638 337.267 132.713 336.932 132.694C334.831 132.768 333.935 133.291 331.834 133.365Z" fill="#3F3D56"/>
<path d="M271.183 157.187C271.48 156.905 271.694 156.548 271.801 156.153C271.908 155.759 271.904 155.342 271.79 154.95C271.067 154.671 270.28 154.599 269.518 154.743C268.756 154.887 268.049 155.24 267.477 155.763C267.026 156.219 266.638 156.732 266.322 157.289C265.322 158.918 264.438 160.865 265.017 162.686C265.064 162.885 265.151 163.072 265.271 163.237C265.392 163.402 265.544 163.541 265.72 163.646C265.979 163.75 266.259 163.794 266.538 163.774C267.64 163.773 268.74 163.705 269.834 163.572C270.505 163.49 271.285 163.3 271.545 162.676C271.886 161.856 271.06 160.928 271.301 160.073C271.459 159.69 271.699 159.347 272.004 159.067C272.155 158.926 272.271 158.751 272.343 158.557C272.415 158.364 272.441 158.156 272.419 157.95C272.321 157.549 271.706 157.321 271.485 157.67" fill="#3F3D56"/>
<path d="M276.894 149.789C275.916 149.565 274.907 149.502 273.908 149.602C273.687 149.595 273.468 149.645 273.272 149.746C273.082 149.887 272.944 150.086 272.88 150.314C272.669 150.99 272.721 151.721 273.025 152.361C273.329 153.001 273.864 153.503 274.522 153.767C274.881 153.849 275.225 153.987 275.541 154.176C276.385 154.83 275.847 156.168 276.007 157.224C276.186 158.41 277.335 159.405 277.125 160.585C276.959 161.515 275.964 162.252 276.124 163.183C276.292 164.158 277.531 164.451 278.518 164.529C279.09 164.629 279.679 164.562 280.214 164.335C280.75 163.969 281.131 163.417 281.284 162.787C281.688 161.585 281.858 160.317 281.784 159.051C281.78 158.475 281.635 157.909 281.363 157.402C281.065 157 280.736 156.623 280.377 156.275C278.486 154.077 280.477 150.798 276.894 149.789Z" fill="#3F3D56"/>
<path opacity="0.8" d="M525.656 321.981C525.656 321.981 380.767 238.902 318.39 254.643C318.39 254.643 186.195 268.854 170.874 300.118C170.874 300.118 128.852 168.941 113.531 164.569" stroke="#2F80ED" stroke-width="2" stroke-miterlimit="10"/>
<path opacity="0.8" d="M170.874 300.118C195.169 235.404 414.035 163.694 414.035 163.694C382.956 171.565 318.39 254.643 318.39 254.643C318.39 254.643 181.818 155.386 113.531 164.569C113.531 164.569 414.253 174.407 525.656 321.981" stroke="#2F80ED" stroke-width="2" stroke-miterlimit="10"/>
<path d="M113.531 170.909C117.037 170.909 119.879 168.07 119.879 164.569C119.879 161.067 117.037 158.228 113.531 158.228C110.026 158.228 107.184 161.067 107.184 164.569C107.184 168.07 110.026 170.909 113.531 170.909Z" fill="#2F80ED"/>
<path d="M170.874 306.458C174.38 306.458 177.222 303.619 177.222 300.118C177.222 296.616 174.38 293.778 170.874 293.778C167.369 293.778 164.527 296.616 164.527 300.118C164.527 303.619 167.369 306.458 170.874 306.458Z" fill="#2F80ED"/>
<path d="M414.035 170.034C417.54 170.034 420.382 167.196 420.382 163.694C420.382 160.192 417.54 157.354 414.035 157.354C410.529 157.354 407.688 160.192 407.688 163.694C407.688 167.196 410.529 170.034 414.035 170.034Z" fill="#2F80ED"/>
<path d="M525.656 328.321C529.162 328.321 532.003 325.482 532.003 321.981C532.003 318.479 529.162 315.64 525.656 315.64C522.151 315.64 519.309 318.479 519.309 321.981C519.309 325.482 522.151 328.321 525.656 328.321Z" fill="#2F80ED"/>
<path d="M318.39 260.983C321.895 260.983 324.737 258.145 324.737 254.643C324.737 251.142 321.895 248.303 318.39 248.303C314.885 248.303 312.043 251.142 312.043 254.643C312.043 258.145 314.885 260.983 318.39 260.983Z" fill="#2F80ED"/>
<path d="M132.5 288C136.642 288 140 285.09 140 281.5C140 277.91 136.642 275 132.5 275C128.358 275 125 277.91 125 281.5C125 285.09 128.358 288 132.5 288Z" fill="#2F2E41"/>
<path d="M134.399 275.012C135.596 275.012 136.772 275.316 137.813 275.895C138.854 276.474 139.723 277.307 140.337 278.314C140.95 279.32 141.287 280.465 141.313 281.637C141.339 282.809 141.055 283.968 140.487 285C141.086 284.265 141.523 283.416 141.769 282.507C142.015 281.598 142.065 280.648 141.916 279.719C141.767 278.79 141.421 277.902 140.902 277.11C140.383 276.319 139.701 275.642 138.9 275.124C138.099 274.605 137.197 274.255 136.25 274.097C135.303 273.938 134.333 273.975 133.402 274.204C132.471 274.433 131.598 274.85 130.84 275.427C130.082 276.005 129.456 276.731 129 277.559C129.646 276.764 130.468 276.122 131.402 275.681C132.337 275.24 133.362 275.011 134.399 275.012Z" fill="#2F2E41"/>
<path d="M118.5 282C130.374 282 140 272.374 140 260.5C140 248.626 130.374 239 118.5 239C106.626 239 97 248.626 97 260.5C97 272.374 106.626 282 118.5 282Z" fill="#2F2E41"/>
<path d="M101.643 246.96C105.418 242.908 110.694 240.414 116.357 240.005C122.021 239.595 127.63 241.303 132 244.768C131.821 244.605 131.644 244.441 131.458 244.283C127.116 240.598 121.419 238.711 115.619 239.036C109.82 239.361 104.393 241.873 100.534 246.018C96.6739 250.164 94.6969 255.603 95.0378 261.14C95.3786 266.677 98.0093 271.857 102.351 275.542C102.537 275.7 102.728 275.849 102.918 276C98.803 272.262 96.3696 267.144 96.1317 261.726C95.8938 256.308 97.8701 251.014 101.643 246.96Z" fill="#2F2E41"/>
<path d="M119 282C126.732 282 133 275.732 133 268C133 260.268 126.732 254 119 254C111.268 254 105 260.268 105 268C105 275.732 111.268 282 119 282Z" fill="#A0616A"/>
<path d="M110.295 272C110.295 272 111.996 288.794 109.275 290.619C106.554 292.444 124.919 295 124.919 295C124.919 295 122.198 276.746 129 272L110.295 272Z" fill="#A0616A"/>
<path d="M126.349 287.269C126.349 287.269 131.624 284.697 124.026 285.613C116.429 286.529 109.873 283.016 109.873 283.016C109.873 283.016 107.571 280.612 107.217 283.201C106.863 285.789 108.28 290.597 100.486 291.337C92.6914 292.077 85.6057 289.858 82.7714 295.405C79.9371 300.953 81.3543 324.992 81.3543 324.992C81.3543 324.992 86.6686 344.963 90.92 347.922C95.1714 350.88 132.371 346.812 132.371 346.812L143 326.841V303.542C143 303.542 141.583 295.405 131.663 297.624C131.663 297.624 125.286 296.145 125.64 292.816C125.994 289.488 126.349 287.269 126.349 287.269Z" fill="#EB5757"/>
<path d="M89 290.97C89 290.97 93.2581 298.248 91.7097 307.344C90.1613 316.441 96.3548 339 96.3548 339L101 337.908C101 337.908 97.9032 318.988 98.6774 314.621C99.4516 310.255 99.4516 293.153 95.5807 290.97C91.7097 288.787 89 290.97 89 290.97Z" fill="#2F2E41"/>
<path d="M132.002 298.095L133.299 338.189L135.768 340C135.768 340 139.316 296 137.465 296H133.698C133.468 296 133.24 296.055 133.028 296.162C132.816 296.268 132.626 296.424 132.467 296.62C132.308 296.816 132.185 297.048 132.105 297.301C132.026 297.555 131.99 297.825 132.002 298.095Z" fill="#2F2E41"/>
<path d="M107 250V265H110.2L114.273 260.263L113.727 265H127.873L127 260.263L128.746 265H131V250H107Z" fill="#2F2E41"/>
<path d="M104.5 267C105.328 267 106 266.105 106 265C106 263.895 105.328 263 104.5 263C103.672 263 103 263.895 103 265C103 266.105 103.672 267 104.5 267Z" fill="#A0616A"/>
<path d="M133 267C133.552 267 134 266.105 134 265C134 263.895 133.552 263 133 263C132.448 263 132 263.895 132 265C132 266.105 132.448 267 133 267Z" fill="#A0616A"/>
<path d="M139.56 300C139.56 300 179.417 332.328 172.104 340.131C164.791 347.935 137 345.705 137 345.705L138.828 336.416L154.918 334.558L146.873 326.383L139.56 327.126V300Z" fill="#EB5757"/>
<path d="M87 295L81.9214 296.526C81.9214 296.526 46.6249 322.595 45.1699 329.857C43.715 337.119 52.081 341.113 52.081 341.113L83.7263 356L87 347.286L72.0867 339.661C72.0867 339.661 73.1779 337.482 68.813 337.119C64.4481 336.756 63.7207 332.036 63.7207 332.036C63.7207 332.036 72.4504 318.601 77.179 321.506C81.9076 324.411 83.3626 326.589 83.3626 326.589L87 295Z" fill="#EB5757"/>
<path d="M159 362.242V363.412C159.001 363.733 158.939 364.051 158.817 364.35C158.763 364.484 158.698 364.612 158.623 364.736C158.384 365.121 158.044 365.44 157.638 365.662C157.232 365.884 156.772 366 156.305 366H66.695C66.2277 366 65.7684 365.884 65.3621 365.662C64.9558 365.44 64.6164 365.121 64.3773 364.736C64.3016 364.612 64.2365 364.484 64.1826 364.35C64.0613 364.051 63.9993 363.733 64 363.412V362.242C63.9999 361.902 64.0696 361.565 64.205 361.251C64.3404 360.937 64.5389 360.652 64.7892 360.411C65.0394 360.171 65.3366 359.98 65.6636 359.85C65.9906 359.72 66.3411 359.653 66.695 359.653H71.8603V359.108C71.8603 359.094 71.8632 359.08 71.8688 359.067C71.8745 359.053 71.8827 359.042 71.8932 359.032C71.9036 359.022 71.916 359.014 71.9297 359.008C71.9433 359.003 71.9579 359 71.9727 359H74.6677C74.6825 359 74.6971 359.003 74.7107 359.008C74.7244 359.014 74.7368 359.022 74.7472 359.032C74.7577 359.042 74.7659 359.053 74.7716 359.067C74.7772 359.08 74.7801 359.094 74.7801 359.108V359.653H76.4637V359.108C76.4637 359.094 76.4666 359.08 76.4722 359.067C76.4779 359.053 76.4861 359.042 76.4966 359.032C76.507 359.022 76.5194 359.014 76.5331 359.008C76.5467 359.003 76.5613 359 76.5761 359H79.2711C79.2859 359 79.3005 359.003 79.3142 359.008C79.3278 359.014 79.3402 359.022 79.3506 359.032C79.3611 359.042 79.3693 359.053 79.375 359.067C79.3806 359.08 79.3835 359.094 79.3835 359.108V359.653H81.0692V359.108C81.0691 359.094 81.072 359.08 81.0777 359.067C81.0833 359.053 81.0916 359.042 81.102 359.032C81.1125 359.022 81.1249 359.014 81.1385 359.008C81.1521 359.003 81.1668 359 81.1815 359H83.8766C83.8913 359 83.9059 359.003 83.9196 359.008C83.9332 359.014 83.9456 359.022 83.9561 359.032C83.9665 359.042 83.9748 359.053 83.9804 359.067C83.9861 359.08 83.989 359.094 83.9889 359.108V359.653H85.6726V359.108C85.6725 359.094 85.6754 359.08 85.6811 359.067C85.6867 359.053 85.695 359.042 85.7054 359.032C85.7159 359.022 85.7283 359.014 85.7419 359.008C85.7556 359.003 85.7702 359 85.7849 359H88.48C88.4947 359 88.5094 359.003 88.523 359.008C88.5366 359.014 88.549 359.022 88.5595 359.032C88.5699 359.042 88.5782 359.053 88.5838 359.067C88.5895 359.08 88.5924 359.094 88.5923 359.108V359.653H90.276V359.108C90.276 359.094 90.2788 359.08 90.2845 359.067C90.2901 359.053 90.2984 359.042 90.3088 359.032C90.3193 359.022 90.3317 359.014 90.3453 359.008C90.359 359.003 90.3736 359 90.3884 359H93.0834C93.0981 359 93.1128 359.003 93.1264 359.008C93.14 359.014 93.1524 359.022 93.1629 359.032C93.1733 359.042 93.1816 359.053 93.1872 359.067C93.1929 359.08 93.1958 359.094 93.1957 359.108V359.653H94.8814V359.108C94.8813 359.094 94.8842 359.08 94.8899 359.067C94.8955 359.053 94.9038 359.042 94.9142 359.032C94.9247 359.022 94.9371 359.014 94.9507 359.008C94.9643 359.003 94.979 359 94.9937 359H97.6888C97.7036 359 97.7182 359.003 97.7318 359.008C97.7455 359.014 97.7579 359.022 97.7683 359.032C97.7787 359.042 97.787 359.053 97.7927 359.067C97.7983 359.08 97.8012 359.094 97.8012 359.108V359.653H99.4848V359.108C99.4848 359.094 99.4877 359.08 99.4933 359.067C99.4989 359.053 99.5072 359.042 99.5177 359.032C99.5281 359.022 99.5405 359.014 99.5541 359.008C99.5678 359.003 99.5824 359 99.5972 359H120.708C120.723 359 120.737 359.003 120.751 359.008C120.765 359.014 120.777 359.022 120.787 359.032C120.798 359.042 120.806 359.053 120.812 359.067C120.817 359.08 120.82 359.094 120.82 359.108V359.653H122.506V359.108C122.506 359.094 122.509 359.08 122.514 359.067C122.52 359.053 122.528 359.042 122.539 359.032C122.549 359.022 122.562 359.014 122.575 359.008C122.589 359.003 122.603 359 122.618 359H125.313C125.343 359 125.371 359.012 125.392 359.032C125.413 359.052 125.425 359.079 125.426 359.108V359.653H127.109V359.108C127.109 359.094 127.112 359.08 127.118 359.067C127.123 359.053 127.132 359.042 127.142 359.032C127.153 359.022 127.165 359.014 127.179 359.008C127.192 359.003 127.207 359 127.222 359H129.917C129.931 359 129.946 359.003 129.96 359.008C129.973 359.014 129.986 359.022 129.996 359.032C130.007 359.042 130.015 359.053 130.021 359.067C130.026 359.08 130.029 359.094 130.029 359.108V359.653H131.713V359.108C131.713 359.094 131.716 359.08 131.721 359.067C131.727 359.053 131.735 359.042 131.746 359.032C131.756 359.022 131.768 359.014 131.782 359.008C131.796 359.003 131.81 359 131.825 359H134.52C134.535 359 134.549 359.003 134.563 359.008C134.577 359.014 134.589 359.022 134.6 359.032C134.61 359.042 134.618 359.053 134.624 359.067C134.63 359.08 134.632 359.094 134.632 359.108V359.653H136.318V359.108C136.318 359.094 136.321 359.08 136.327 359.067C136.332 359.053 136.34 359.042 136.351 359.032C136.361 359.022 136.374 359.014 136.387 359.008C136.401 359.003 136.416 359 136.43 359H139.125C139.155 359 139.183 359.012 139.204 359.032C139.224 359.052 139.236 359.08 139.236 359.108V359.653H140.921V359.108C140.921 359.094 140.924 359.08 140.93 359.067C140.936 359.053 140.944 359.042 140.954 359.032C140.965 359.022 140.977 359.014 140.991 359.008C141.004 359.003 141.019 359 141.034 359H143.729C143.744 359 143.758 359.003 143.772 359.008C143.786 359.014 143.798 359.022 143.808 359.032C143.819 359.042 143.827 359.053 143.833 359.067C143.838 359.08 143.841 359.094 143.841 359.108V359.653H145.525V359.108C145.525 359.094 145.528 359.08 145.533 359.067C145.539 359.053 145.547 359.042 145.558 359.032C145.568 359.022 145.581 359.014 145.594 359.008C145.608 359.003 145.623 359 145.637 359H148.332C148.347 359 148.362 359.003 148.375 359.008C148.389 359.014 148.401 359.022 148.412 359.032C148.422 359.042 148.431 359.053 148.436 359.067C148.442 359.08 148.445 359.094 148.445 359.108V359.653H156.305C156.659 359.653 157.009 359.72 157.336 359.85C157.663 359.98 157.961 360.171 158.211 360.411C158.461 360.652 158.66 360.937 158.795 361.251C158.93 361.565 159 361.902 159 362.242Z" fill="#2D9CDB"/>
<path d="M151.783 310.689H119V310H104.135V310.689H71.2175C70.6294 310.689 70.0654 310.927 69.6495 311.352C69.2336 311.776 69 312.351 69 312.951V358.738C69 359.338 69.2336 359.913 69.6495 360.338C70.0653 360.762 70.6294 361 71.2175 361H151.783C152.371 361 152.935 360.762 153.351 360.338C153.766 359.913 154 359.338 154 358.738V312.951C154 312.351 153.766 311.776 153.351 311.352C152.935 310.927 152.371 310.689 151.783 310.689Z" fill="#2D9CDB"/>
<path d="M110.5 331C113.538 331 116 328.985 116 326.5C116 324.015 113.538 322 110.5 322C107.462 322 105 324.015 105 326.5C105 328.985 107.462 331 110.5 331Z" stroke="#D0CDE1" stroke-width="2" stroke-miterlimit="10"/>
<path d="M109.5 334C112.538 334 115 331.538 115 328.5C115 325.462 112.538 323 109.5 323C106.462 323 104 325.462 104 328.5C104 331.538 106.462 334 109.5 334Z" fill="#D0CDE1"/>
<path d="M472 76C479.18 76 485 69.9558 485 62.5C485 55.0442 479.18 49 472 49C464.82 49 459 55.0442 459 62.5C459 69.9558 464.82 76 472 76Z" fill="#FFB8B8"/>
<path d="M462.705 69C462.705 69 465.177 87.6281 461.374 89.719C457.572 91.8099 484 92 484 92C484 92 478.106 75.843 480.768 70.9008L462.705 69Z" fill="#FFB8B8"/>
<path d="M504 92.9228L501.761 103.044L497.028 124.458L496.886 125.63L495.253 139.206L494.166 148.225L493.438 154.284C489.008 156.544 485.797 158.105 485.797 158.105C485.797 158.105 485.521 156.73 485.075 154.971C481.967 155.897 476.214 157.432 471.339 157.739C473.114 159.703 473.93 161.549 472.823 162.911C469.483 167.017 455.696 158.415 450.873 155.207C450.761 155.976 450.718 156.752 450.746 157.528L447.056 154.71L447.421 148.225L448.037 137.254L448.811 123.496C448.567 122.907 448.362 122.302 448.199 121.686C447.068 117.696 445.697 109.727 444.644 103.044C443.798 97.6659 443.162 93.1213 443.027 92.1543C443.009 92.028 443 91.963 443 91.963L463.429 83C464.881 86.3431 471.66 87.348 471.66 87.348C477.277 86.9637 481.679 84.023 481.679 84.023L504 92.9228Z" fill="#F2C94C"/>
<path d="M461.498 49.7069L459.027 48.7257C459.027 48.7257 464.194 43.084 471.382 43.5746L469.36 41.3669C469.36 41.3669 474.302 39.4046 478.795 44.5557C481.157 47.2636 483.889 50.4465 485.593 54.032H488.239L487.134 56.4441L491 58.8561L487.032 58.4228C487.269 59.7437 487.305 61.0922 487.14 62.4236C486.97 63.7555 486.285 64.9697 485.229 65.81C485.229 65.81 482.165 59.5186 482.165 58.5374V60.9904C482.165 60.9904 479.694 58.7827 479.694 57.311L478.346 59.028L477.672 56.3298L469.361 59.028L470.708 56.8204L465.542 57.5563L467.564 54.858C467.564 54.858 461.723 58.0468 461.498 60.7451C461.274 63.4433 459.564 66 459.564 66C459.564 66 454.984 53.3863 461.498 49.7069Z" fill="#2F2E41"/>
<path d="M518.283 139.401C516.941 140.862 513.616 143.062 509.584 145.444C508.084 146.329 506.488 147.241 504.859 148.148C500.972 150.312 496.903 152.457 493.545 154.189C489.176 156.444 486.01 158 486.01 158C486.01 158 485.738 156.629 485.299 154.875C484.711 152.527 483.826 149.492 482.903 148.148C482.871 148.101 482.839 148.058 482.806 148.015C482.538 147.661 482.267 147.454 482 147.454L495.335 139.154L501.098 135.567L496.946 125.616L491.739 113.134L494.882 103.093L498.041 93H503.961C503.961 93 505.921 97.2963 508.428 103.287C508.803 104.183 509.19 105.117 509.584 106.081C514.741 118.675 521.17 136.261 518.283 139.401Z" fill="#F2C94C"/>
<path d="M458 148.488C457.505 148.487 457.011 148.527 456.523 148.609C452.331 149.328 451.094 153.119 450.742 155.658C450.63 156.433 450.587 157.217 450.615 158L446.911 155.155L445.562 154.119C442.314 152.987 439.42 150.978 436.911 148.609C434.734 146.517 432.781 144.204 431.085 141.707C429.394 139.247 427.888 136.665 426.577 133.984C426.211 133.236 426.014 132.417 426.001 131.584C425.987 130.752 426.157 129.926 426.498 129.167L431.085 118.957L437.788 104.036C437.837 103.681 437.891 103.334 437.95 102.994C439.28 95.3806 442.841 92 442.841 92H445.562L447.382 102.994L449.643 116.653L448.058 121.815L444.396 133.737L447.896 137.532L458 148.488Z" fill="#F2C94C"/>
<path d="M461.113 115.671L463.426 118.401C464.285 118.235 465.183 118.04 466.107 117.822L465.443 115.671L467.068 117.588C476.861 115.152 489 110.414 489 110.414C489 110.414 475.895 111.386 466.11 109.224C461.78 108.267 457.326 110.438 455.549 114.545C454.516 116.932 454.679 119 458.341 119C459.579 118.979 460.813 118.861 462.033 118.649L461.113 115.671Z" fill="#2F80ED"/>
<path d="M514 160.779V161.781C514.001 162.057 513.945 162.329 513.835 162.586C513.786 162.7 513.727 162.811 513.658 162.916C513.442 163.247 513.135 163.52 512.767 163.71C512.399 163.9 511.983 164 511.56 164H430.44C430.017 164 429.601 163.9 429.233 163.71C428.865 163.52 428.558 163.247 428.342 162.916C428.273 162.811 428.214 162.7 428.165 162.586C428.055 162.329 427.999 162.057 428 161.781V160.779C428 160.487 428.063 160.199 428.186 159.93C428.308 159.66 428.488 159.416 428.714 159.21C428.941 159.004 429.21 158.84 429.506 158.729C429.802 158.617 430.119 158.56 430.44 158.56H435.116V158.093C435.116 158.08 435.118 158.068 435.123 158.057C435.128 158.046 435.136 158.036 435.145 158.027C435.155 158.018 435.166 158.012 435.178 158.007C435.191 158.002 435.204 158 435.217 158H437.657C437.67 158 437.684 158.002 437.696 158.007C437.708 158.012 437.72 158.018 437.729 158.027C437.739 158.036 437.746 158.046 437.751 158.057C437.756 158.068 437.759 158.08 437.759 158.093V158.56H439.283V158.093C439.283 158.08 439.286 158.068 439.291 158.057C439.296 158.046 439.303 158.036 439.313 158.027C439.322 158.018 439.333 158.012 439.346 158.007C439.358 158.002 439.371 158 439.385 158H441.824C441.838 158 441.851 158.002 441.863 158.007C441.876 158.012 441.887 158.018 441.896 158.027C441.906 158.036 441.913 158.046 441.918 158.057C441.924 158.068 441.926 158.08 441.926 158.093V158.56H443.452V158.093C443.452 158.08 443.455 158.068 443.46 158.057C443.465 158.046 443.472 158.036 443.482 158.027C443.491 158.018 443.502 158.012 443.515 158.007C443.527 158.002 443.54 158 443.554 158H445.993C446.007 158 446.02 158.002 446.032 158.007C446.045 158.012 446.056 158.018 446.065 158.027C446.075 158.036 446.082 158.046 446.088 158.057C446.093 158.068 446.095 158.08 446.095 158.093V158.56H447.619V158.093C447.619 158.08 447.622 158.068 447.627 158.057C447.632 158.046 447.64 158.036 447.649 158.027C447.659 158.018 447.67 158.012 447.682 158.007C447.694 158.002 447.708 158 447.721 158H450.161C450.174 158 450.187 158.002 450.2 158.007C450.212 158.012 450.223 158.018 450.233 158.027C450.242 158.036 450.25 158.046 450.255 158.057C450.26 158.068 450.263 158.08 450.263 158.093V158.56H451.787V158.093C451.787 158.08 451.789 158.068 451.794 158.057C451.799 158.046 451.807 158.036 451.816 158.027C451.826 158.018 451.837 158.012 451.849 158.007C451.862 158.002 451.875 158 451.888 158H454.328C454.341 158 454.355 158.002 454.367 158.007C454.379 158.012 454.391 158.018 454.4 158.027C454.41 158.036 454.417 158.046 454.422 158.057C454.427 158.068 454.43 158.08 454.43 158.093V158.56H455.956V158.093C455.956 158.08 455.958 158.068 455.963 158.057C455.969 158.046 455.976 158.036 455.986 158.027C455.995 158.018 456.006 158.012 456.019 158.007C456.031 158.002 456.044 158 456.058 158H458.497C458.511 158 458.524 158.002 458.536 158.007C458.549 158.012 458.56 158.018 458.569 158.027C458.579 158.036 458.586 158.046 458.591 158.057C458.596 158.068 458.599 158.08 458.599 158.093V158.56H460.123V158.093C460.123 158.08 460.126 158.068 460.131 158.057C460.136 158.046 460.143 158.036 460.153 158.027C460.162 158.018 460.174 158.012 460.186 158.007C460.198 158.002 460.211 158 460.225 158H479.336C479.349 158 479.362 158.002 479.374 158.007C479.387 158.012 479.398 158.018 479.408 158.027C479.417 158.036 479.424 158.046 479.43 158.057C479.435 158.068 479.437 158.08 479.437 158.093V158.56H480.963V158.093C480.963 158.08 480.966 158.068 480.971 158.057C480.976 158.046 480.983 158.036 480.993 158.027C481.002 158.018 481.014 158.012 481.026 158.007C481.038 158.002 481.052 158 481.065 158H483.505C483.532 158 483.557 158.01 483.576 158.027C483.595 158.045 483.606 158.068 483.606 158.093V158.56H485.13V158.093C485.13 158.08 485.133 158.068 485.138 158.057C485.143 158.046 485.151 158.036 485.16 158.027C485.17 158.018 485.181 158.012 485.193 158.007C485.206 158.002 485.219 158 485.232 158H487.672C487.685 158 487.699 158.002 487.711 158.007C487.723 158.012 487.734 158.018 487.744 158.027C487.753 158.036 487.761 158.046 487.766 158.057C487.771 158.068 487.774 158.08 487.774 158.093V158.56H489.298V158.093C489.298 158.08 489.3 158.068 489.305 158.057C489.311 158.046 489.318 158.036 489.328 158.027C489.337 158.018 489.348 158.012 489.361 158.007C489.373 158.002 489.386 158 489.4 158H491.839C491.853 158 491.866 158.002 491.878 158.007C491.891 158.012 491.902 158.018 491.911 158.027C491.921 158.036 491.928 158.046 491.933 158.057C491.938 158.068 491.941 158.08 491.941 158.093V158.56H493.467V158.093C493.467 158.08 493.469 158.068 493.475 158.057C493.48 158.046 493.487 158.036 493.497 158.027C493.506 158.018 493.517 158.012 493.53 158.007C493.542 158.002 493.555 158 493.569 158H496.008C496.035 158 496.061 158.01 496.079 158.028C496.098 158.045 496.108 158.068 496.108 158.093V158.56H497.634V158.093C497.634 158.08 497.637 158.068 497.642 158.057C497.647 158.046 497.654 158.036 497.664 158.027C497.673 158.018 497.685 158.012 497.697 158.007C497.709 158.002 497.723 158 497.736 158H500.176C500.189 158 500.202 158.002 500.215 158.007C500.227 158.012 500.238 158.018 500.248 158.027C500.257 158.036 500.265 158.046 500.27 158.057C500.275 158.068 500.277 158.08 500.277 158.093V158.56H501.801V158.093C501.801 158.08 501.804 158.068 501.809 158.057C501.814 158.046 501.822 158.036 501.831 158.027C501.841 158.018 501.852 158.012 501.864 158.007C501.877 158.002 501.89 158 501.903 158H504.343C504.356 158 504.37 158.002 504.382 158.007C504.394 158.012 504.405 158.018 504.415 158.027C504.424 158.036 504.432 158.046 504.437 158.057C504.442 158.068 504.445 158.08 504.445 158.093V158.56H511.56C511.881 158.56 512.198 158.617 512.494 158.729C512.79 158.84 513.059 159.004 513.286 159.21C513.512 159.416 513.692 159.66 513.814 159.93C513.937 160.199 514 160.487 514 160.779Z" fill="#2D9CDB"/>
<path d="M506.965 114.608H476.882V114H463.242V114.608H433.035C432.768 114.608 432.503 114.66 432.256 114.76C432.009 114.86 431.785 115.007 431.596 115.193C431.407 115.378 431.257 115.598 431.155 115.84C431.053 116.082 431 116.342 431 116.604V157.004C431 157.534 431.214 158.041 431.596 158.415C431.978 158.79 432.495 159 433.035 159H506.965C507.505 159 508.022 158.79 508.404 158.415C508.786 158.041 509 157.534 509 157.004V116.604C509 116.342 508.947 116.082 508.845 115.84C508.743 115.598 508.593 115.378 508.404 115.193C508.215 115.007 507.991 114.86 507.744 114.76C507.497 114.66 507.232 114.608 506.965 114.608Z" fill="#2D9CDB"/>
<path d="M469.5 133C471.985 133 474 130.985 474 128.5C474 126.015 471.985 124 469.5 124C467.015 124 465 126.015 465 128.5C465 130.985 467.015 133 469.5 133Z" stroke="#D0CDE1" stroke-width="2" stroke-miterlimit="10"/>
<path d="M468.5 135C470.985 135 473 132.985 473 130.5C473 128.015 470.985 126 468.5 126C466.015 126 464 128.015 464 130.5C464 132.985 466.015 135 468.5 135Z" fill="#D0CDE1"/>
</g>
<defs>
<clipPath id="clip0">
<rect width="624" height="463" fill="white"/>
</clipPath>
</defs>
</svg>
