<svg width="101" height="101" viewBox="0 0 101 101" fill="none" xmlns="http://www.w3.org/2000/svg">
<g clip-path="url(#clip0)">
<path d="M20.8923 76.7128L14.453 69.8598C12.3857 67.6595 11.2348 64.754 11.2348 61.7348V37.4683C11.2348 35.2972 9.72655 33.4177 7.60713 32.9472C4.71523 32.3055 1.97266 34.506 1.97266 37.4683V68.0546C1.97266 71.63 3.08444 75.1171 5.15434 78.0327L8.67216 82.9882L17.0883 94.8436L20.0579 99.027H42.4946L39.2626 83.6228C37.8054 76.6778 33.695 70.576 27.8063 66.6165L20.9057 61.9767C18.8496 60.5942 16.0879 60.9468 14.4451 62.8012C12.6181 64.8637 12.6664 67.9787 14.5574 69.9827C18.336 73.9868 23.958 79.9734 23.958 79.9734" fill="#FFCDAC"/>
<path d="M80.1072 76.7128L86.5465 69.8598C88.6138 67.6595 89.7646 64.754 89.7646 61.7348V37.4683C89.7646 35.2972 91.2729 33.4177 93.3923 32.9472C96.2842 32.3055 99.0268 34.506 99.0268 37.4683V68.0546C99.0268 71.63 97.915 75.1171 95.8451 78.0327L92.3273 82.9882L83.9112 94.8436L80.9416 99.027H58.5049L61.7369 83.6228C63.1941 76.6778 67.3045 70.576 73.1932 66.6165L80.0937 61.9767C82.1498 60.5942 84.9115 60.9468 86.5544 62.8012C88.3814 64.8637 88.3331 67.9787 86.4421 69.9827C82.6635 73.9868 77.0415 79.9734 77.0415 79.9734" fill="#FFCDAC"/>
<path d="M55.2612 41.7573C56.203 40.7794 57.4211 40.0572 58.8148 39.7233L63.8517 38.5162V35.441H70.0028V38.5261L75.0268 39.7262C78.3118 40.5109 80.6295 43.4474 80.6295 46.825V50.5091H69.4933L55.2612 41.7573Z" fill="#F2C94C"/>
<path d="M45.7635 41.7472C44.8218 40.7694 43.6037 40.0472 42.21 39.7132L37.173 38.5061L37.1709 38.5095L37.173 38.5061V35.431H31.0219V38.516L25.998 39.7162C22.7129 40.5009 20.3953 43.4374 20.3953 46.8149V50.499H31.5315L45.7635 41.7472Z" fill="#EB5757"/>
<path d="M46.2218 41.6367L39.2059 43.3179C34.6335 44.4138 31.4092 48.5021 31.4092 53.2039V60.2973H69.5906V53.2098C69.5906 48.5052 66.3625 44.4153 61.7868 43.3223L54.7892 41.6507" fill="#2F80ED"/>
<path d="M54.7889 37.3535V41.6503L50.5075 51.3875L46.2217 41.6367V37.3535" fill="#FFB487"/>
<path d="M60.0743 22.5969V28.5296C60.0743 33.8037 55.7988 38.0792 50.5247 38.0792C45.2506 38.0792 40.9751 33.8037 40.9751 28.5296V22.5969" fill="#FFCDAC"/>
<path d="M50.5247 12.6249C45.2506 12.6249 40.9751 16.9005 40.9751 22.1745V24.4735H45.6442C48.7479 24.4735 51.6925 23.0993 53.6859 20.7203L60.0743 24.4735V22.1745C60.0743 16.9005 55.799 12.6249 50.5247 12.6249Z" fill="#BEBEBE"/>
<path d="M40.9576 26.1838V24.5333C40.9576 20.7468 37.888 17.6771 34.1015 17.6771C30.315 17.6771 27.2454 20.7468 27.2454 24.5333V26.1838H31.9714C34.931 26.1838 37.8351 25.3803 40.3737 23.859" fill="#F5B955"/>
<path d="M40.9576 24.8364V29.0958C40.9576 32.8823 37.888 35.9519 34.1015 35.9519C30.315 35.9519 27.2454 32.8823 27.2454 29.0958V24.8364" fill="#FFCDAC"/>
<path d="M60.0671 26.1939V24.5433C60.0671 20.7568 63.1368 17.6872 66.9233 17.6872C70.7098 17.6872 73.7794 20.7568 73.7794 24.5433V26.1939H69.0533C66.0938 26.1939 63.1896 25.3904 60.651 23.8691" fill="#F5B955"/>
<path d="M60.0671 24.8466V29.1059C60.0671 32.8924 63.1368 35.962 66.9233 35.962C70.7098 35.962 73.7794 32.8924 73.7794 29.1059V24.8466" fill="#FFCDAC"/>
<path d="M18.6966 93.7016C18.0661 92.8131 16.8346 92.6042 15.9461 93.2349C15.0578 93.8655 14.8487 95.0969 15.4796 95.9853L18.4494 100.169C18.8341 100.711 19.4421 101 20.0597 101C20.4546 101 20.8533 100.881 21.1999 100.635C22.0882 100.005 22.2973 98.7733 21.6664 97.8848L18.6966 93.7016Z" fill="#4C241D"/>
<path d="M41.1933 83.2178C39.6217 75.7272 35.2582 69.2502 28.907 64.9797L22.0065 60.3396C19.2395 58.4794 15.5203 58.8794 13.2075 61.2377V37.4681C13.2075 34.3482 11.0804 31.6973 8.03465 31.0213C6.0689 30.5845 4.04141 31.0576 2.47099 32.3175C0.900758 33.5774 0.000244141 35.4548 0.000244141 37.4681V68.0544C0.000244141 72.0615 1.22644 75.9067 3.54608 79.1744L7.0639 84.1299C7.44857 84.6718 8.05654 84.9608 8.67418 84.9608C9.0691 84.9608 9.46777 84.8424 9.81437 84.5965C10.7027 83.9658 10.9118 82.7345 10.2809 81.846L6.76308 76.8905C4.91983 74.2939 3.94554 71.2385 3.94554 68.0542V37.4681C3.94554 36.6577 4.30811 35.902 4.94015 35.3947C5.57199 34.8875 6.38807 34.6971 7.1799 34.8729C8.4059 35.1449 9.26222 36.2121 9.26222 37.4681V61.7348C9.26222 65.17 10.5243 68.4428 12.8171 70.9891C12.9154 71.1069 13.0164 71.2235 13.1231 71.3365C14.4331 72.7247 15.9734 74.3604 17.4241 75.9022L19.4549 78.0636C19.4614 78.0705 19.4685 78.0765 19.4752 78.0832C21.2125 79.9309 22.4938 81.2954 22.5206 81.3238C23.2661 82.1178 24.5147 82.1573 25.3089 81.4114C26.1031 80.6656 26.1424 79.4173 25.3963 78.6231C25.3604 78.5848 23.0512 76.1259 20.4142 73.323L15.8911 68.5091C15.8797 68.4969 15.8692 68.4841 15.8578 68.4718C14.7973 67.2034 14.8105 65.3643 15.9221 64.1093C16.9054 62.9995 18.5751 62.7865 19.8054 63.6136L26.7056 68.2537C32.199 71.9474 35.9729 77.5494 37.332 84.0279L40.5642 99.4322C40.7593 100.362 41.5793 101 42.4929 101C42.627 101 42.7633 100.986 42.8998 100.958C43.966 100.734 44.649 99.688 44.4253 98.6218L41.1933 83.2178Z" fill="#4C241D"/>
<path d="M14.6025 87.9344C13.9693 87.0475 12.7376 86.8415 11.8508 87.4743C10.9641 88.1072 10.7582 89.3391 11.3908 90.2258L11.4035 90.2435C11.7885 90.783 12.3951 91.0706 13.011 91.0706C13.4075 91.0706 13.8077 90.9515 14.1551 90.7035C15.0418 90.0707 15.2478 88.8388 14.6151 87.9521L14.6025 87.9344Z" fill="#4C241D"/>
<path d="M98.529 32.3177C96.9587 31.0577 94.9302 30.5855 92.9655 31.0215C89.9197 31.6973 87.7924 34.3483 87.7924 37.4683V61.2379C85.4799 58.8796 81.7603 58.4795 78.9934 60.3397L72.0929 64.9796C65.7416 69.25 61.3783 75.7272 59.8066 83.2177L56.5747 98.6219C56.351 99.6882 57.0339 100.734 58.1001 100.958C58.2366 100.986 58.3731 101 58.5071 101C59.4208 101 60.2406 100.362 60.4357 99.4319L63.6677 84.0277C65.0271 77.5493 68.8007 71.9472 74.2942 68.2536L81.1947 63.6138C82.4246 62.7864 84.0943 62.9995 85.0781 64.1093C86.1883 65.3627 86.2031 67.1988 85.1465 68.4673C85.1339 68.4811 85.1218 68.4953 85.1092 68.5091C85.1092 68.5091 75.6395 78.5852 75.6038 78.623C74.858 79.4172 74.8972 80.6655 75.6912 81.4114C76.4854 82.1572 77.7337 82.118 78.4795 81.3238C78.5064 81.2954 86.567 72.7248 87.877 71.3367C87.9838 71.2236 88.0848 71.1071 88.183 70.9893C90.4756 68.443 91.7379 65.1702 91.7379 61.735V37.4681C91.7379 36.2121 92.5942 35.1449 93.8204 34.8728C94.6121 34.6973 95.4279 34.8876 96.0602 35.3946C96.6922 35.9018 97.0548 36.6575 97.0548 37.4681V68.0544C97.0548 71.2386 96.0805 74.2941 94.2373 76.8907L79.3337 97.885C78.703 98.7733 78.9119 100.005 79.8002 100.635C80.147 100.881 80.5455 101 80.9404 101C81.5579 101 82.166 100.711 82.5507 100.169L97.4543 79.1746C99.7739 75.9069 101 72.0616 101 68.0546V37.4681C101 35.4548 100.099 33.5776 98.529 32.3177Z" fill="#4C241D"/>
<path d="M69.5905 62.27C70.6798 62.27 71.5632 61.3868 71.5632 60.2973V53.2098C71.5632 52.9654 71.5533 52.7232 71.5391 52.4819H80.6295C81.7188 52.4819 82.6021 51.5988 82.6021 50.5093V46.8251C82.6021 42.5169 79.6755 38.8087 75.485 37.8078L71.9755 36.9694V36.3401C74.2564 34.7423 75.7521 32.0964 75.7521 29.1062V24.5437C75.7521 19.6754 71.7916 15.7149 66.9233 15.7149C64.7386 15.7149 62.7383 16.5142 61.1951 17.8335C59.477 13.6259 55.3425 10.6523 50.5247 10.6523C45.7008 10.6523 41.5622 13.6335 39.8479 17.8493C38.3024 16.5205 36.2948 15.7145 34.1012 15.7145C29.2329 15.7145 25.2724 19.675 25.2724 24.5433V24.8465V29.1058C25.2724 32.096 26.7681 34.7419 29.0491 36.3397V36.969L25.5395 37.8074C21.3492 38.8085 18.4226 42.5165 18.4226 46.8247V50.5089C18.4226 51.5984 19.306 52.4815 20.3953 52.4815H29.46C29.446 52.7208 29.4363 52.9613 29.4363 53.2037V60.297C29.4363 61.3864 30.3196 62.2696 31.4089 62.2696H43.2665C44.3558 62.2696 45.2392 61.3864 45.2392 60.297C45.2392 59.2075 44.3558 58.3243 43.2665 58.3243H41.2284V54.2478C41.2284 53.1583 40.345 52.2752 39.2557 52.2752C38.1665 52.2752 37.2831 53.1583 37.2831 54.2478V58.3247H33.3818V53.2041C33.3818 49.3994 35.966 46.1231 39.6655 45.2366L45.0788 43.9394L48.7016 52.1815C49.0164 52.8977 49.725 53.3603 50.5071 53.3603H50.5073C51.2897 53.3603 51.9983 52.8979 52.3131 52.1817L55.9321 43.9518L61.3283 45.2409C65.0314 46.1256 67.6177 49.4024 67.6177 53.2098V58.3247H63.7164V54.2478C63.7164 53.1583 62.833 52.2752 61.7437 52.2752C60.6544 52.2752 59.7711 53.1583 59.7711 54.2478V58.3247H57.5355C56.4462 58.3247 55.5628 59.2078 55.5628 60.2973C55.5628 61.3868 56.4462 62.27 57.5355 62.27H69.5905ZM44.2489 38.3374C43.7421 38.1139 43.2139 37.9352 42.6694 37.8048L39.1455 36.9603V36.3456C39.7815 35.9012 40.3565 35.3759 40.8552 34.7837C41.7362 36.1409 42.8937 37.3014 44.2489 38.1853V38.3374ZM29.2179 29.1058V28.1662H31.9712C34.3863 28.1662 36.7692 27.6875 38.9849 26.7694V29.1056C38.9849 31.7983 36.7943 33.9891 34.1014 33.9891C31.4086 33.9891 29.2179 31.7987 29.2179 29.1058ZM42.948 28.5294V26.4459H45.6444C48.7726 26.4459 51.7469 25.2826 54.0265 23.2078L58.0945 25.5979V28.818C57.9421 32.8625 54.6061 36.1064 50.5249 36.1064C46.3468 36.1066 42.948 32.7075 42.948 28.5294ZM56.7616 38.3437V38.2102C58.1279 37.3268 59.2957 36.1634 60.1836 34.8003C60.6789 35.3857 61.249 35.9053 61.8789 36.3456V36.9603L58.3547 37.8048C57.8055 37.9366 57.2725 38.1175 56.7616 38.3437ZM62.0398 29.1058V28.8178C62.0422 28.7217 62.0471 28.6261 62.0471 28.5294V26.7726C64.2606 27.6887 66.641 28.1664 69.0536 28.1664H71.8068V29.106C71.8068 31.7987 69.6162 33.9895 66.9233 33.9895C64.2305 33.9895 62.0398 31.7987 62.0398 29.1058ZM66.9231 19.6598C69.5077 19.6598 71.6295 21.678 71.796 24.2211H69.0534C66.7478 24.2211 64.4788 23.666 62.4393 22.6091C63.1897 20.8755 64.9173 19.6598 66.9231 19.6598ZM42.948 22.1745C42.948 17.9967 46.3468 14.5976 50.5249 14.5976C54.2932 14.5976 57.4276 17.3628 58.0064 20.9704L54.6854 19.0193C53.8547 18.5312 52.793 18.7145 52.1742 19.4533C50.5513 21.39 48.1713 22.5008 45.6444 22.5008H42.948V22.1745ZM34.1014 19.6598C36.1074 19.6598 37.8348 20.8757 38.5852 22.6089C36.5455 23.6658 34.2768 24.2209 31.9712 24.2209H29.2286C29.3951 21.678 31.517 19.6598 34.1014 19.6598ZM38.7462 41.3998C34.8652 42.3297 31.8151 45.0355 30.3634 48.5364H22.3679V46.8249C22.3679 44.3501 24.049 42.2198 26.4562 41.6448L31.4802 40.4446C32.368 40.2325 32.9946 39.4389 32.9946 38.526V37.8628C33.3575 37.9084 33.7264 37.9346 34.1014 37.9346C34.4737 37.9346 34.84 37.9088 35.2002 37.8638V38.4266C35.1988 38.456 35.1982 38.4854 35.198 38.5148C35.1976 39.162 35.5158 39.796 36.1001 40.174C36.3202 40.3166 36.5581 40.4093 36.801 40.4557L39.7436 41.1607L38.7462 41.3998ZM50.5077 46.486L48.194 41.2224V39.8147C48.947 39.97 49.7264 40.0519 50.5245 40.0519C51.309 40.0519 52.0752 39.9724 52.8161 39.8222V41.2358L50.5077 46.486ZM62.245 41.4035L61.2545 41.167L64.2129 40.458C64.4591 40.4123 64.7009 40.3184 64.924 40.174C65.5074 39.7966 65.8246 39.1626 65.8246 38.5154C65.8246 38.5 65.8244 38.4844 65.824 38.469V37.8638C66.1844 37.9088 66.5505 37.9346 66.9227 37.9346C67.2977 37.9346 67.6666 37.9084 68.0296 37.8628V38.526C68.0296 39.4389 68.6561 40.2325 69.544 40.4446L74.5679 41.6448C76.9752 42.22 78.6564 44.3501 78.6564 46.8249V48.5364H70.6337C69.1806 45.0355 66.1285 42.3312 62.245 41.4035Z" fill="#4C241D"/>
<path d="M50.4997 58.3253C49.9788 58.3253 49.472 58.5344 49.1051 58.9013C48.7362 59.2702 48.5271 59.7771 48.5271 60.2979C48.5271 60.8167 48.7362 61.3237 49.1051 61.6926C49.472 62.0595 49.979 62.2706 50.4997 62.2706C51.0186 62.2706 51.5255 62.0595 51.8942 61.6926C52.2611 61.3237 52.4724 60.8167 52.4724 60.2979C52.4724 59.7771 52.2613 59.2702 51.8942 58.9013C51.5253 58.5344 51.0186 58.3253 50.4997 58.3253Z" fill="black"/>
<path d="M50.4988 6.89697C51.5881 6.89697 52.4714 6.01382 52.4714 4.92432V1.97265C52.4714 0.883155 51.5881 0 50.4988 0C49.4095 0 48.5261 0.883155 48.5261 1.97265V4.92432C48.5261 6.01382 49.4095 6.89697 50.4988 6.89697Z" fill="#4C241D"/>
<path d="M40.4439 9.2255C40.829 9.61036 41.3336 9.8027 41.838 9.8027C42.3432 9.8027 42.8482 9.60977 43.2334 9.22432C44.0034 8.4536 44.0028 7.20452 43.232 6.4346L41.1627 4.36726C40.392 3.59714 39.1431 3.59773 38.373 4.36844C37.6029 5.13916 37.6037 6.38824 38.3744 7.15816L40.4439 9.2255Z" fill="#4C241D"/>
<path d="M59.1292 9.84136C59.6344 9.84136 60.1396 9.64844 60.5247 9.26278L62.578 7.20748C63.3479 6.43677 63.3473 5.18769 62.5766 4.41776C61.8059 3.64784 60.5566 3.64823 59.7869 4.41914L57.7335 6.47444C56.9636 7.24516 56.9642 8.49424 57.7349 9.26417C58.12 9.64903 58.6246 9.84136 59.1292 9.84136Z" fill="#4C241D"/>
</g>
<defs>
<clipPath id="clip0">
<rect width="101" height="101" fill="white"/>
</clipPath>
</defs>
</svg>
