<?xml version="1.0" encoding="utf-8"?>
<!-- Generator: Adobe Illustrator 23.0.1, SVG Export Plug-In . SVG Version: 6.00 Build 0)  -->
<svg version="1.1" id="Layer_1" xmlns="http://www.w3.org/2000/svg" xmlns:xlink="http://www.w3.org/1999/xlink" x="0px" y="0px"
	 viewBox="0 0 18 18" style="enable-background:new 0 0 18 18;" xml:space="preserve">
<style type="text/css">
	.st0{fill:none;}
	.st1{fill:#0F9D58;}
</style>
<path class="st0" d="M0,0h18v18H0V0z"/>
<path class="st1" d="M12,8.3c1.2,0,2.2-1,2.2-2.3s-1-2.3-2.2-2.3S9.8,4.8,9.8,6S10.8,8.3,12,8.3z M6,8.3c1.2,0,2.2-1,2.2-2.3
	S7.2,3.8,6,3.8S3.8,4.8,3.8,6S4.8,8.3,6,8.3z M6,9.8c-1.7,0-5.3,0.9-5.3,2.6v1.9h10.5v-1.9C11.3,10.6,7.7,9.8,6,9.8z M12,9.8
	c-0.2,0-0.5,0-0.7,0c0.9,0.6,1.5,1.5,1.5,2.6v1.9h4.5v-1.9C17.3,10.6,13.7,9.8,12,9.8z"/>
</svg>
