<?xml version="1.0" encoding="utf-8"?>
<!-- Generator: Adobe Illustrator 23.0.1, SVG Export Plug-In . SVG Version: 6.00 Build 0)  -->
<svg version="1.1" id="mascot" xmlns="http://www.w3.org/2000/svg" xmlns:xlink="http://www.w3.org/1999/xlink" x="0px" y="0px"
	 viewBox="0 0 424.36 438.55" style="enable-background:new 0 0 424.36 438.55;" xml:space="preserve">
<style type="text/css">
	.st0{fill:#444444;}
	.st1{fill:#DCC6AB;}
	.st2{fill:#335493;}
	.st3{clip-path:url(#SVGID_2_);fill:#335493;}
	.st4{fill:#2B467B;}
	.st5{fill:none;stroke:#FFFFFF;}
	.st6{font-family:'BenguiatBold';}
	.st7{font-size:47.8123px;}
	.st8{clip-path:url(#Body_2_);}
	.st9{clip-path:url(#Body_2_);fill:#4D2F10;}
	.st10{clip-path:url(#Body_2_);fill:#FFFFFF;}
	.st11{clip-path:url(#Body_2_);fill:#FBBC04;}
	.st12{fill:#D5792D;}
	.st13{clip-path:url(#Right_Arm_2_);fill:#FBBC04;}
	.st14{clip-path:url(#Right_Arm_2_);}
	.st15{fill:#FBBC04;}
	.st16{fill:#FFFFFF;}
	.st17{display:none;}
	.st18{display:inline;fill:#EA4335;}
	.st19{display:inline;}
	.st20{fill:none;}
</style>
<g id="Person">
	<g id="Hair">
		<ellipse class="st0" cx="192.79" cy="163.98" rx="48.68" ry="42.6"/>
		<circle class="st0" cx="211.98" cy="125.31" r="40.58"/>
		<ellipse class="st0" cx="349.62" cy="114.54" rx="21.38" ry="22.99"/>
		<ellipse class="st0" cx="377.55" cy="136.65" rx="43.64" ry="41.89"/>
		<ellipse class="st0" cx="357.38" cy="170.62" rx="45.65" ry="34.96"/>
	</g>
	<g id="Face">
		<path class="st1" d="M185.64,206.58c0-48.14,41.47-87.16,92.62-87.16s92.62,39.02,92.62,87.16H185.64z"/>
		<circle cx="321.64" cy="163.87" r="8.02"/>
		<circle cx="235.45" cy="163.87" r="8.02"/>
	</g>
	<g id="Hat">
		<path class="st2" d="M279.85,132.77c-0.43-0.05-0.86-0.08-1.3-0.09c-4.38-0.05-29.09,0.09-51.86,9.39
			c-25.09,10.25-30.02,9.91-30.11,3.71c-0.12-8.51,5.02-21.6,9.16-26.84c0,0,0.32-30.07,7.2-45.38
			c11.56-25.75,49.75-29.93,74.18-28.8c37.75,1.75,66.11,16.8,69.6,40.58s0,42.11,0,42.11s9.47,31.01,2.84,33.16
			C350.23,163.66,326.61,138.58,279.85,132.77z"/>
		<g>
			<defs>
				<path id="SVGID_1_" d="M279.37,131.06c-0.43-0.05-0.86-0.08-1.3-0.09c-4.38-0.05-29.09,0.09-51.86,9.39
					c-25.09,10.25-30.02,9.91-30.11,3.71c-0.12-8.51,5.02-21.6,9.16-26.84c0,0,0.32-30.07,7.2-45.38
					c11.56-25.75,49.75-29.93,74.18-28.8c37.75,1.75,66.11,16.8,69.6,40.58s0,42.11,0,42.11s9.47,31.01,2.84,33.16
					C349.75,161.95,326.13,136.87,279.37,131.06z"/>
			</defs>
			<use xlink:href="#SVGID_1_"  style="overflow:visible;fill:#2B467B;"/>
			<clipPath id="SVGID_2_">
				<use xlink:href="#SVGID_1_"  style="overflow:visible;"/>
			</clipPath>
			<path class="st3" d="M241.49,45.67c0,0-24.22,13.09-26.4,64.15c0,0,22.69-11.56,66.76-8.73c44.07,2.84,66.98,18.55,66.98,18.55
				s5.67-48-13.96-65.24l-39.93-17.67L241.49,45.67z"/>
		</g>
		<path class="st4" d="M293.03,43.52l-12.29-0.56c-1-0.05-1.77-0.89-1.73-1.89l0.01-0.17c0.05-1,0.89-1.77,1.89-1.73l12.29,0.56
			c1,0.05,1.77,0.89,1.73,1.89l-0.01,0.17C294.88,42.79,294.03,43.56,293.03,43.52z"/>
		<text transform="matrix(0.9981 0.0622 -0.0622 0.9981 261.5212 91.6028)" class="st5 st6 st7">A</text>
	</g>
	<g id="Body_1_">
		<defs>
			<path id="Body" d="M185.64,213.45v136.36c0,11.45,9.28,20.73,20.73,20.73h16.79v47.17c0,11.22,9.1,20.32,20.32,20.32
				s20.32-9.1,20.32-20.32v-47.17h29.62v47.17c0,11.22,9.1,20.32,20.32,20.32h0c11.22,0,20.32-9.1,20.32-20.32v-47.17h16.1
				c11.45,0,20.73-9.28,20.73-20.73V213.45H185.64z"/>
		</defs>
		<use xlink:href="#Body"  style="overflow:visible;fill:#C09D73;"/>
		<clipPath id="Body_2_">
			<use xlink:href="#Body"  style="overflow:visible;"/>
		</clipPath>
		<rect x="216.4" y="407.07" class="st8" width="126.98" height="30.98"/>
		<rect x="181.05" y="328.22" class="st9" width="193.75" height="15.27"/>
		<rect x="263.84" y="327.47" class="st10" width="28.8" height="16.02"/>
		<rect x="179.31" y="209.09" class="st11" width="197.24" height="123.49"/>
		<g class="st8">
			<rect x="183.24" y="225.36" class="st12" width="190.25" height="12.65"/>
			<rect x="183.24" y="253" class="st12" width="190.25" height="12.65"/>
			<rect x="183.24" y="280.64" class="st12" width="190.25" height="12.65"/>
			<rect x="184.11" y="308.27" class="st12" width="190.25" height="12.65"/>
		</g>
	</g>
	<g id="Right_Arm_1_">
		<defs>
			<path id="Right_Arm" d="M399.86,338.25L399.86,338.25c-11.22,0-20.32-9.1-20.32-20.32v-88.53c0-11.22,9.1-20.32,20.32-20.32h0
				c11.22,0,20.32,9.1,20.32,20.32v88.53C420.18,329.16,411.09,338.25,399.86,338.25z"/>
		</defs>
		<use xlink:href="#Right_Arm"  style="overflow:visible;fill:#DCC6AB;"/>
		<clipPath id="Right_Arm_2_">
			<use xlink:href="#Right_Arm"  style="overflow:visible;"/>
		</clipPath>
		<rect x="376.98" y="208.78" class="st13" width="64.58" height="84.65"/>
		<g class="st14">
			<rect x="374.36" y="225.36" class="st12" width="56.03" height="12.65"/>
			<rect x="374.36" y="253" class="st12" width="56.03" height="12.65"/>
			<rect x="374.36" y="280.64" class="st12" width="56.03" height="12.65"/>
		</g>
	</g>
	<g id="Left_Arm">
		<path class="st1" d="M143.69,266.85c-0.13-0.14-0.27-0.27-0.4-0.42C143.42,266.58,143.56,266.71,143.69,266.85z"/>
		<path class="st1" d="M145.21,268.32c-0.2-0.17-0.4-0.34-0.6-0.52C144.81,267.98,145.01,268.14,145.21,268.32z"/>
		<path class="st1" d="M178.31,248.38c0.06,0.26,0.1,0.52,0.15,0.79C178.41,248.9,178.37,248.64,178.31,248.38z"/>
		<path class="st1" d="M143.28,266.42c-0.44-0.5-0.85-1.02-1.25-1.56C142.43,265.41,142.84,265.93,143.28,266.42z"/>
		<path class="st1" d="M146.71,269.5c-0.23-0.16-0.45-0.32-0.67-0.49C146.26,269.18,146.49,269.34,146.71,269.5z"/>
		<path class="st1" d="M155.43,273.06c-0.1-0.02-0.2-0.02-0.3-0.04C155.23,273.04,155.33,273.04,155.43,273.06z"/>
		<path class="st1" d="M177.96,247.12c-0.25-0.82-0.54-1.64-0.9-2.44c0.28,0.62,0.52,1.25,0.73,1.88
			C177.86,246.74,177.9,246.93,177.96,247.12z"/>
		<path class="st1" d="M153.36,272.64c-0.22-0.06-0.43-0.13-0.65-0.2C152.93,272.5,153.14,272.58,153.36,272.64z"/>
		<path class="st1" d="M148.28,270.52c-0.24-0.14-0.48-0.28-0.72-0.44C147.8,270.24,148.04,270.38,148.28,270.52z"/>
		<path class="st1" d="M149.92,271.38c-0.25-0.12-0.49-0.24-0.74-0.37C149.42,271.14,149.67,271.26,149.92,271.38z"/>
		<path class="st1" d="M178.65,250.22c0.04,0.28,0.06,0.55,0.09,0.83C178.71,250.78,178.69,250.5,178.65,250.22z"/>
		<path class="st1" d="M177.56,260.1c-0.04,0.1-0.08,0.19-0.12,0.28C177.48,260.29,177.52,260.2,177.56,260.1z"/>
		<path class="st1" d="M176.83,261.79c-0.1,0.2-0.21,0.39-0.31,0.59C176.62,262.19,176.74,261.99,176.83,261.79z"/>
		<path class="st1" d="M115.35,218.75l-6.32-10.96l-0.07-0.13l35.21-20.29l-12.23-21.23c-5.6-9.72-18.03-13.06-27.75-7.46h0
			c-9.72,5.6-13.06,18.03-7.46,27.75l28.78,49.94l-2.68-4.64L115.35,218.75z"/>
		<path class="st1" d="M174.92,264.98c-0.15,0.21-0.31,0.41-0.47,0.61C174.61,265.39,174.77,265.19,174.92,264.98z"/>
		<path class="st1" d="M175.95,263.42c-0.13,0.21-0.27,0.42-0.4,0.63C175.69,263.84,175.82,263.64,175.95,263.42z"/>
		<path class="st1" d="M178.27,257.71c-0.05,0.22-0.1,0.45-0.16,0.67C178.17,258.16,178.21,257.93,178.27,257.71z"/>
		<path class="st1" d="M178.81,252.08c0.01,0.28,0.02,0.56,0.02,0.84C178.83,252.64,178.82,252.36,178.81,252.08z"/>
		<path class="st1" d="M178.81,253.94c-0.01,0.28-0.03,0.55-0.05,0.83C178.78,254.49,178.79,254.22,178.81,253.94z"/>
		<path class="st1" d="M163.3,272.73c-0.25,0.06-0.5,0.11-0.75,0.16C162.8,272.84,163.05,272.79,163.3,272.73z"/>
		<path class="st1" d="M178.63,255.81c-0.04,0.26-0.07,0.52-0.12,0.78C178.56,256.33,178.59,256.07,178.63,255.81z"/>
		<path class="st1" d="M151.61,272.09c-0.25-0.09-0.49-0.19-0.73-0.29C151.13,271.89,151.37,272,151.61,272.09z"/>
		<path class="st1" d="M172.38,267.83c-0.18,0.17-0.36,0.34-0.55,0.5C172.02,268.17,172.2,268,172.38,267.83z"/>
		<path class="st1" d="M173.73,266.45c-0.17,0.19-0.34,0.38-0.52,0.57C173.39,266.83,173.56,266.64,173.73,266.45z"/>
		<path class="st1" d="M161.44,273.09c-0.25,0.04-0.51,0.07-0.76,0.1C160.93,273.16,161.18,273.12,161.44,273.09z"/>
		<path class="st1" d="M170.82,269.14c-0.17,0.13-0.33,0.26-0.5,0.39C170.49,269.41,170.65,269.27,170.82,269.14z"/>
		<path class="st1" d="M159.56,273.27c-0.25,0.01-0.5,0.03-0.74,0.03C159.06,273.3,159.31,273.28,159.56,273.27z"/>
		<path class="st1" d="M165.13,272.2c-0.23,0.08-0.47,0.15-0.71,0.22C164.66,272.35,164.89,272.28,165.13,272.2z"/>
		<path class="st1" d="M157.63,273.27c-0.22-0.01-0.44-0.01-0.66-0.03C157.18,273.26,157.4,273.26,157.63,273.27z"/>
		<path class="st1" d="M166.92,271.49c-0.19,0.09-0.39,0.16-0.59,0.24C166.53,271.65,166.73,271.58,166.92,271.49z"/>
		<path class="st15" d="M174.92,264.98c0.22-0.3,0.43-0.61,0.63-0.93c0.14-0.21,0.27-0.41,0.4-0.63c0.2-0.34,0.39-0.69,0.57-1.04
			c0.1-0.2,0.21-0.39,0.31-0.59c0.22-0.46,0.42-0.94,0.61-1.41c0.04-0.09,0.08-0.19,0.12-0.28c0.21-0.57,0.39-1.14,0.55-1.72
			c0.06-0.22,0.1-0.44,0.16-0.67c0.09-0.37,0.18-0.75,0.25-1.12c0.05-0.26,0.08-0.52,0.12-0.78c0.05-0.35,0.09-0.69,0.12-1.04
			c0.02-0.27,0.04-0.55,0.05-0.83c0.02-0.34,0.02-0.68,0.02-1.02c0-0.28-0.01-0.56-0.02-0.84c-0.02-0.34-0.04-0.68-0.08-1.03
			c-0.03-0.28-0.05-0.56-0.09-0.83c-0.05-0.35-0.12-0.71-0.18-1.06c-0.05-0.26-0.09-0.52-0.15-0.79c-0.1-0.42-0.22-0.84-0.35-1.26
			c-0.06-0.19-0.1-0.38-0.16-0.56l-34.51,19.88c0,0,0,0,0,0c0.13,0.15,0.27,0.28,0.4,0.42c0.3,0.32,0.6,0.64,0.92,0.94
			c0.19,0.18,0.4,0.35,0.6,0.52c0.27,0.24,0.55,0.47,0.83,0.69c0.22,0.17,0.45,0.33,0.67,0.49c0.28,0.2,0.56,0.4,0.85,0.58
			c0.24,0.15,0.48,0.29,0.72,0.44c0.3,0.17,0.59,0.34,0.9,0.49c0.24,0.13,0.49,0.25,0.74,0.37c0.32,0.15,0.64,0.28,0.97,0.42
			c0.24,0.1,0.48,0.2,0.73,0.29c0.36,0.13,0.73,0.24,1.1,0.35c0.22,0.06,0.43,0.14,0.65,0.2c0.58,0.15,1.17,0.28,1.77,0.39
			c0.1,0.02,0.2,0.02,0.3,0.04c0.51,0.08,1.02,0.14,1.53,0.18c0.22,0.02,0.44,0.02,0.66,0.03c0.4,0.02,0.79,0.03,1.19,0.03
			c0.25,0,0.5-0.02,0.74-0.03c0.37-0.02,0.75-0.04,1.12-0.08c0.25-0.03,0.51-0.06,0.76-0.1c0.37-0.05,0.74-0.12,1.11-0.19
			c0.25-0.05,0.5-0.1,0.75-0.16c0.38-0.09,0.75-0.2,1.12-0.31c0.24-0.07,0.47-0.14,0.71-0.22c0.41-0.14,0.81-0.3,1.21-0.47
			c0.2-0.08,0.39-0.15,0.59-0.24c0.59-0.27,1.17-0.56,1.75-0.89h0c0.57-0.33,1.12-0.69,1.65-1.06c0.17-0.12,0.34-0.26,0.5-0.39
			c0.35-0.26,0.69-0.53,1.01-0.81c0.19-0.16,0.36-0.33,0.55-0.5c0.29-0.27,0.57-0.53,0.83-0.81c0.18-0.19,0.35-0.38,0.52-0.57
			c0.25-0.28,0.49-0.57,0.72-0.86C174.61,265.39,174.77,265.18,174.92,264.98z"/>
		
			<rect x="116.37" y="207.6" transform="matrix(0.8665 -0.4992 0.4992 0.8665 -89.1291 96.9625)" class="st15" width="40.64" height="14.98"/>
		
			<rect x="130.17" y="231.55" transform="matrix(0.8665 -0.4992 0.4992 0.8665 -99.2414 107.048)" class="st15" width="40.64" height="14.98"/>
		<polygon class="st15" points="109.03,207.78 144.24,187.49 144.17,187.37 144.17,187.37 108.96,207.66 		"/>
		<path class="st12" d="M177.8,246.55c-0.21-0.63-0.46-1.26-0.73-1.88c-0.28-0.62-0.59-1.23-0.93-1.83l-4.3-7.46l-35.21,20.29
			l4.3,7.46c0.35,0.6,0.72,1.18,1.11,1.73c0.39,0.55,0.81,1.07,1.25,1.56c0,0,0.01,0.01,0.01,0.01L177.8,246.55z"/>
		<polygon class="st12" points="164.35,222.41 158.04,211.44 122.83,231.73 125.5,236.37 129.14,242.69 		"/>
		
			<rect x="109.47" y="196.79" transform="matrix(0.8665 -0.4992 0.4992 0.8665 -84.073 91.9198)" class="st12" width="40.64" height="12.65"/>
	</g>
</g>
<g id="Wrench">
	<path class="st15" d="M115.63,131.64H19.52c-8.66,0-15.68-7.02-15.68-15.68V19.3c0-8.66,7.02-15.68,15.68-15.68h96.11
		c8.66,0,15.68,7.02,15.68,15.68v96.65C131.31,124.62,124.29,131.64,115.63,131.64z"/>
	<path class="st16" d="M109.81,94.42l-35.6-35.6c0.95-2.68,1.47-5.56,1.47-8.57c0-14.22-11.58-25.75-25.85-25.75
		c-4.04,0-7.87,0.93-11.28,2.57l16.79,16.79L43.77,55.44L26.82,38.49c-1.82,3.53-2.86,7.52-2.86,11.76
		C23.96,64.47,35.54,76,49.82,76c3.35,0,6.55-0.64,9.48-1.8l35.36,35.36c2.15,2.15,5.64,2.15,7.79,0l7.36-7.36
		C111.96,100.06,111.96,96.57,109.81,94.42z"/>
</g>
<g id="Cog" class="st17">
	<path class="st18" d="M115.5,131.35H19.39c-8.66,0-15.68-7.02-15.68-15.68V19.01c0-8.66,7.02-15.68,15.68-15.68h96.11
		c8.66,0,15.68,7.02,15.68,15.68v96.65C131.18,124.32,124.16,131.35,115.5,131.35z"/>
	<g class="st19">
		<path class="st20" d="M14.87,14.76h105.15v105.15H14.87V14.76z"/>
		<path class="st16" d="M98.73,71.45c0.18-1.31,0.26-2.67,0.26-4.12c0-1.4-0.09-2.8-0.31-4.12l8.89-6.92
			c0.79-0.61,1.01-1.8,0.53-2.67l-8.41-14.55c-0.53-0.96-1.62-1.27-2.58-0.96l-10.47,4.21c-2.19-1.66-4.51-3.07-7.1-4.12
			l-1.58-11.13c-0.18-1.05-1.05-1.8-2.1-1.8H59.03c-1.05,0-1.88,0.74-2.06,1.8L55.4,38.2c-2.58,1.05-4.95,2.5-7.1,4.12l-10.47-4.21
			c-0.96-0.35-2.06,0-2.58,0.96l-8.37,14.55c-0.53,0.92-0.35,2.06,0.53,2.67l8.89,6.92c-0.22,1.31-0.39,2.76-0.39,4.12
			s0.09,2.8,0.31,4.12l-8.89,6.92c-0.79,0.61-1.01,1.8-0.53,2.67l8.41,14.55c0.53,0.96,1.62,1.27,2.58,0.96l10.47-4.21
			c2.19,1.66,4.51,3.07,7.1,4.12l1.58,11.13c0.22,1.05,1.05,1.8,2.1,1.8h16.82c1.05,0,1.93-0.74,2.06-1.8l1.58-11.13
			c2.58-1.05,4.95-2.45,7.1-4.12l10.47,4.21c0.96,0.35,2.06,0,2.58-0.96l8.41-14.55c0.53-0.96,0.31-2.06-0.53-2.67L98.73,71.45z
			 M67.45,83.11c-8.67,0-15.77-7.1-15.77-15.77s7.1-15.77,15.77-15.77s15.77,7.1,15.77,15.77S76.12,83.11,67.45,83.11z"/>
	</g>
</g>
</svg>
