<svg xmlns="http://www.w3.org/2000/svg" xmlns:xlink="http://www.w3.org/1999/xlink" viewBox="0 0 201.3 327.17"><defs><style>.cls-1{fill:#2b467b;}.cls-2{fill:#444;}.cls-3{fill:#dcc6ab;}.cls-4{fill:#335493;}.cls-5{clip-path:url(#clip-path);}.cls-6{font-size:47.81px;fill:none;stroke:#fff;font-family:BenguiatBold, Benguiat;}.cls-7{fill:#d85040;}.cls-8{fill:#fbbc04;}.cls-9{fill:#98231b;}</style><clipPath id="clip-path"><path class="cls-1" d="M94.33,141.81c0,.43-.08.86-.09,1.3,0,4.38.09,29.09,9.4,51.85,10.25,25.09,9.91,30,3.71,30.11-8.51.12-21.6-5-26.84-9.16,0,0-30.07-.32-45.38-7.2C9.38,197.15,5.2,159,6.33,134.53c1.74-37.75,16.8-66.11,40.58-69.6a139.92,139.92,0,0,1,42.11,0s31-9.47,33.16-2.84C125.22,71.43,100.15,95.05,94.33,141.81Z"/></clipPath></defs><title>Side Person</title><g id="Layer_2" data-name="Layer 2"><g id="mascot"><g id="Side_Person" data-name="Side Person"><g id="Hair"><ellipse class="cls-2" cx="126.76" cy="228.39" rx="42.11" ry="48.68"/><circle class="cls-2" cx="88.58" cy="209.2" r="40.58"/><ellipse class="cls-2" cx="77.81" cy="71.56" rx="22.99" ry="21.38"/><ellipse class="cls-2" cx="99.93" cy="43.64" rx="41.89" ry="43.64"/><ellipse class="cls-2" cx="133.89" cy="63.8" rx="34.96" ry="45.65"/></g><g id="Face"><path class="cls-3" d="M169.85,235.55c-48.13,0-87.16-41.47-87.16-92.62s39-92.62,87.16-92.62Z"/><circle cx="127.15" cy="99.55" r="8.02"/><circle cx="127.15" cy="185.73" r="8.02"/></g><g id="Hat"><path class="cls-4" d="M96,141.33a11.2,11.2,0,0,0-.09,1.3c0,4.38.09,29.09,9.4,51.86,10.25,25.09,9.91,30,3.7,30.11-8.5.11-21.6-5-26.83-9.17,0,0-30.07-.32-45.38-7.2C11.09,196.67,6.91,158.48,8,134.05c1.74-37.75,16.8-66.11,40.58-69.6a139.92,139.92,0,0,1,42.11,0s31-9.47,33.16-2.84C126.93,71,101.86,94.57,96,141.33Z"/><path class="cls-1" d="M94.33,141.81c0,.43-.08.86-.09,1.3,0,4.38.09,29.09,9.4,51.85,10.25,25.09,9.91,30,3.71,30.11-8.51.12-21.6-5-26.84-9.16,0,0-30.07-.32-45.38-7.2C9.38,197.15,5.2,159,6.33,134.53c1.74-37.75,16.8-66.11,40.58-69.6a139.92,139.92,0,0,1,42.11,0s31-9.47,33.16-2.84C125.22,71.43,100.15,95.05,94.33,141.81Z"/><g class="cls-5"><path class="cls-4" d="M9,179.69S22,203.91,73.09,206.09c0,0-11.56-22.69-8.73-66.76s18.55-67,18.55-67-48-5.68-65.24,14L0,126.24Z"/></g><rect class="cls-1" x="-3.35" y="132.31" width="15.93" height="3.8" rx="1.81" transform="translate(-129.67 132.73) rotate(-87.4)"/><text class="cls-6" transform="translate(54.88 159.66) rotate(-86.44)">A</text></g><rect class="cls-7" x="176.73" y="50.31" width="11.91" height="185.24"/><line class="cls-8" x1="201.29" y1="50.31" x2="201.29" y2="235.55"/><rect class="cls-9" x="188.64" y="50.31" width="12.65" height="185.24"/><line class="cls-8" x1="201.29" y1="1" x2="201.29" y2="41.64"/><path class="cls-7" d="M172.36,21.32h0a20.32,20.32,0,0,0,16.28,19.91V1.41A20.31,20.31,0,0,0,172.36,21.32Z"/><path class="cls-9" d="M192.68,1a19.91,19.91,0,0,0-4,.41V41.23a19.91,19.91,0,0,0,4,.41h8.61V1Z"/><path class="cls-3" d="M182,305.84l-11,6.31-.12.08L150.64,277l-21.23,12.23A20.32,20.32,0,0,0,122,317h0a20.32,20.32,0,0,0,27.75,7.46l49.94-28.78L195,298.36Z"/><rect class="cls-7" x="170.87" y="264.17" width="14.98" height="40.64" transform="translate(-118.21 127.04) rotate(-29.95)"/><polyline class="cls-7" points="201.28 283.91 201.28 253.89 198.66 249.35 185.68 256.83 201.28 283.91"/><rect class="cls-7" x="160.77" y="274.27" width="0.15" height="40.64" transform="translate(-125.59 119.64) rotate(-29.95)"/><polygon class="cls-9" points="201.3 283.94 185.68 256.83 174.71 263.15 195 298.36 199.64 295.68 201.29 294.73 201.3 283.94"/><rect class="cls-9" x="160.07" y="271.07" width="12.65" height="40.64" transform="translate(-123.25 121.98) rotate(-29.95)"/></g></g></g></svg>