<?xml version="1.0" encoding="utf-8"?>
<!-- Generator: Adobe Illustrator 23.0.1, SVG Export Plug-In . SVG Version: 6.00 Build 0)  -->
<svg version="1.1" id="mascot" xmlns="http://www.w3.org/2000/svg" xmlns:xlink="http://www.w3.org/1999/xlink" x="0px" y="0px"
	 viewBox="0 0 258.3 332.5" style="enable-background:new 0 0 258.3 332.5;" xml:space="preserve">
<style type="text/css">
	.st0{fill:#444444;}
	.st1{fill:#DCC6AB;}
	.st2{fill:#335493;}
	.st3{clip-path:url(#SVGID_2_);fill:#335493;}
	.st4{fill:#2B467B;}
	.st5{fill:none;stroke:#FFFFFF;}
	.st6{clip-path:url(#Body_2_);}
	.st7{clip-path:url(#Body_2_);fill:#4D2F10;}
	.st8{clip-path:url(#Body_2_);fill:#FFFFFF;}
	.st9{clip-path:url(#Body_2_);fill:#FBBC04;}
	.st10{fill:#D5792D;}
	.st11{clip-path:url(#Right_Arm_2_);fill:#FBBC04;}
	.st12{clip-path:url(#Right_Arm_2_);}
	.st13{fill:#FBBC04;}
	.st14{fill:#FFFFFF;}
	.st15{display:none;}
	.st16{display:inline;fill:#EA4335;}
	.st17{display:inline;}
	.st18{fill:none;}
	.st19{clip-path:url(#SVGID_4_);fill:#335493;}
	.st20{fill:#D85040;}
	.st21{fill:#98231B;}
</style>
<g id="Person">
	<g id="Right_Arm_1_">
		<defs>
			<path id="Right_Arm" d="M-37.4,279.2L-37.4,279.2c-11.2,0-20.3-9.1-20.3-20.3v-88.5c0-11.2,9.1-20.3,20.3-20.3h0
				c11.2,0,20.3,9.1,20.3,20.3v88.5C-17.1,270.1-26.2,279.2-37.4,279.2z"/>
		</defs>
		<use xlink:href="#Right_Arm"  style="overflow:visible;fill:#DCC6AB;"/>
		<clipPath id="Right_Arm_2_">
			<use xlink:href="#Right_Arm"  style="overflow:visible;"/>
		</clipPath>
		<rect x="-60.3" y="149.7" class="st11" width="64.6" height="84.7"/>
	</g>
</g>
<g id="Person_1_">
	<g id="Hair_1_">
		<ellipse class="st0" cx="126.1" cy="229.5" rx="42.1" ry="48.7"/>
		<circle class="st0" cx="87.9" cy="210.3" r="40.6"/>
		<ellipse class="st0" cx="77.2" cy="72.7" rx="23" ry="21.4"/>
		<ellipse class="st0" cx="99.3" cy="44.7" rx="41.9" ry="43.6"/>
		<ellipse class="st0" cx="133.3" cy="64.9" rx="35" ry="45.7"/>
	</g>
	<g id="Face_1_">
		<path class="st1" d="M169.2,236.6c-48.1,0-87.2-41.5-87.2-92.6s39-92.6,87.2-92.6V236.6z"/>
		<circle cx="126.5" cy="100.6" r="8"/>
		<circle cx="126.5" cy="186.8" r="8"/>
	</g>
	<g id="Hat_1_">
		<path class="st2" d="M95.4,142.4c-0.1,0.4-0.1,0.9-0.1,1.3c-0.1,4.4,0.1,29.1,9.4,51.9c10.3,25.1,9.9,30,3.7,30.1
			c-8.5,0.1-21.6-5-26.8-9.2c0,0-30.1-0.3-45.4-7.2c-25.7-11.6-29.9-49.7-28.8-74.2C9.1,97.4,24.2,69,48,65.6
			c23.8-3.5,42.1,0,42.1,0s31-9.5,33.2-2.8C126.3,72.1,101.2,95.7,95.4,142.4z"/>
		<g>
			<defs>
				<path id="SVGID_3_" d="M93.7,142.9c-0.1,0.4-0.1,0.9-0.1,1.3c-0.1,4.4,0.1,29.1,9.4,51.9c10.3,25.1,9.9,30,3.7,30.1
					c-8.5,0.1-21.6-5-26.8-9.2c0,0-30.1-0.3-45.4-7.2C8.7,198.2,4.6,160.1,5.7,135.6C7.4,97.9,22.5,69.5,46.3,66
					c23.8-3.5,42.1,0,42.1,0s31-9.5,33.2-2.8C124.6,72.5,99.5,96.2,93.7,142.9z"/>
			</defs>
			<use xlink:href="#SVGID_3_"  style="overflow:visible;fill:#2B467B;"/>
			<clipPath id="SVGID_2_">
				<use xlink:href="#SVGID_3_"  style="overflow:visible;"/>
			</clipPath>
			<path class="st3" d="M8.3,180.8c0,0,13.1,24.2,64.1,26.4c0,0-11.6-22.7-8.7-66.8c2.8-44.1,18.5-67,18.5-67s-48-5.7-65.2,14
				l-17.7,39.9L8.3,180.8z"/>
		</g>
		<path class="st4" d="M6.2,129.3l-0.6,12.3c0,1-0.9,1.8-1.9,1.7l-0.2,0c-1,0-1.8-0.9-1.7-1.9l0.6-12.3c0-1,0.9-1.8,1.9-1.7l0.2,0
			C5.4,127.4,6.2,128.3,6.2,129.3z"/>
		<g>
			<path class="st5" d="M56.9,118.2l-1.2,18.6l-1.4-0.1c-0.1-0.6-0.2-1.1-0.3-1.4c-0.5-1-1.4-1.5-2.7-1.6c-0.4,0-0.8,0-1,0
				c-1.1,0.1-2.4,0.7-3.9,1.9c-1.6,1.3-2.8,2.7-3.7,4.3c-0.3,0.6-0.6,1.6-0.9,2.8c-0.3,1.2-0.5,2.3-0.5,3.1l7.1,3
				c0.8,0.4,1.8,0.6,2.8,0.6c0.5,0,0.9,0,1.1-0.1c0.5-0.3,0.8-0.6,1-0.9c0.2-0.3,0.4-0.7,0.5-1.2l1.3,0.1l-0.7,11.9l-1.4-0.1
				c-0.1-0.5-0.2-0.9-0.4-1.1c-0.1-0.2-0.4-0.6-0.8-1.1c-0.5-0.7-0.9-1.2-1.3-1.5c-0.4-0.3-1-0.7-1.8-1l-24.9-11.5
				c-0.3-0.1-0.6-0.3-0.8-0.4c-0.3-0.1-0.5-0.2-0.8-0.2c-0.3,0-0.6,0-0.9,0.2s-0.4,0.3-0.5,0.4c-0.1,0.2-0.2,0.3-0.2,0.5l-1.4-0.1
				l1-15.9l1.6,0.1c0,0.6,0.1,1,0.5,1.2c0.2,0.1,0.4,0.2,0.6,0.2s0.4,0,0.7-0.1c0,0,0.3-0.1,0.7-0.2l28.6-7.6
				c0.3-0.1,0.5-0.3,0.7-0.4c0.5-0.3,0.9-0.6,1.1-0.8c0.2-0.3,0.4-0.5,0.5-0.8c0.1-0.2,0.2-0.5,0.3-0.9L56.9,118.2z M39.9,136.3
				l-13,3.2l9.9,4.1c0-0.3,0.1-0.6,0.1-1.1c0.1-0.4,0.2-1.1,0.5-1.9c0.3-0.8,0.7-1.7,1.3-2.7C39.1,137.3,39.5,136.8,39.9,136.3z"/>
		</g>
	</g>
	<g>
		<rect x="176.1" y="51.4" class="st20" width="11.9" height="185.2"/>
		<rect x="200.7" y="51.4" class="st20" width="15" height="185.2"/>
		<rect x="228.3" y="51.4" class="st20" width="15" height="185.2"/>
		<rect x="188" y="51.4" class="st21" width="12.7" height="185.2"/>
		<rect x="215.6" y="51.4" class="st21" width="12.7" height="185.2"/>
		<rect x="243.3" y="51.4" class="st21" width="12.7" height="185.2"/>
	</g>
	<g>
		<rect x="200.7" y="2.1" class="st20" width="15" height="40.6"/>
		<path class="st20" d="M171.7,22.4L171.7,22.4c0,9.8,7,18,16.3,19.9V2.5C178.7,4.4,171.7,12.6,171.7,22.4z"/>
		<rect x="228.3" y="2.1" class="st20" width="15" height="40.6"/>
		<path class="st21" d="M192,2.1c-1.4,0-2.7,0.1-4,0.4v39.8c1.3,0.3,2.7,0.4,4,0.4h8.6V2.1H192z"/>
		<rect x="215.6" y="2.1" class="st21" width="12.7" height="40.6"/>
		<rect x="243.3" y="2.1" class="st21" width="12.7" height="40.6"/>
	</g>
	<g id="Left_Arm_1_">
		<path class="st1" d="M181.4,306.9l-11,6.3l-0.1,0.1L150,278.1l-21.2,12.2c-9.7,5.6-13.1,18-7.5,27.7v0c5.6,9.7,18,13.1,27.7,7.5
			l49.9-28.8l-4.6,2.7L181.4,306.9z"/>
		<path class="st20" d="M227.6,247.4c-0.3-0.2-0.6-0.4-0.9-0.6c-0.2-0.1-0.4-0.3-0.6-0.4c-0.3-0.2-0.7-0.4-1-0.6
			c-0.2-0.1-0.4-0.2-0.6-0.3c-0.5-0.2-0.9-0.4-1.4-0.6c-0.1,0-0.2-0.1-0.3-0.1c-0.6-0.2-1.1-0.4-1.7-0.6c-0.2-0.1-0.4-0.1-0.7-0.2
			c-0.4-0.1-0.7-0.2-1.1-0.2c-0.3,0-0.5-0.1-0.8-0.1c-0.3,0-0.7-0.1-1-0.1c-0.3,0-0.6,0-0.8-0.1c-0.3,0-0.7,0-1,0
			c-0.3,0-0.6,0-0.8,0c-0.3,0-0.7,0-1,0.1c-0.3,0-0.6,0.1-0.8,0.1c-0.4,0-0.7,0.1-1.1,0.2c-0.3,0.1-0.5,0.1-0.8,0.2
			c-0.4,0.1-0.8,0.2-1.3,0.3c-0.2,0.1-0.4,0.1-0.6,0.2l19.9,34.5c0,0,0,0,0,0c0.1-0.1,0.3-0.3,0.4-0.4c0.3-0.3,0.6-0.6,0.9-0.9
			c0.2-0.2,0.3-0.4,0.5-0.6c0.2-0.3,0.5-0.5,0.7-0.8c0.2-0.2,0.3-0.4,0.5-0.7c0.2-0.3,0.4-0.6,0.6-0.9c0.2-0.2,0.3-0.5,0.4-0.7
			c0.2-0.3,0.3-0.6,0.5-0.9c0.1-0.2,0.3-0.5,0.4-0.7c0.1-0.3,0.3-0.6,0.4-1c0.1-0.2,0.2-0.5,0.3-0.7c0.1-0.4,0.2-0.7,0.4-1.1
			c0.1-0.2,0.1-0.4,0.2-0.6c0.2-0.6,0.3-1.2,0.4-1.8c0-0.1,0-0.2,0-0.3c0.1-0.5,0.1-1,0.2-1.5c0-0.2,0-0.4,0-0.7c0-0.4,0-0.8,0-1.2
			c0-0.2,0-0.5,0-0.7c0-0.4,0-0.7-0.1-1.1c0-0.3-0.1-0.5-0.1-0.8c-0.1-0.4-0.1-0.7-0.2-1.1c-0.1-0.3-0.1-0.5-0.2-0.8
			c-0.1-0.4-0.2-0.7-0.3-1.1c-0.1-0.2-0.1-0.5-0.2-0.7c-0.1-0.4-0.3-0.8-0.5-1.2c-0.1-0.2-0.2-0.4-0.2-0.6c-0.3-0.6-0.6-1.2-0.9-1.7
			v0c-0.3-0.6-0.7-1.1-1.1-1.6c-0.1-0.2-0.3-0.3-0.4-0.5c-0.3-0.3-0.5-0.7-0.8-1c-0.2-0.2-0.3-0.4-0.5-0.5c-0.3-0.3-0.5-0.6-0.8-0.8
			c-0.2-0.2-0.4-0.3-0.6-0.5c-0.3-0.2-0.6-0.5-0.9-0.7C228,247.7,227.8,247.5,227.6,247.4z"/>
		
			<rect x="170.2" y="265.3" transform="matrix(0.8665 -0.4992 0.4992 0.8665 -118.8461 126.8626)" class="st20" width="15" height="40.6"/>
		
			<rect x="194.2" y="251.5" transform="matrix(0.8665 -0.4992 0.4992 0.8665 -108.7606 136.9749)" class="st20" width="15" height="40.6"/>
		<path class="st21" d="M209.2,244.5c-0.6,0.2-1.3,0.5-1.9,0.7c-0.6,0.3-1.2,0.6-1.8,0.9l-7.5,4.3l20.3,35.2l7.5-4.3
			c0.6-0.3,1.2-0.7,1.7-1.1c0.5-0.4,1.1-0.8,1.6-1.2c0,0,0,0,0,0L209.2,244.5z"/>
		<polygon class="st21" points="185,257.9 174.1,264.2 194.4,299.5 199,296.8 205.3,293.1 		"/>
		
			<rect x="159.4" y="272.2" transform="matrix(0.8665 -0.4992 0.4992 0.8665 -123.8889 121.8066)" class="st21" width="12.7" height="40.6"/>
	</g>
</g>
</svg>
